SplineFontDB: 3.0
FontName: DuctusSansBold
FullName: Ductus Sans Bold
FamilyName: DuctusSansBold
Weight: Bold
Copyright: 
Version: 001.000
ItalicAngle: 0
UnderlinePosition: -150
UnderlineWidth: 50
Ascent: 800
Descent: 200
InvalidEm: 0
sfntRevision: 0x00010000
LayerCount: 2
Layer: 0 1 "Arri+AOgA-re" 1
Layer: 1 1 "Avant" 0
XUID: [1021 706 -322349554 4069272]
StyleMap: 0x0000
FSType: 0
OS2Version: 4
OS2_WeightWidthSlopeOnly: 0
OS2_UseTypoMetrics: 1
CreationTime: 1510948569
ModificationTime: 1519142748
PfmFamily: 17
TTFWeight: 400
TTFWidth: 5
LineGap: 90
VLineGap: 0
Panose: 2 0 5 3 0 0 0 0 0 0
OS2TypoAscent: 800
OS2TypoAOffset: 0
OS2TypoDescent: -200
OS2TypoDOffset: 0
OS2TypoLinegap: 90
OS2WinAscent: 1194
OS2WinAOffset: 0
OS2WinDescent: 231
OS2WinDOffset: 0
HheadAscent: 1194
HheadAOffset: 0
HheadDescent: -231
HheadDOffset: 0
OS2SubXSize: 650
OS2SubYSize: 700
OS2SubXOff: 0
OS2SubYOff: 140
OS2SupXSize: 650
OS2SupYSize: 700
OS2SupXOff: 0
OS2SupYOff: 480
OS2StrikeYSize: 49
OS2StrikeYPos: 258
OS2CapHeight: 731
OS2XHeight: 531
OS2Vendor: 'PfEd'
OS2CodePages: 00000001.00000000
OS2UnicodeRanges: 00000003.00000000.00000000.00000000
MarkAttachClasses: 1
DEI: 91125
ShortTable: cvt  2
  33
  633
EndShort
ShortTable: maxp 16
  1
  0
  150
  99
  5
  0
  0
  2
  0
  1
  1
  0
  64
  46
  0
  0
EndShort
LangName: 1033 "" "" "Regular"
GaspTable: 1 65535 2 0
Encoding: UnicodeBmp
UnicodeInterp: none
NameList: AGL For New Fonts
DisplaySize: -48
AntiAlias: 1
FitToEm: 0
WinInfo: 60 30 11
BeginPrivate: 0
EndPrivate
Grid
-1000 588.400024414 m 0
 2000 588.400024414 l 1024
-1000 -10.1745452881 m 0
 2000 -10.1745452881 l 1024
-1000 531.825439453 m 0
 2000 531.825439453 l 1024
EndSplineSet
BeginChars: 65539 150

StartChar: .notdef
Encoding: 65536 -1 0
Width: 348
VWidth: 946
Flags: W
LayerCount: 2
Fore
SplineSet
21.099609375 26.6396484375 m 1,0,-1
 21.099609375 639.360351562 l 1,1,-1
 21.099609375 661.860351562 l 1,2,-1
 43.599609375 661.860351562 l 1,3,-1
 287.400390625 661.860351562 l 1,4,-1
 309.900390625 661.860351562 l 1,5,-1
 309.900390625 639.360351562 l 1,6,-1
 309.900390625 26.6396484375 l 1,7,-1
 309.900390625 4.1396484375 l 1,8,-1
 287.400390625 4.1396484375 l 1,9,-1
 43.599609375 4.1396484375 l 1,10,-1
 21.099609375 4.1396484375 l 1,11,-1
 21.099609375 26.6396484375 l 1,0,-1
96.4599609375 79.5 m 1,12,-1
 234.540039062 79.5 l 1,13,-1
 234.540039062 586.5 l 1,14,-1
 96.4599609375 586.5 l 1,15,-1
 96.4599609375 79.5 l 1,12,-1
EndSplineSet
EndChar

StartChar: exclam
Encoding: 33 33 4
Width: 307
VWidth: 949
Flags: W
LayerCount: 2
Fore
SplineSet
156 723.299804688 m 1,0,-1
 192.799804688 723.299804688 l 1,1,-1
 215.299804688 723.299804688 l 1,2,-1
 215.299804688 700.799804688 l 1,3,-1
 215.299804688 252.759765625 l 1,4,-1
 215.299804688 230.259765625 l 1,5,-1
 192.799804688 230.259765625 l 1,6,-1
 156 230.259765625 l 1,7,-1
 119.200195312 230.259765625 l 1,8,-1
 96.7001953125 230.259765625 l 1,9,-1
 96.7001953125 252.759765625 l 1,10,-1
 96.7001953125 700.799804688 l 1,11,-1
 96.7001953125 723.299804688 l 1,12,-1
 119.200195312 723.299804688 l 1,13,-1
 156 723.299804688 l 1,0,-1
156 140.940429688 m 1,14,-1
 192.799804688 140.940429688 l 1,15,-1
 215.299804688 140.940429688 l 1,16,-1
 215.299804688 118.440429688 l 1,17,-1
 215.299804688 29.2001953125 l 1,18,-1
 215.299804688 6.7001953125 l 1,19,-1
 192.799804688 6.7001953125 l 1,20,-1
 156 6.7001953125 l 1,21,-1
 119.200195312 6.7001953125 l 1,22,-1
 96.7001953125 6.7001953125 l 1,23,-1
 96.7001953125 29.2001953125 l 1,24,-1
 96.7001953125 118.440429688 l 1,25,-1
 96.7001953125 140.940429688 l 1,26,-1
 119.200195312 140.940429688 l 1,27,-1
 156 140.940429688 l 1,14,-1
EndSplineSet
EndChar

StartChar: quotedbl
Encoding: 34 34 5
Width: 466
VWidth: 982
Flags: W
LayerCount: 2
Fore
SplineSet
139.759765625 712.860351562 m 1,0,-1
 102.959960938 712.860351562 l 1,1,-1
 80.4599609375 712.860351562 l 1,2,-1
 80.4599609375 735.360351562 l 1,3,-1
 80.4599609375 835.639648438 l 1,4,-1
 80.4599609375 858.139648438 l 1,5,-1
 102.959960938 858.139648438 l 1,6,-1
 139.759765625 858.139648438 l 1,7,-1
 176.559570312 858.139648438 l 1,8,-1
 199.059570312 858.139648438 l 1,9,-1
 199.059570312 835.639648438 l 1,10,-1
 199.059570312 735.360351562 l 1,11,-1
 199.059570312 712.860351562 l 1,12,-1
 176.559570312 712.860351562 l 1,13,-1
 139.759765625 712.860351562 l 1,0,-1
318.240234375 712.860351562 m 1,14,-1
 281.440429688 712.860351562 l 1,15,-1
 258.940429688 712.860351562 l 1,16,-1
 258.940429688 735.360351562 l 1,17,-1
 258.940429688 835.639648438 l 1,18,-1
 258.940429688 858.139648438 l 1,19,-1
 281.440429688 858.139648438 l 1,20,-1
 318.240234375 858.139648438 l 1,21,-1
 355.040039062 858.139648438 l 1,22,-1
 377.540039062 858.139648438 l 1,23,-1
 377.540039062 835.639648438 l 1,24,-1
 377.540039062 735.360351562 l 1,25,-1
 377.540039062 712.860351562 l 1,26,-1
 355.040039062 712.860351562 l 1,27,-1
 318.240234375 712.860351562 l 1,14,-1
EndSplineSet
EndChar

StartChar: numbersign
Encoding: 35 35 6
Width: 1366
VWidth: 940
Flags: W
LayerCount: 2
Fore
SplineSet
582.940429688 170.799804688 m 1,0,-1
 582.940429688 134 l 1,1,-1
 582.940429688 111.5 l 1,2,-1
 560.440429688 111.5 l 1,3,-1
 202.559570312 111.5 l 1,4,-1
 180.059570312 111.5 l 1,5,-1
 180.059570312 134 l 1,6,-1
 180.059570312 170.799804688 l 1,7,-1
 180.059570312 207.599609375 l 1,8,-1
 180.059570312 230.099609375 l 1,9,-1
 202.559570312 230.099609375 l 1,10,-1
 560.440429688 230.099609375 l 1,11,-1
 582.940429688 230.099609375 l 1,12,-1
 582.940429688 207.599609375 l 1,13,-1
 582.940429688 170.799804688 l 1,0,-1
582.940429688 350.200195312 m 1,14,-1
 582.940429688 313.400390625 l 1,15,-1
 582.940429688 290.900390625 l 1,16,-1
 560.440429688 290.900390625 l 1,17,-1
 202.559570312 290.900390625 l 1,18,-1
 180.059570312 290.900390625 l 1,19,-1
 180.059570312 313.400390625 l 1,20,-1
 180.059570312 350.200195312 l 1,21,-1
 180.059570312 387 l 1,22,-1
 180.059570312 409.5 l 1,23,-1
 202.559570312 409.5 l 1,24,-1
 560.440429688 409.5 l 1,25,-1
 582.940429688 409.5 l 1,26,-1
 582.940429688 387 l 1,27,-1
 582.940429688 350.200195312 l 1,14,-1
319.147460938 506.905273438 m 5,28,-1
 355.055664062 503.22265625 l 5,29,-1
 377.349609375 500.936523438 l 5,30,-1
 375.151367188 478.6328125 l 5,31,-1
 330.991210938 30.5927734375 l 5,32,-1
 328.78125 8.1689453125 l 5,33,-1
 306.360351562 10.4111328125 l 5,34,-1
 269.561523438 14.091796875 l 5,35,-1
 232.76171875 17.771484375 l 5,36,-1
 210.359375 20.01171875 l 5,37,-1
 212.61328125 42.4130859375 l 5,38,-1
 257.693359375 490.453125 l 5,39,-1
 259.944335938 512.826171875 l 5,40,-1
 282.319335938 510.588867188 l 5,41,-1
 319.147460938 506.905273438 l 5,28,-1
493.467773438 506.905273438 m 1,42,-1
 529.375976562 503.22265625 l 1,43,-1
 551.669921875 500.936523438 l 1,44,-1
 549.471679688 478.6328125 l 1,45,-1
 505.311523438 30.5927734375 l 1,46,-1
 503.1015625 8.1689453125 l 1,47,-1
 480.680664062 10.4111328125 l 1,48,-1
 443.881835938 14.091796875 l 1,49,-1
 407.08203125 17.771484375 l 1,50,-1
 384.6796875 20.01171875 l 1,51,-1
 386.93359375 42.4130859375 l 1,52,-1
 432.013671875 490.453125 l 1,53,-1
 434.264648438 512.826171875 l 1,54,-1
 456.639648438 510.588867188 l 1,55,-1
 493.467773438 506.905273438 l 1,42,-1
EndSplineSet
EndChar

StartChar: dollar
Encoding: 36 36 7
Width: 646
VWidth: 949
Flags: W
LayerCount: 2
Fore
SplineSet
518.430664062 548.334960938 m 5,0,-1
 487.271484375 530.006835938 l 5,1,-1
 467.7890625 518.546875 l 5,2,-1
 456.418945312 538.081054688 l 6,3,4
 424.615234375 592.717773438 424.615234375 592.717773438 369.50390625 612.979492188 c 4,5,6
 317.68359375 632.91015625 317.68359375 632.91015625 269.224609375 613.999023438 c 4,7,8
 245.130859375 604.596679688 245.130859375 604.596679688 229.2734375 588.45703125 c 132,-1,9
 213.416015625 572.318359375 213.416015625 572.318359375 204.415039062 548.053710938 c 4,10,11
 200.987304688 537.583007812 200.987304688 537.583007812 201.4296875 531.84375 c 132,-1,12
 201.872070312 526.10546875 201.872070312 526.10546875 205.57421875 520.674804688 c 4,13,14
 215.786132812 505.697265625 215.786132812 505.697265625 244.931640625 492.659179688 c 4,15,16
 279.05078125 477.395507812 279.05078125 477.395507812 318.66015625 463.44140625 c 4,17,18
 360.060546875 448.857421875 360.060546875 448.857421875 414.768554688 424.075195312 c 4,19,20
 470.5703125 398.797851562 470.5703125 398.797851562 513.6171875 368.186523438 c 4,21,22
 521.920898438 362.453125 521.920898438 362.453125 529.517578125 356.349609375 c 132,-1,23
 537.114257812 350.24609375 537.114257812 350.24609375 544.067382812 343.696289062 c 132,-1,24
 551.020507812 337.146484375 551.020507812 337.146484375 557.19140625 330.264648438 c 132,-1,25
 563.362304688 323.381835938 563.362304688 323.381835938 568.8125 316.057617188 c 132,-1,26
 574.262695312 308.734375 574.262695312 308.734375 578.85546875 301.114257812 c 4,27,28
 590.904296875 281.124023438 590.904296875 281.124023438 595.780273438 257.5546875 c 132,-1,29
 600.657226562 233.984375 600.657226562 233.984375 598.57421875 207.68359375 c 4,30,31
 594.408203125 155.0859375 594.408203125 155.0859375 556.069335938 100.60546875 c 4,32,33
 553.150390625 96.224609375 553.150390625 96.224609375 548.814453125 91.8896484375 c 4,34,35
 524.049804688 67.1259765625 524.049804688 67.1259765625 494.380859375 48.3359375 c 4,36,37
 458.924804688 25.68359375 458.924804688 25.68359375 419.883789062 13.2509765625 c 132,-1,38
 380.842773438 0.8173828125 380.842773438 0.8173828125 338.921875 -1.1552734375 c 4,39,40
 254.763671875 -5.1162109375 254.763671875 -5.1162109375 178.147460938 33.93359375 c 132,-1,41
 101.405273438 73.046875 101.405273438 73.046875 53.953125 147.19140625 c 6,42,-1
 41.6279296875 166.44921875 l 5,43,-1
 61.0810546875 178.463867188 l 5,44,-1
 92.16015625 197.658203125 l 5,45,-1
 123.241210938 217.770507812 l 5,46,-1
 142.340820312 230.127929688 l 5,47,-1
 154.48828125 210.89453125 l 6,48,49
 184.302734375 163.688476562 184.302734375 163.688476562 232.14453125 139.354492188 c 4,50,51
 280.198242188 114.9140625 280.198242188 114.9140625 333.130859375 117.395507812 c 132,-1,52
 385.932617188 119.870117188 385.932617188 119.870117188 430.702148438 148.887695312 c 4,53,54
 434.934570312 151.5078125 434.934570312 151.5078125 438.922851562 154.297851562 c 132,-1,55
 442.911132812 157.087890625 442.911132812 157.087890625 446.713867188 160.090820312 c 132,-1,56
 450.516601562 163.094726562 450.516601562 163.094726562 454.139648438 166.283203125 c 132,-1,57
 457.762695312 169.471679688 457.762695312 169.471679688 461.400390625 173.005859375 c 4,58,59
 466.889648438 180.814453125 466.889648438 180.814453125 471.047851562 187.735351562 c 132,-1,60
 475.206054688 194.65625 475.206054688 194.65625 477.845703125 200.172851562 c 132,-1,61
 480.484375 205.690429688 480.484375 205.690429688 482.119140625 210.595703125 c 4,62,63
 484.361328125 217.3203125 484.361328125 217.3203125 484.575195312 222.750976562 c 132,-1,64
 484.790039062 228.182617188 484.790039062 228.182617188 483.4375 231.513671875 c 4,65,66
 479.969726562 242.23046875 479.969726562 242.23046875 472.512695312 249.999023438 c 4,67,68
 463.266601562 259.629882812 463.266601562 259.629882812 444.049804688 273.083984375 c 4,69,70
 432.35546875 280.509765625 432.35546875 280.509765625 413.161132812 289.272460938 c 4,71,72
 392.78125 298.576171875 392.78125 298.576171875 371.045898438 306.559570312 c 4,73,74
 348.298828125 314.916015625 348.298828125 314.916015625 320.953125 325.576171875 c 132,-1,75
 293.725585938 336.190429688 293.725585938 336.190429688 268.328125 346.349609375 c 4,76,77
 242.159179688 356.817382812 242.159179688 356.817382812 215.563476562 370.115234375 c 4,78,79
 188.548828125 383.622070312 188.548828125 383.622070312 166.684570312 398.198242188 c 4,80,81
 155.353515625 405.752929688 155.353515625 405.752929688 144.889648438 414.451171875 c 132,-1,82
 134.426757812 423.149414062 134.426757812 423.149414062 124.869140625 432.958007812 c 4,83,84
 114.814453125 443.278320312 114.814453125 443.278320312 107.193359375 454.30078125 c 132,-1,85
 99.572265625 465.32421875 99.572265625 465.32421875 94.5439453125 477.056640625 c 4,86,87
 84.7900390625 499.81640625 84.7900390625 499.81640625 82.66796875 527.926757812 c 4,88,89
 80.466796875 557.10546875 80.466796875 557.10546875 93.384765625 588.9765625 c 4,90,91
 111.89453125 637.689453125 111.89453125 637.689453125 147.154296875 672.950195312 c 4,92,93
 153.049804688 678.844726562 153.049804688 678.844726562 159.194335938 684.20703125 c 132,-1,94
 165.337890625 689.569335938 165.337890625 689.569335938 171.7421875 694.407226562 c 132,-1,95
 178.146484375 699.24609375 178.146484375 699.24609375 184.802734375 703.538085938 c 132,-1,96
 191.459960938 707.830078125 191.459960938 707.830078125 198.346679688 711.567382812 c 132,-1,97
 205.234375 715.303710938 205.234375 715.303710938 212.380859375 718.483398438 c 132,-1,98
 219.526367188 721.663085938 219.526367188 721.663085938 226.875976562 724.2578125 c 4,99,100
 269.270507812 739.219726562 269.270507812 739.219726562 316.921875 740.708984375 c 4,101,102
 341.040039062 741.461914062 341.040039062 741.461914062 364.850585938 737.213867188 c 132,-1,103
 388.66015625 732.965820312 388.66015625 732.965820312 411.26953125 724.041015625 c 4,104,105
 506.29296875 688.647460938 506.29296875 688.647460938 558.840820312 597.431640625 c 6,106,-1
 570.112304688 577.8671875 l 5,107,-1
 550.5078125 566.665039062 l 5,108,-1
 518.430664062 548.334960938 l 5,0,-1
329.584960938 770.620117188 m 5,109,-1
 366.384765625 770.620117188 l 5,110,-1
 388.884765625 770.620117188 l 5,111,-1
 388.884765625 748.120117188 l 5,112,-1
 388.884765625 -8.1201171875 l 5,113,-1
 388.884765625 -30.6201171875 l 5,114,-1
 366.384765625 -30.6201171875 l 5,115,-1
 329.584960938 -30.6201171875 l 5,116,-1
 292.784179688 -30.6201171875 l 5,117,-1
 270.284179688 -30.6201171875 l 5,118,-1
 270.284179688 -8.1201171875 l 5,119,-1
 270.284179688 748.120117188 l 5,120,-1
 270.284179688 770.620117188 l 5,121,-1
 292.784179688 770.620117188 l 5,122,-1
 329.584960938 770.620117188 l 5,109,-1
EndSplineSet
EndChar

StartChar: percent
Encoding: 37 37 8
Width: 686
VWidth: 951
Flags: W
LayerCount: 2
Fore
SplineSet
288.035746603 608.431865997 m 1,0,-1
 318.983809684 589.316743772 l 1,1,-1
 338.126992537 577.492925298 l 1,2,-1
 326.302906856 558.349907488 l 2,3,4
 303.421659887 521.305510985 303.421659887 521.305510985 267.36902712 504.664566207 c 0,5,6
 231.781209763 488.239866779 231.781209763 488.239866779 196.57428201 492.151352182 c 0,7,8
 179.567319604 494.041460422 179.567319604 494.041460422 163.677653149 499.611532391 c 128,-1,9
 147.787986693 505.181604359 147.787986693 505.181604359 133.162181147 514.390295814 c 0,10,11
 102.812540823 533.901600711 102.812540823 533.901600711 84.9151319051 564.271356419 c 0,12,13
 66.5370520498 595.4587593 66.5370520498 595.4587593 67.0821319094 635.798140759 c 0,14,15
 67.6363224976 676.811774162 67.6363224976 676.811774162 93.7383084565 713.789780009 c 2,16,-1
 106.825066191 732.329449933 l 1,17,-1
 125.252153054 719.084637416 l 1,18,-1
 154.664808722 697.943742337 l 1,19,-1
 160.782898228 693.573413352 l 1,20,-1
 166.212864947 689.953435539 l 1,21,-1
 184.822561995 676.927042674 l 1,22,-1
 203.430781889 663.901683784 l 1,23,-1
 190.229862881 645.417594432 l 2,24,25
 188.773322744 643.378128996 188.773322744 643.378128996 187.783053586 641.529746361 c 128,-1,26
 186.792784427 639.681363725 186.792784427 639.681363725 186.209087694 638.04770657 c 2,27,-1
 184.693513096 631.468944846 l 2,28,29
 184.532402517 629.37416526 184.532402517 629.37416526 184.887163461 628.073375131 c 0,30,31
 185.370456916 626.300957094 185.370456916 626.300957094 186.763712746 624.112218935 c 2,32,-1
 190.085865078 620.11240565 l 2,33,34
 193.05975528 617.46957115 193.05975528 617.46957115 197.171902353 614.728139768 c 0,35,36
 208.457506232 607.236214951 208.457506232 607.236214951 213.620113756 608.410969822 c 128,-1,37
 218.78272128 609.585724692 218.78272128 609.585724692 226.517968852 621.783882311 c 2,38,-1
 238.846162862 641.224921825 l 1,39,-1
 258.000285665 628.455506623 l 1,40,-1
 288.035746603 608.431865997 l 1,0,-1
129.408016493 660.717638835 m 1,41,-1
 99.1206152671 679.991173911 l 1,42,-1
 80.3917298256 691.909391251 l 1,43,-1
 92.0570124689 710.796853635 l 2,44,45
 103.319614221 729.032328371 103.319614221 729.032328371 118.22425822 742.544037803 c 128,-1,46
 133.128902219 756.055747235 133.128902219 756.055747235 151.252114851 764.141287915 c 0,47,48
 186.559754379 779.894689952 186.559754379 779.894689952 221.432795561 776.572496611 c 0,49,50
 255.740195082 773.305455532 255.740195082 773.305455532 285.198170417 754.758141686 c 0,51,52
 315.548092076 735.246655921 315.548092076 735.246655921 333.44392166 704.877626535 c 0,53,54
 351.823304125 673.690019547 351.823304125 673.690019547 351.278219654 633.350296741 c 0,55,56
 351.093039177 619.64576198 351.093039177 619.64576198 347.954558211 606.198310041 c 128,-1,57
 344.816077245 592.750858101 344.816077245 592.750858101 338.96923298 580.075867264 c 128,-1,58
 333.122388714 567.400876427 333.122388714 567.400876427 324.622043107 555.358657491 c 2,59,-1
 311.72398939 537.086319649 l 1,60,-1
 293.374935817 549.875000302 l 1,61,-1
 263.014584254 571.035156552 l 1,62,-1
 262.219887377 571.58903387 l 1,63,-1
 261.47573382 572.209161834 l 1,64,-1
 256.879187446 576.039617145 l 1,65,-1
 252.145900355 579.195420975 l 1,66,-1
 233.537329962 592.221716549 l 1,67,-1
 216.247456263 604.324903441 l 1,68,-1
 227.220876545 622.352962483 l 2,69,70
 229.680479173 626.393804831 229.680479173 626.393804831 231.226393075 629.965410938 c 128,-1,71
 232.772306978 633.537017046 232.772306978 633.537017046 233.135473473 635.525794401 c 128,-1,72
 233.498639969 637.514571756 233.498639969 637.514571756 233.650137482 639.180109657 c 128,-1,73
 233.801634995 640.845647558 233.801634995 640.845647558 233.472404844 641.074353492 c 0,74,75
 231.633097804 647.818913205 231.633097804 647.818913205 221.420602946 654.268759818 c 0,76,77
 209.780859991 661.917889886 209.780859991 661.917889886 204.6947919 660.765429376 c 128,-1,78
 199.608723809 659.612968865 199.608723809 659.612968865 191.841265058 647.3643327 c 2,79,-1
 179.680713334 628.188154438 l 1,80,-1
 160.616665539 640.523749787 l 1,81,-1
 129.408016493 660.717638835 l 1,41,-1
557.59643562 116.231582891 m 1,82,-1
 588.280837036 95.7746572682 l 1,83,-1
 606.607315706 83.5566118199 l 1,84,-1
 594.782263589 64.9741308922 l 2,85,86
 571.91291158 29.0360823024 571.91291158 29.0360823024 536.009225608 12.4656013286 c 0,87,88
 524.412411691 7.11299259256 524.412411691 7.11299259256 512.690595475 3.9056113727 c 128,-1,89
 500.968779259 0.698230152848 500.968779259 0.698230152848 489.008193197 -0.341884681391 c 128,-1,90
 477.047607135 -1.38199951563 477.047607135 -1.38199951563 465.215734096 -0.0479584727585 c 0,91,92
 431.102135871 3.74205815171 431.102135871 3.74205815171 401.801829583 22.1901005013 c 0,93,94
 386.670429459 31.9178388938 386.670429459 31.9178388938 374.580559352 44.4132582021 c 128,-1,95
 362.490689246 56.9086775104 362.490689246 56.9086775104 353.556078339 72.0706156526 c 0,96,97
 335.175556009 103.260156856 335.175556009 103.260156856 335.721836987 143.142147755 c 0,98,99
 336.277286788 183.693521109 336.277286788 183.693521109 362.377956893 220.669662822 c 2,100,-1
 375.464508889 239.209041282 l 1,101,-1
 393.89151427 225.964726671 l 1,102,-1
 422.380570241 205.488365348 l 1,103,-1
 427.80277455 202.389962887 l 1,104,-1
 429.121167066 201.575114313 l 1,105,-1
 434.641674878 197.89445025 l 1,106,-1
 435.660309107 197.173713482 l 1,107,-1
 454.059723169 183.373908795 l 1,108,-1
 470.727878969 170.872570776 l 1,109,-1
 459.542066924 153.294502653 l 2,110,111
 451.952104156 141.36717167 451.952104156 141.36717167 453.571269058 135.25138726 c 0,112,113
 454.12577267 133.156465028 454.12577267 133.156465028 455.223628794 131.256354041 c 128,-1,114
 456.321484918 129.356243054 456.321484918 129.356243054 458.90889822 126.847267192 c 128,-1,115
 461.496311523 124.338291329 461.496311523 124.338291329 465.410327926 121.866338511 c 0,116,117
 476.919998347 114.584981888 476.919998347 114.584981888 482.250997402 115.797536732 c 128,-1,118
 487.581996457 117.010091575 487.581996457 117.010091575 495.295186321 128.876513297 c 2,119,-1
 507.277663302 147.311055636 l 1,120,-1
 525.983809684 135.757173459 l 1,121,-1
 557.59643562 116.231582891 l 1,82,-1
414.018878147 158.183423828 m 1,122,-1
 398.791872023 167.140877759 l 1,123,-1
 398.246199985 167.46187534 l 1,124,-1
 397.719440897 167.813048065 l 1,125,-1
 367.359089335 188.053282439 l 1,126,-1
 349.031737441 200.271517035 l 1,127,-1
 360.857661416 218.854428707 l 2,128,129
 383.727709256 254.791754186 383.727709256 254.791754186 419.63097288 271.363754105 c 0,130,131
 455.219156606 287.788622622 455.219156606 287.788622622 490.424973606 283.876074284 c 0,132,133
 524.537549629 280.086043512 524.537549629 280.086043512 553.593338694 261.791953959 c 0,134,135
 568.592071465 252.685133728 568.592071465 252.685133728 580.929796984 240.066259153 c 128,-1,136
 593.267522503 227.447384577 593.267522503 227.447384577 602.172336389 212.067175634 c 0,137,138
 608.283691412 201.511091548 608.283691412 201.511091548 612.310166197 189.874530786 c 128,-1,139
 616.336640983 178.237970023 616.336640983 178.237970023 618.216236047 165.96025819 c 128,-1,140
 620.095831111 153.682546356 620.095831111 153.682546356 619.91781145 140.685977245 c 0,141,142
 619.639593515 120.374295909 619.639593515 120.374295909 612.84771175 100.828940927 c 128,-1,143
 606.055829984 81.283585945 606.055829984 81.283585945 593.261691543 63.158462178 c 2,144,-1
 580.174933809 44.6187922542 l 1,145,-1
 561.747846946 57.863604772 l 1,146,-1
 533.260499111 78.3394175796 l 1,147,-1
 527.838149969 81.4374329796 l 1,148,-1
 526.116856768 82.4208799519 l 1,149,-1
 524.594046399 83.6901580208 l 1,150,-1
 519.801982014 87.6843928622 l 1,151,-1
 502.177438006 100.021199513 l 1,152,-1
 484.456055117 112.425791324 l 1,153,-1
 496.153795556 130.62151 l 2,154,155
 501.362247749 138.723205481 501.362247749 138.723205481 501.846536739 145.019476458 c 0,156,157
 502.182000566 149.38086233 502.182000566 149.38086233 500.354150449 152.192778717 c 0,158,159
 499.618488574 153.324686363 499.618488574 153.324686363 498.571044417 154.555634954 c 128,-1,160
 497.523600259 155.786583545 497.523600259 155.786583545 496.219669351 157.054712467 c 128,-1,161
 494.915738444 158.322841388 494.915738444 158.322841388 493.324611061 159.619529132 c 128,-1,162
 491.733483679 160.916216876 491.733483679 160.916216876 490.000508843 162.106198834 c 0,163,164
 478.322669246 169.249078355 478.322669246 169.249078355 473.186311201 168.026882529 c 128,-1,165
 468.049953156 166.804686703 468.049953156 166.804686703 460.345438679 154.951611703 c 2,166,-1
 448.108714419 136.125920502 l 1,167,-1
 429.257559518 148.323380431 l 1,168,-1
 414.018878147 158.183423828 l 1,122,-1
511.310549358 699.311446437 m 1,169,-1
 543.723079256 680.789158182 l 1,170,-1
 563.264120349 669.622340996 l 1,171,-1
 552.091513634 650.084609493 l 1,172,-1
 193.291708947 22.6451563677 l 1,173,-1
 182.126122324 3.11970102188 l 1,174,-1
 162.596958538 14.27880013 l 1,175,-1
 130.273556236 32.7486155175 l 1,176,-1
 98.8719501485 51.2209558832 l 1,177,-1
 79.7244460433 62.4846858976 l 1,178,-1
 90.7430395274 81.7742977373 l 1,179,-1
 448.622922339 708.293828987 l 1,180,-1
 459.543814755 727.412401238 l 1,181,-1
 478.894432004 716.908149331 l 1,182,-1
 511.310549358 699.311446437 l 1,169,-1
EndSplineSet
EndChar

StartChar: ampersand
Encoding: 38 38 9
Width: 636
VWidth: 947
Flags: W
LayerCount: 2
Fore
SplineSet
489.934570312 403.326171875 m 1,0,-1
 526.734375 403.326171875 l 1,1,-1
 549.234375 403.326171875 l 1,2,-1
 549.234375 380.826171875 l 2,3,4
 549.234375 364.053710938 549.234375 364.053710938 548.12890625 347.284179688 c 128,-1,5
 547.0234375 330.514648438 547.0234375 330.514648438 544.869140625 314.25 c 128,-1,6
 542.71484375 297.984375 542.71484375 297.984375 539.552734375 282.21484375 c 128,-1,7
 536.390625 266.4453125 536.390625 266.4453125 532.265625 251.427734375 c 1,8,9
 544.690429688 235.278320312 544.690429688 235.278320312 553.083007812 219.970703125 c 128,-1,10
 561.475585938 204.663085938 561.475585938 204.663085938 567.338867188 187.563476562 c 0,11,12
 580.133789062 150.243164062 580.133789062 150.243164062 573.84765625 106.244140625 c 128,-1,13
 567.568359375 62.28515625 567.568359375 62.28515625 538.7265625 21.0830078125 c 2,14,-1
 525.849609375 2.6884765625 l 1,15,-1
 507.428710938 15.52734375 l 1,16,-1
 477.069335938 36.6865234375 l 1,17,-1
 446.708984375 57.8466796875 l 1,18,-1
 428.963867188 70.2138671875 l 1,19,20
 423.999023438 65.4306640625 423.999023438 65.4306640625 420.107421875 61.9326171875 c 128,-1,21
 416.215820312 58.435546875 416.215820312 58.435546875 411.41796875 54.419921875 c 0,22,23
 364.590820312 15.564453125 364.590820312 15.564453125 310.486328125 -0.4677734375 c 0,24,25
 254.815429688 -16.9619140625 254.815429688 -16.9619140625 199.087890625 -2.5146484375 c 0,26,27
 142.504882812 12.1552734375 142.504882812 12.1552734375 102.051757812 59.869140625 c 0,28,29
 64.466796875 103.717773438 64.466796875 103.717773438 58.634765625 155.67578125 c 0,30,31
 52.8857421875 206.895507812 52.8857421875 206.895507812 74.748046875 255.306640625 c 0,32,33
 95.2060546875 300.606445312 95.2060546875 300.606445312 126.360351562 340.03515625 c 0,34,35
 138.239257812 355.069335938 138.239257812 355.069335938 151.625976562 369.377929688 c 128,-1,36
 165.013671875 383.6875 165.013671875 383.6875 179.841796875 397.271484375 c 1,37,38
 171.81640625 406.681640625 171.81640625 406.681640625 165.4140625 415.55859375 c 128,-1,39
 159.010742188 424.436523438 159.010742188 424.436523438 153.2109375 434.16015625 c 0,40,41
 135.849609375 463.265625 135.849609375 463.265625 127.686523438 496.428710938 c 0,42,43
 123.350585938 514.380859375 123.350585938 514.380859375 123.483398438 532.899414062 c 128,-1,44
 123.616210938 551.416992188 123.616210938 551.416992188 128.065429688 570.784179688 c 128,-1,45
 132.499023438 590.083984375 132.499023438 590.083984375 141.427734375 608.986328125 c 128,-1,46
 150.356445312 627.889648438 150.356445312 627.889648438 163.350585938 645.881835938 c 0,47,48
 185.77734375 678.399414062 185.77734375 678.399414062 220.301757812 690.482421875 c 0,49,50
 253.826171875 702.216796875 253.826171875 702.216796875 286.189453125 695.403320312 c 0,51,52
 316.973632812 688.922851562 316.973632812 688.922851562 342.844726562 670.596679688 c 0,53,54
 360.57421875 658.08203125 360.57421875 658.08203125 374.7890625 641.892578125 c 128,-1,55
 389.00390625 625.704101562 389.00390625 625.704101562 399.38671875 606.234375 c 0,56,57
 420.720703125 566.235351562 420.720703125 566.235351562 418.106445312 514.469726562 c 0,58,59
 415.48046875 462.501953125 415.48046875 462.501953125 382.135742188 414.567382812 c 0,60,61
 378.17578125 409.287109375 378.17578125 409.287109375 372.444335938 403.555664062 c 0,62,63
 370.525390625 401.637695312 370.525390625 401.637695312 368.03125 399.265625 c 128,-1,64
 365.536132812 396.892578125 365.536132812 396.892578125 364.016601562 395.51171875 c 1,65,66
 370.900390625 390.504882812 370.900390625 390.504882812 378.779296875 384.899414062 c 0,67,68
 390.84765625 376.311523438 390.84765625 376.311523438 401.999023438 368.1796875 c 128,-1,69
 413.151367188 360.048828125 413.151367188 360.048828125 423.39453125 352.366210938 c 0,70,71
 426.086914062 350.346679688 426.086914062 350.346679688 429.374023438 347.8515625 c 1,72,73
 430.634765625 364.176757812 430.634765625 364.176757812 430.634765625 380.826171875 c 2,74,-1
 430.634765625 403.326171875 l 1,75,-1
 453.134765625 403.326171875 l 1,76,-1
 489.934570312 403.326171875 l 1,0,-1
395.244140625 222.938476562 m 1,77,78
 370.102539062 243.659179688 370.102539062 243.659179688 325.252929688 276.688476562 c 0,79,80
 306.81640625 290.265625 306.81640625 290.265625 292.520507812 300.880859375 c 128,-1,81
 278.225585938 311.497070312 278.225585938 311.497070312 269.622070312 317.990234375 c 1,82,83
 256.435546875 306.672851562 256.435546875 306.672851562 245.270507812 295.5703125 c 128,-1,84
 234.106445312 284.467773438 234.106445312 284.467773438 224.930664062 273.616210938 c 128,-1,85
 215.755859375 262.763671875 215.755859375 262.763671875 208.053710938 251.638671875 c 0,86,87
 182.290039062 214.424804688 182.290039062 214.424804688 178.790039062 183.69921875 c 0,88,89
 175.71484375 156.70703125 175.71484375 156.70703125 192.8359375 135.475585938 c 0,90,91
 215.299804688 107.396484375 215.299804688 107.396484375 252.391601562 108.45703125 c 0,92,93
 272.263671875 109.024414062 272.263671875 109.024414062 293.026367188 117.9765625 c 128,-1,94
 313.7890625 126.928710938 313.7890625 126.928710938 335.672851562 145.096679688 c 0,95,96
 371.846679688 175.482421875 371.846679688 175.482421875 395.244140625 222.938476562 c 1,77,78
276.588867188 472.631835938 m 1,97,98
 278.119140625 474.330078125 278.119140625 474.330078125 279.354492188 475.76953125 c 128,-1,99
 280.588867188 477.208007812 280.588867188 477.208007812 281.669921875 478.559570312 c 128,-1,100
 282.750976562 479.912109375 282.750976562 479.912109375 283.677734375 481.151367188 c 128,-1,101
 284.604492188 482.390625 284.604492188 482.390625 285.6328125 483.84765625 c 0,102,103
 293.694335938 495.57421875 293.694335938 495.57421875 297.28125 507.41015625 c 0,104,105
 300.68359375 518.638671875 300.68359375 518.638671875 300.047851562 527.858398438 c 0,106,107
 299.360351562 537.825195312 299.360351562 537.825195312 295.974609375 546.627929688 c 0,108,109
 292.749023438 555.013671875 292.749023438 555.013671875 287.411132812 561.293945312 c 0,110,111
 285.486328125 563.55859375 285.486328125 563.55859375 282.997070312 566.103515625 c 128,-1,112
 280.506835938 568.649414062 280.506835938 568.649414062 278.221679688 570.754882812 c 128,-1,113
 275.936523438 572.860351562 275.936523438 572.860351562 274.0625 574.385742188 c 0,114,115
 271.4296875 576.172851562 271.4296875 576.172851562 269.07421875 577.444335938 c 128,-1,116
 266.717773438 578.715820312 266.717773438 578.715820312 265.1640625 579.268554688 c 128,-1,117
 263.610351562 579.821289062 263.610351562 579.821289062 262.760742188 580.037109375 c 128,-1,118
 261.912109375 580.25390625 261.912109375 580.25390625 261.439453125 580.280273438 c 0,119,120
 260.748046875 579.706054688 260.748046875 579.706054688 260.030273438 578.692382812 c 0,121,122
 252.022460938 566.87109375 252.022460938 566.87109375 247.90234375 556.232421875 c 128,-1,123
 243.782226562 545.594726562 243.782226562 545.594726562 243.299804688 536.897460938 c 0,124,125
 242.3046875 518.994140625 242.3046875 518.994140625 252.051757812 502.861328125 c 0,126,127
 255.76953125 496.708007812 255.76953125 496.708007812 262.39453125 488.536132812 c 128,-1,128
 269.01953125 480.364257812 269.01953125 480.364257812 276.588867188 472.631835938 c 1,97,98
EndSplineSet
EndChar

StartChar: quotesingle
Encoding: 39 39 10
Width: 251
VWidth: 975
Flags: W
LayerCount: 2
Fore
SplineSet
91.7587890625 591.125 m 5,0,-1
 59.2255859375 608.78515625 l 5,1,-1
 39.6455078125 619.4140625 l 5,2,-1
 50.0810546875 639.09765625 l 6,3,4
 87.9404296875 710.514648438 87.9404296875 710.514648438 87.9404296875 790.48046875 c 6,5,-1
 87.9404296875 812.98046875 l 5,6,-1
 110.440429688 812.98046875 l 5,7,-1
 147.240234375 812.98046875 l 5,8,-1
 184.040039062 812.98046875 l 5,9,-1
 206.540039062 812.98046875 l 5,10,-1
 206.540039062 790.48046875 l 6,11,12
 206.540039062 680.92578125 206.540039062 680.92578125 155.161132812 583.983398438 c 6,13,-1
 144.87109375 564.568359375 l 5,14,-1
 125.217773438 574.395507812 l 5,15,-1
 91.7587890625 591.125 l 5,0,-1
EndSplineSet
EndChar

StartChar: parenleft
Encoding: 40 40 11
Width: 367
VWidth: 949
Flags: W
LayerCount: 2
Fore
SplineSet
276.568359375 739.001953125 m 1,0,-1
 304.94921875 715.19921875 l 1,1,-1
 322.166992188 700.758789062 l 1,2,-1
 307.748046875 683.5234375 l 2,3,4
 231.12890625 591.932617188 231.12890625 591.932617188 204.290039062 477.981445312 c 128,-1,5
 177.443359375 363.990234375 177.443359375 363.990234375 204.294921875 249.540039062 c 128,-1,6
 231.135742188 135.139648438 231.135742188 135.139648438 307.748046875 43.556640625 c 2,7,-1
 322.166992188 26.3212890625 l 1,8,-1
 304.94921875 11.880859375 l 1,9,-1
 276.401367188 -12.0625 l 1,10,-1
 248.774414062 -35.0849609375 l 1,11,-1
 231.631835938 -49.3701171875 l 1,12,-1
 217.205078125 -32.3466796875 l 2,13,14
 121.685546875 80.3662109375 121.685546875 80.3662109375 88.7138671875 222.288085938 c 0,15,16
 55.7880859375 364.008789062 55.7880859375 364.008789062 88.7177734375 505.268554688 c 128,-1,17
 121.6796875 646.672851562 121.6796875 646.672851562 217.14453125 760.275390625 c 2,18,-1
 231.841796875 777.764648438 l 1,19,-1
 249.106445312 762.802734375 l 1,20,-1
 276.568359375 739.001953125 l 1,0,-1
EndSplineSet
EndChar

StartChar: parenright
Encoding: 41 41 12
Width: 385
VWidth: 949
Flags: W
LayerCount: 2
Fore
SplineSet
105.600585938 742.119140625 m 1,0,-1
 134.12109375 766.0390625 l 1,1,-1
 151.4296875 780.555664062 l 1,2,-1
 165.876953125 763.189453125 l 2,3,4
 260.229492188 648.985351562 260.229492188 648.985351562 293.756835938 508.337890625 c 0,5,6
 327.177734375 367.008789062 327.177734375 367.008789062 293.760742188 225.217773438 c 0,7,8
 282.635742188 178.018554688 282.635742188 178.018554688 264.676757812 133.938476562 c 128,-1,9
 246.717773438 89.859375 246.717773438 89.859375 221.98828125 49.0361328125 c 128,-1,10
 197.2578125 8.2138671875 197.2578125 8.2138671875 165.817382812 -29.26171875 c 2,11,-1
 151.633789062 -46.1669921875 l 1,12,-1
 134.456054688 -32.314453125 l 1,13,-1
 105.766601562 -9.1787109375 l 1,14,-1
 77.0810546875 14.880859375 l 1,15,-1
 59.8642578125 29.3212890625 l 1,16,-1
 74.2822265625 46.556640625 l 2,17,18
 150.922851562 138.172851562 150.922851562 138.172851562 178.212890625 252.619140625 c 128,-1,19
 205.486328125 366.990234375 205.486328125 366.990234375 178.217773438 480.901367188 c 128,-1,20
 150.9296875 594.899414062 150.9296875 594.899414062 74.2822265625 686.5234375 c 2,21,-1
 59.8642578125 703.758789062 l 1,22,-1
 77.0810546875 718.19921875 l 1,23,-1
 105.600585938 742.119140625 l 1,0,-1
EndSplineSet
EndChar

StartChar: plus
Encoding: 43 43 14
Width: 492
VWidth: 942
Flags: W
LayerCount: 2
Fore
SplineSet
402.8203125 277 m 1,0,-1
 402.8203125 240.200195312 l 1,1,-1
 402.8203125 217.700195312 l 1,2,-1
 380.3203125 217.700195312 l 1,3,-1
 111.6796875 217.700195312 l 1,4,-1
 89.1796875 217.700195312 l 1,5,-1
 89.1796875 240.200195312 l 1,6,-1
 89.1796875 277 l 1,7,-1
 89.1796875 313.799804688 l 1,8,-1
 89.1796875 336.299804688 l 1,9,-1
 111.6796875 336.299804688 l 1,10,-1
 380.3203125 336.299804688 l 1,11,-1
 402.8203125 336.299804688 l 1,12,-1
 402.8203125 313.799804688 l 1,13,-1
 402.8203125 277 l 1,0,-1
246 433.8203125 m 1,14,-1
 282.799804688 433.8203125 l 1,15,-1
 305.299804688 433.8203125 l 1,16,-1
 305.299804688 411.3203125 l 1,17,-1
 305.299804688 142.6796875 l 1,18,-1
 305.299804688 120.1796875 l 1,19,-1
 282.799804688 120.1796875 l 1,20,-1
 246 120.1796875 l 1,21,-1
 209.200195312 120.1796875 l 1,22,-1
 186.700195312 120.1796875 l 1,23,-1
 186.700195312 142.6796875 l 1,24,-1
 186.700195312 411.3203125 l 1,25,-1
 186.700195312 433.8203125 l 1,26,-1
 209.200195312 433.8203125 l 1,27,-1
 246 433.8203125 l 1,14,-1
EndSplineSet
EndChar

StartChar: comma
Encoding: 44 44 15
Width: 261
VWidth: 916
Flags: W
LayerCount: 2
Fore
SplineSet
81.38671875 -166.674804688 m 5,0,-1
 47.5869140625 -152.971679688 l 5,1,-1
 26.4375 -144.397460938 l 5,2,-1
 35.310546875 -123.372070312 l 6,3,4
 75.8603515625 -27.2861328125 75.8603515625 -27.2861328125 75.8603515625 77.6396484375 c 6,5,-1
 75.8603515625 100.139648438 l 5,6,-1
 98.3603515625 100.139648438 l 5,7,-1
 135.16015625 100.139648438 l 5,8,-1
 171.959960938 100.139648438 l 5,9,-1
 194.459960938 100.139648438 l 5,10,-1
 194.459960938 77.6396484375 l 6,11,12
 194.459960938 -50.1328125 194.459960938 -50.1328125 144.89453125 -169.28125 c 6,13,-1
 136.130859375 -190.346679688 l 5,14,-1
 115.189453125 -181.291015625 l 5,15,-1
 81.38671875 -166.674804688 l 5,0,-1
EndSplineSet
EndChar

StartChar: hyphen
Encoding: 45 45 16
Width: 483
VWidth: 943
Flags: W
LayerCount: 2
Fore
SplineSet
399.8203125 298 m 5,0,-1
 399.8203125 261.200195312 l 5,1,-1
 399.8203125 238.700195312 l 5,2,-1
 377.3203125 238.700195312 l 5,3,-1
 108.6796875 238.700195312 l 5,4,-1
 86.1796875 238.700195312 l 5,5,-1
 86.1796875 261.200195312 l 5,6,-1
 86.1796875 298 l 5,7,-1
 86.1796875 334.799804688 l 5,8,-1
 86.1796875 357.299804688 l 5,9,-1
 108.6796875 357.299804688 l 5,10,-1
 377.3203125 357.299804688 l 5,11,-1
 399.8203125 357.299804688 l 5,12,-1
 399.8203125 334.799804688 l 5,13,-1
 399.8203125 298 l 5,0,-1
EndSplineSet
EndChar

StartChar: period
Encoding: 46 46 17
Width: 283
VWidth: 923
Flags: W
LayerCount: 2
Fore
SplineSet
139 134.620117188 m 1,0,-1
 175.799804688 134.620117188 l 1,1,-1
 198.299804688 134.620117188 l 1,2,-1
 198.299804688 112.120117188 l 1,3,-1
 198.299804688 22.8798828125 l 1,4,-1
 198.299804688 0.3798828125 l 1,5,-1
 175.799804688 0.3798828125 l 1,6,-1
 139 0.3798828125 l 1,7,-1
 102.200195312 0.3798828125 l 1,8,-1
 79.7001953125 0.3798828125 l 1,9,-1
 79.7001953125 22.8798828125 l 1,10,-1
 79.7001953125 112.120117188 l 1,11,-1
 79.7001953125 134.620117188 l 1,12,-1
 102.200195312 134.620117188 l 1,13,-1
 139 134.620117188 l 1,0,-1
EndSplineSet
EndChar

StartChar: slash
Encoding: 47 47 18
Width: 1400
VWidth: 949
Flags: W
LayerCount: 2
Fore
SplineSet
760.250914566 696.411505184 m 5,0,-1
 794.290704061 681.69188654 l 5,1,-1
 814.879198647 672.788929346 l 5,2,-1
 806.039538893 652.173178776 l 5,3,-1
 537.398913893 25.652670964 l 5,4,-1
 528.50455441 4.90935032968 l 5,5,-1
 507.788874932 13.8678996155 l 5,6,-1
 473.749335002 28.588386897 l 5,7,-1
 439.70929594 43.3081134595 l 5,8,-1
 419.120801353 52.2110706534 l 5,9,-1
 427.960461107 72.8268212235 l 5,10,-1
 696.601086107 699.347329036 l 5,11,-1
 705.49544559 720.09064967 l 5,12,-1
 726.211125068 711.132100384 l 5,13,-1
 760.250914566 696.411505184 l 5,0,-1
EndSplineSet
EndChar

StartChar: zero
Encoding: 48 48 19
Width: 671
VWidth: 943
Flags: W
LayerCount: 2
Fore
SplineSet
222.677734375 503.067382812 m 1,0,-1
 246.59765625 474.546875 l 1,1,-1
 261.620117188 456.634765625 l 1,2,-1
 243.146484375 442.307617188 l 2,3,4
 203.149414062 411.290039062 203.149414062 411.290039062 192.874023438 383.5078125 c 0,5,6
 171.390625 329.16796875 171.390625 329.16796875 176.741210938 282.254882812 c 0,7,8
 179.439453125 257.342773438 179.439453125 257.342773438 188.501953125 232.959960938 c 128,-1,9
 197.563476562 208.577148438 197.563476562 208.577148438 213.196289062 184.494140625 c 0,10,11
 225.469726562 166.083984375 225.469726562 166.083984375 240.0859375 152.478515625 c 128,-1,12
 254.703125 138.873046875 254.703125 138.873046875 271.625976562 129.913085938 c 0,13,14
 306.575195312 111.411132812 306.575195312 111.411132812 350.65234375 108.084960938 c 0,15,16
 370.91015625 106.555664062 370.91015625 106.555664062 392.024414062 113.006835938 c 128,-1,17
 413.137695312 119.458007812 413.137695312 119.458007812 435.759765625 134.676757812 c 2,18,-1
 454.505859375 147.288085938 l 1,19,-1
 467.0390625 128.489257812 l 1,20,-1
 487.365234375 98.0009765625 l 1,21,-1
 507.689453125 66.591796875 l 1,22,-1
 519.784179688 47.8994140625 l 1,23,-1
 501.220703125 35.6083984375 l 2,24,25
 426.950195312 -13.5712890625 426.950195312 -13.5712890625 349.616210938 -9.5009765625 c 0,26,27
 312.361328125 -7.5400390625 312.361328125 -7.5400390625 278.510742188 1.51171875 c 128,-1,28
 244.66015625 10.5634765625 244.66015625 10.5634765625 214.571289062 26.7265625 c 0,29,30
 153.915039062 59.310546875 153.915039062 59.310546875 114.795898438 118.4921875 c 0,31,32
 91.76953125 154.74609375 91.76953125 154.74609375 77.9267578125 191.490234375 c 128,-1,33
 64.0849609375 228.233398438 64.0849609375 228.233398438 59.3603515625 266.032226562 c 0,34,35
 51.23828125 335.787109375 51.23828125 335.787109375 81.58984375 423.728515625 c 0,36,37
 101.6484375 481.846679688 101.6484375 481.846679688 167.430664062 534.671875 c 2,38,-1
 184.603515625 548.461914062 l 1,39,-1
 198.7578125 531.586914062 l 1,40,-1
 222.677734375 503.067382812 l 1,0,-1
451.436523438 71.0498046875 m 1,41,-1
 427.635742188 98.51171875 l 1,42,-1
 412.38671875 116.106445312 l 1,43,-1
 430.4921875 130.745117188 l 2,44,45
 440.4609375 138.803710938 440.4609375 138.803710938 448.736328125 146.860351562 c 128,-1,46
 457.012695312 154.916015625 457.012695312 154.916015625 463.251953125 162.561523438 c 128,-1,47
 469.4921875 170.20703125 469.4921875 170.20703125 473.97265625 177.439453125 c 128,-1,48
 478.453125 184.672851562 478.453125 184.672851562 481.280273438 191.60546875 c 0,49,50
 509.720703125 262.5 509.720703125 262.5 496.23046875 325.225585938 c 0,51,52
 488.06640625 364.012695312 488.06640625 364.012695312 460.31640625 400.458007812 c 0,53,54
 433.213867188 436.055664062 433.213867188 436.055664062 393.815429688 452.13671875 c 0,55,56
 352.823242188 468.868164062 352.823242188 468.868164062 310.778320312 468.868164062 c 0,57,58
 282.987304688 468.868164062 282.987304688 468.868164062 238.000976562 439.421875 c 2,59,-1
 219.333984375 427.203125 l 1,60,-1
 206.958007812 445.767578125 l 1,61,-1
 186.717773438 476.126953125 l 1,62,-1
 166.477539062 506.486328125 l 1,63,-1
 154.073242188 525.091796875 l 1,64,-1
 172.6015625 537.611328125 l 2,65,66
 246.473632812 587.524414062 246.473632812 587.524414062 309.096679688 587.006835938 c 0,67,68
 394.008789062 586.516601562 394.008789062 586.516601562 454.37109375 555.587890625 c 0,69,70
 486.879882812 539.208984375 486.879882812 539.208984375 512.216796875 516.799804688 c 128,-1,71
 537.552734375 494.390625 537.552734375 494.390625 554.822265625 466.456054688 c 0,72,73
 610.080078125 378.237304688 610.080078125 378.237304688 613.302734375 342.784179688 c 0,74,75
 624.909179688 241.233398438 624.909179688 241.233398438 592.326171875 150.295898438 c 0,76,77
 571.325195312 91.3916015625 571.325195312 91.3916015625 506.534179688 39.55859375 c 2,78,-1
 489.3671875 25.82421875 l 1,79,-1
 475.239257812 42.6689453125 l 1,80,-1
 451.436523438 71.0498046875 l 1,41,-1
341.0390625 228.828125 m 5,81,-1
 304.23828125 228.828125 l 5,82,-1
 281.73828125 228.828125 l 5,83,-1
 281.73828125 251.328125 l 5,84,-1
 281.73828125 325.84765625 l 5,85,-1
 281.73828125 348.34765625 l 5,86,-1
 304.23828125 348.34765625 l 5,87,-1
 341.0390625 348.34765625 l 5,88,-1
 377.838867188 348.34765625 l 5,89,-1
 400.338867188 348.34765625 l 5,90,-1
 400.338867188 325.84765625 l 5,91,-1
 400.338867188 251.328125 l 5,92,-1
 400.338867188 228.828125 l 5,93,-1
 377.838867188 228.828125 l 5,94,-1
 341.0390625 228.828125 l 5,81,-1
EndSplineSet
EndChar

StartChar: one
Encoding: 49 49 20
Width: 443
VWidth: 943
Flags: W
LayerCount: 2
Fore
SplineSet
88.705078125 342.602539062 m 5,0,-1
 70.3046875 374.802734375 l 5,1,-1
 59.1630859375 394.298828125 l 5,2,-1
 78.6376953125 405.479492188 l 6,3,4
 170 458 170 458 227.772460938 554.705078125 c 4,5,6
 241 577 241 577 265.926757812 582.66796875 c 4,7,8
 299 590 299 590 313.249023438 579.80078125 c 4,9,10
 338.66015625 562.235351562 338.66015625 562.235351562 338.66015625 551.885742188 c 6,11,-1
 338.66015625 25.326171875 l 5,12,-1
 338.66015625 2.826171875 l 5,13,-1
 316.16015625 2.826171875 l 5,14,-1
 279.360351562 2.826171875 l 5,15,-1
 242.559570312 2.826171875 l 5,16,-1
 220.059570312 2.826171875 l 5,17,-1
 220.059570312 25.326171875 l 5,18,-1
 220.059570312 361.338867188 l 5,19,20
 207 350 207 350 193.807617188 339.737304688 c 4,21,22
 180 329 180 329 166.583984375 320.103515625 c 4,23,24
 152 311 152 311 138.01171875 302.150390625 c 6,25,-1
 118.38671875 290.65625 l 5,26,-1
 107.103515625 310.40234375 l 5,27,-1
 88.705078125 342.602539062 l 5,0,-1
EndSplineSet
EndChar

StartChar: two
Encoding: 50 50 21
Width: 586
VWidth: 943
Flags: W
LayerCount: 2
Fore
SplineSet
175.4296875 447.59375 m 1,0,-1
 143.436523438 465.875976562 l 1,1,-1
 123.725585938 477.138671875 l 1,2,-1
 135.165039062 496.748046875 l 2,3,4
 157 534 157 534 191.604492188 557.8203125 c 0,5,6
 226 581 226 581 263.658203125 586.8046875 c 0,7,8
 304 593 304 593 337.166992188 585.7421875 c 0,9,10
 379 577 379 577 410.73828125 558.916015625 c 0,11,12
 443 541 443 541 464.478515625 512.541992188 c 0,13,14
 510 454 510 454 486.528320312 356.920898438 c 0,15,16
 475 310 475 310 440.37890625 271.588867188 c 0,17,18
 414.112304688 241.5546875 414.112304688 241.5546875 366.138671875 214.735351562 c 0,19,20
 354.182617188 209.609375 354.182617188 209.609375 285.690429688 173.813476562 c 0,21,22
 262.015625 160.680664062 262.015625 160.680664062 223.38671875 127.076171875 c 0,23,24
 221 125 221 125 217.990234375 122.760742188 c 0,25,26
 213.735351562 118.750976562 213.735351562 118.750976562 213.34375 118.750976562 c 2,27,-1
 434.280273438 118.750976562 l 1,28,-1
 471.080078125 118.750976562 l 1,29,-1
 507.879882812 118.750976562 l 1,30,-1
 530.379882812 118.750976562 l 1,31,-1
 530.379882812 96.2509765625 l 1,32,-1
 530.379882812 41.05078125 l 1,33,-1
 530.379882812 35.53125 l 1,34,-1
 530.379882812 30.9306640625 l 2,35,36
 530 28 530 28 529.682617188 24.2568359375 c 2,37,-1
 529.483398438 23.2978515625 l 2,38,39
 532 6 532 6 532.102539062 4.826171875 c 0,40,41
 532 4 532 4 523.231445312 1.9677734375 c 0,42,43
 520 1 520 1 516.481445312 0.837890625 c 0,44,45
 514.448242188 0.1513671875 514.448242188 0.1513671875 505.48046875 0.1513671875 c 2,46,-1
 88.919921875 0.1513671875 l 2,47,48
 71 16 71 16 70.171875 16.3779296875 c 0,49,50
 68 17 68 17 68.6201171875 59.451171875 c 0,51,52
 69 83 69 83 73.017578125 104.43359375 c 128,-1,53
 77 126 77 126 86.267578125 145.560546875 c 0,54,55
 104 184 104 184 131.953125 210.280273438 c 0,56,57
 158 235 158 235 190.360351562 255.073242188 c 0,58,59
 222 275 222 275 254.594726562 291.233398438 c 0,60,61
 286 307 286 307 311.833007812 321.427734375 c 0,62,63
 345 340 345 340 352.590820312 351.821289062 c 0,64,65
 354 354 354 354 355.787109375 355.182617188 c 0,66,67
 357 357 357 357 358.630859375 358.510742188 c 0,68,69
 360 360 360 360 361.135742188 361.815429688 c 0,70,71
 362 363 362 363 363.318359375 365.098632812 c 0,72,73
 364 367 364 367 365.193359375 368.372070312 c 0,74,75
 366 370 366 370 366.778320312 371.637695312 c 0,76,77
 367 373 367 373 368.0859375 374.905273438 c 128,-1,78
 369 377 369 377 369.134765625 378.178710938 c 0,79,80
 370 380 370 380 369.938476562 381.467773438 c 0,81,82
 380 428 380 428 367.390625 443.879882812 c 0,83,84
 354 461 354 461 314.111328125 468.8359375 c 0,85,-1
 312.90234375 469.102539062 l 2,86,87
 300 472 300 472 291.546875 470.834960938 c 0,88,89
 286 470 286 470 280.337890625 469.081054688 c 0,90,91
 275 468 275 468 269.807617188 466.061523438 c 0,92,93
 267 465 267 465 264.159179688 463.602539062 c 0,94,95
 261 462 261 462 258.487304688 460.166015625 c 0,96,97
 256 458 256 458 252.724609375 455.640625 c 0,98,99
 244.327148438 448.286132812 244.327148438 448.286132812 238.852539062 438.022460938 c 2,100,-1
 227.989257812 417.65625 l 1,101,-1
 207.907226562 429.036132812 l 1,102,-1
 180.065429688 444.8125 l 1,103,-1
 175.4296875 447.59375 l 1,0,-1
EndSplineSet
EndChar

StartChar: three
Encoding: 51 51 22
Width: 534
VWidth: 943
Flags: W
LayerCount: 2
Fore
SplineSet
233.252929688 308.21484375 m 1,0,-1
 221.291992188 342.254882812 l 1,1,-1
 211.026367188 371.470703125 l 1,2,-1
 241.984375 372.20703125 l 2,3,4
 273.546875 372.958984375 273.546875 372.958984375 291.250976562 384.705078125 c 0,5,6
 304.711914062 394.677734375 304.711914062 394.677734375 307.715820312 403.296875 c 128,-1,7
 310.720703125 411.916992188 310.720703125 411.916992188 306.072265625 422.827148438 c 0,8,9
 300.942382812 436.384765625 300.942382812 436.384765625 293.358398438 445.6953125 c 128,-1,10
 285.774414062 455.004882812 285.774414062 455.004882812 275.745117188 460.688476562 c 0,11,12
 254.84375 472.08984375 254.84375 472.08984375 232.557617188 463.174804688 c 0,13,14
 215.569335938 456.225585938 215.569335938 456.225585938 197.049804688 440.926757812 c 2,15,-1
 179.497070312 426.426757812 l 1,16,-1
 165.205078125 444.149414062 l 1,17,-1
 142.456054688 472.359375 l 1,18,-1
 118.796875 499.657226562 l 1,19,-1
 104.162109375 516.543945312 l 1,20,-1
 120.947265625 531.294921875 l 2,21,22
 154.509765625 560.788085938 154.509765625 560.788085938 191.638671875 574.1953125 c 0,23,24
 216.3203125 583.108398438 216.3203125 583.108398438 240.302734375 585.120117188 c 128,-1,25
 264.28515625 587.1328125 264.28515625 587.1328125 287.35546875 582.028320312 c 128,-1,26
 310.426757812 576.923828125 310.426757812 576.923828125 331.52734375 564.689453125 c 0,27,28
 395.375 527.833984375 395.375 527.833984375 417.40625 463.83984375 c 0,29,30
 419.16015625 458.869140625 419.16015625 458.869140625 420.482421875 453.392578125 c 128,-1,31
 421.803710938 447.916015625 421.803710938 447.916015625 422.674804688 442.067382812 c 128,-1,32
 423.544921875 436.21875 423.544921875 436.21875 424.026367188 430.100585938 c 128,-1,33
 424.506835938 423.982421875 424.506835938 423.982421875 424.634765625 417.345703125 c 0,34,35
 425.193359375 392.7734375 425.193359375 392.7734375 415.828125 367.981445312 c 0,36,37
 412.904296875 360.2421875 412.904296875 360.2421875 409.395507812 352.823242188 c 128,-1,38
 405.88671875 345.404296875 405.88671875 345.404296875 401.793945312 338.311523438 c 128,-1,39
 397.700195312 331.21875 397.700195312 331.21875 393.0390625 324.487304688 c 0,40,41
 389.36328125 319.176757812 389.36328125 319.176757812 385.133789062 314.099609375 c 128,-1,42
 380.903320312 309.022460938 380.903320312 309.022460938 376.178710938 304.239257812 c 128,-1,43
 371.453125 299.455078125 371.453125 299.455078125 366.266601562 294.951171875 c 128,-1,44
 361.079101562 290.448242188 361.079101562 290.448242188 355.379882812 286.173828125 c 0,45,46
 332.32421875 268.881835938 332.32421875 268.881835938 305.079101562 259.451171875 c 2,47,-1
 293.28125 255.368164062 l 1,48,-1
 283.573242188 263.217773438 l 1,49,-1
 240.333984375 298.177734375 l 1,50,-1
 235.369140625 302.19140625 l 1,51,-1
 233.252929688 308.21484375 l 1,0,-1
231.98046875 315.673828125 m 1,52,-1
 231.98046875 352.473632812 l 1,53,-1
 231.98046875 374.973632812 l 1,54,-1
 254.48046875 374.973632812 l 2,55,56
 299 375 299 375 335.221679688 365.76171875 c 0,57,58
 372 357 372 357 400.209960938 337.71484375 c 0,59,60
 439 313 439 313 458.96875 278.891601562 c 0,61,62
 479 245 479 245 479.379882812 203.893554688 c 0,63,64
 479 123 479 123 436.158203125 70.8251953125 c 4,65,66
 426 58 426 58 413.486328125 47.5869140625 c 132,-1,67
 401 37 401 37 387.389648438 27.986328125 c 4,68,69
 374 19 374 19 358.095703125 12.0712890625 c 4,70,71
 347 7 347 7 323.647460938 -0.234375 c 0,72,73
 286 -12 286 -12 244.055664062 -6.076171875 c 0,74,75
 204 -1 204 -1 169.215820312 16.2109375 c 0,76,77
 133 34 133 34 104.865234375 69.349609375 c 0,78,79
 76.4250396134 105.46032422 76.4250396134 105.46032422 64.3486328125 151.75390625 c 2,80,-1
 58.6455078125 173.616210938 l 1,81,-1
 80.53125 179.228515625 l 1,82,-1
 116.674804688 188.49609375 l 1,83,-1
 152.8203125 196.837890625 l 1,84,-1
 174.349609375 201.806640625 l 1,85,-1
 179.708007812 180.37109375 l 2,86,87
 190 139 190 139 222.03125 122.221679688 c 0,88,89
 255 105 255 105 293.142578125 114.852539062 c 0,90,91
 326 123 326 123 344.444335938 145.047851562 c 4,92,93
 359.176406019 162.802285812 359.176406019 162.802285812 360.780273438 203.43359375 c 0,94,95
 361 209 361 209 358.122070312 215.466796875 c 0,96,97
 355 222 355 222 349.2734375 230.290039062 c 0,98,99
 344 237 344 237 333.7109375 243.234375 c 0,100,101
 323 249 323 249 307.353515625 253.508789062 c 0,102,103
 293.14527774 256.374023438 293.14527774 256.374023438 254.48046875 256.374023438 c 2,104,-1
 231.98046875 256.374023438 l 1,105,-1
 231.98046875 278.874023438 l 1,106,-1
 231.98046875 315.673828125 l 1,52,-1
EndSplineSet
EndChar

StartChar: four
Encoding: 52 52 23
Width: 561
VWidth: 943
Flags: W
LayerCount: 2
Fore
SplineSet
395.999023438 249.551757812 m 1,0,-1
 465.499023438 249.551757812 l 1,1,-1
 487.999023438 249.551757812 l 1,2,-1
 487.999023438 227.051757812 l 1,3,-1
 487.999023438 190.250976562 l 1,4,-1
 487.999023438 153.451171875 l 1,5,-1
 487.999023438 130.951171875 l 1,6,-1
 465.499023438 130.951171875 l 1,7,-1
 395.999023438 130.951171875 l 1,8,-1
 395.999023438 23.7314453125 l 1,9,-1
 395.999023438 1.2314453125 l 1,10,-1
 373.499023438 1.2314453125 l 1,11,-1
 336.69921875 1.2314453125 l 1,12,-1
 299.899414062 1.2314453125 l 1,13,-1
 277.399414062 1.2314453125 l 1,14,-1
 277.399414062 23.7314453125 l 1,15,-1
 277.399414062 130.951171875 l 1,16,-1
 122.338867188 130.951171875 l 2,17,18
 110.639648438 130.951171875 110.639648438 130.951171875 99.8427734375 135.578125 c 128,-1,19
 89.044921875 140.205078125 89.044921875 140.205078125 80.6689453125 148.581054688 c 0,20,21
 71.9775390625 157.2734375 71.9775390625 157.2734375 67.5693359375 168.770507812 c 128,-1,22
 63.162109375 180.267578125 63.162109375 180.267578125 63.5078125 192.716796875 c 0,23,24
 64.2607421875 219.82421875 64.2607421875 219.82421875 85.1513671875 236.23828125 c 0,25,26
 156.68359375 296.2890625 156.68359375 296.2890625 206.783203125 376.094726562 c 128,-1,27
 256.817382812 455.794921875 256.817382812 455.794921875 278.97265625 547.073242188 c 0,28,29
 283.502929688 565.196289062 283.502929688 565.196289062 298.208007812 577.696289062 c 0,30,31
 312.328125 589.697265625 312.328125 589.697265625 331.7109375 591.694335938 c 0,32,33
 345.262695312 592.938476562 345.262695312 592.938476562 356.376953125 589.078125 c 128,-1,34
 367.491210938 585.217773438 367.491210938 585.217773438 376.80078125 576.625 c 0,35,36
 395.999023438 558.903320312 395.999023438 558.903320312 395.999023438 533.411132812 c 2,37,-1
 395.999023438 249.551757812 l 1,0,-1
277.399414062 249.551757812 m 1,38,-1
 277.399414062 269.15234375 l 2,39,40
 275.837890625 267.015625 275.837890625 267.015625 274.240234375 264.862304688 c 128,-1,41
 272.642578125 262.708984375 272.642578125 262.708984375 271.151367188 260.728515625 c 128,-1,42
 269.661132812 258.748046875 269.661132812 258.748046875 268.161132812 256.782226562 c 128,-1,43
 266.662109375 254.81640625 266.662109375 254.81640625 265.294921875 253.046875 c 128,-1,44
 263.926757812 251.276367188 263.926757812 251.276367188 262.578125 249.551757812 c 2,45,-1
 277.399414062 249.551757812 l 1,38,-1
EndSplineSet
EndChar

StartChar: five
Encoding: 53 53 24
Width: 540
VWidth: 942
Flags: W
LayerCount: 2
Fore
SplineSet
95.0068359375 565.051757812 m 0,0,1
 107.226434288 574.168945312 107.226434288 574.168945312 110.733398438 574.168945312 c 2,2,-1
 122.25390625 574.168945312 l 1,3,-1
 129.614257812 574.168945312 l 1,4,-1
 406.4140625 574.168945312 l 1,5,-1
 412.393554688 574.168945312 l 1,6,-1
 416.994140625 574.168945312 l 2,7,8
 418 574 418 574 425.670898438 573.037109375 c 0,9,10
 428 573 428 573 429.141601562 572.006835938 c 0,11,12
 431 571 431 571 433.299804688 570.095703125 c 0,13,14
 436 569 436 569 433.5 566 c 128,-1,15
 431 563 431 563 432.638671875 559.891601562 c 0,16,17
 434 558 434 558 434.784179688 554.965820312 c 0,18,19
 437 542 437 542 437.313476562 541.549804688 c 2,20,-1
 437.313476562 533.26953125 l 1,21,-1
 437.313476562 478.069335938 l 1,22,-1
 437.313476562 455.569335938 l 1,23,-1
 414.813476562 455.569335938 l 1,24,-1
 378.013671875 455.569335938 l 1,25,-1
 341.213867188 455.569335938 l 1,26,-1
 206.393554688 455.569335938 l 1,27,-1
 206.393554688 390.810546875 l 1,28,29
 261 403 261 403 301.70703125 395.377929688 c 0,30,31
 332 390 332 390 358.118164062 379.341796875 c 0,32,33
 384 369 384 369 406.053710938 352.34375 c 0,34,35
 428 336 428 336 444.92578125 314.411132812 c 0,36,37
 496 250 496 250 479.291015625 148.473632812 c 0,38,39
 475 122 475 122 464.751953125 101.55078125 c 0,40,41
 455 81 455 81 439.463867188 65.1787109375 c 0,42,43
 409 33 409 33 362.987304688 12.537109375 c 0,44,45
 325 -5 325 -5 282.037109375 -7.1640625 c 0,46,47
 240 -9 240 -9 199.778320312 4.083984375 c 0,48,49
 160 17 160 17 124.370117188 48.5927734375 c 0,50,51
 103 67 103 67 92.716796875 82.7978515625 c 0,52,53
 74.7442216989 109.378281755 74.7442216989 109.378281755 67.99609375 123.1953125 c 2,54,-1
 57.9912109375 143.680664062 l 1,55,-1
 78.6064453125 153.415039062 l 1,56,-1
 111.498046875 168.946289062 l 1,57,-1
 144.391601562 185.393554688 l 1,58,-1
 164.819335938 195.608398438 l 1,59,-1
 174.7265625 175.030273438 l 2,60,61
 185 154 185 154 200.083984375 139.57421875 c 128,-1,62
 215 125 215 125 236.208984375 117.239257812 c 0,63,64
 274 103 274 103 309.818359375 119.067382812 c 0,65,66
 321 124 321 124 321.974609375 124.908203125 c 0,67,68
 327 125 327 125 327.943359375 127.794921875 c 0,69,70
 328 128 328 128 331.430664062 129.604492188 c 2,71,-1
 341.088867188 135.123046875 l 1,72,-1
 345.673828125 138.069335938 l 1,73,-1
 352.905273438 145.30078125 l 2,74,75
 355 147 355 147 355.23046875 148.360351562 c 0,76,77
 356 151 356 151 357.540039062 153.529296875 c 128,-1,78
 359 156 359 156 360.09375 159.416015625 c 0,79,80
 361.556940531 162.934569083 361.556940531 162.934569083 362.091796875 167.75390625 c 2,81,-1
 362.184570312 168.58984375 l 2,82,83
 368 222 368 222 350.950195312 243.008789062 c 0,84,85
 347 248 347 248 341.651367188 252.568359375 c 0,86,87
 337 257 337 257 330.17578125 260.959960938 c 0,88,89
 324 265 324 265 316.385742188 268.129882812 c 0,90,91
 309 271 309 271 300.079101562 273.948242188 c 128,-1,92
 291 277 291 277 281.120117188 278.36328125 c 0,93,94
 274 280 274 280 266.8671875 279.649414062 c 0,95,96
 259 280 259 280 250.369140625 278.587890625 c 0,97,98
 241 277 241 277 231.670898438 275.000976562 c 0,99,100
 217 271 217 271 204.616210938 265.721679688 c 0,101,102
 192 260 192 260 181.873046875 253.137695312 c 0,103,104
 168 243 168 243 151.342773438 241.293945312 c 0,105,106
 134 240 134 240 118.771484375 248.133789062 c 0,107,108
 104 256 104 256 95.880859375 270.376953125 c 0,109,110
 87.7939453125 284.356191188 87.7939453125 284.356191188 87.7939453125 300.509765625 c 2,111,-1
 87.7939453125 542.061523438 l 1,112,-1
 87.5595703125 544.068359375 l 2,113,114
 85.6226386782 555.1611438 85.6226386782 555.1611438 88.451171875 560.888671875 c 0,115,116
 92 563 92 563 95.0068359375 565.051757812 c 0,0,1
EndSplineSet
EndChar

StartChar: six
Encoding: 54 54 25
Width: 512
VWidth: 943
Flags: W
LayerCount: 2
Fore
SplineSet
77.5751953125 209.3359375 m 5,0,-1
 56.16015625 226.60546875 l 5,1,-1
 38.111328125 241.161132812 l 5,2,-1
 53.2021484375 258.764648438 l 6,3,4
 58.7216796875 265.202148438 58.7216796875 265.202148438 64.240234375 271.641601562 c 6,5,-1
 64.8037109375 272.298828125 l 5,6,-1
 65.416015625 272.911132812 l 6,7,8
 66.59375 274.088867188 66.59375 274.088867188 68.181640625 275.774414062 c 4,9,10
 68.4560546875 282.681640625 68.4560546875 282.681640625 69.0458984375 288.578125 c 4,11,12
 76.9453125 375.471679688 76.9453125 375.471679688 134.270507812 456.314453125 c 132,-1,13
 191.52734375 537.061523438 191.52734375 537.061523438 297.189453125 586.5 c 6,14,-1
 317.604492188 596.051757812 l 5,15,-1
 327.12109375 575.620117188 l 5,16,-1
 358.401367188 508.459960938 l 5,17,-1
 367.946289062 487.966796875 l 5,18,-1
 347.408203125 478.518554688 l 6,19,20
 304.484375 458.774414062 304.484375 458.774414062 272.047851562 429.750976562 c 4,21,22
 239.409179688 400.549804688 239.409179688 400.549804688 222.678710938 374.19921875 c 4,23,24
 218.888671875 368.228515625 218.888671875 368.228515625 215.469726562 362.134765625 c 5,25,26
 248.62890625 368.223632812 248.62890625 368.223632812 279.706054688 362.896484375 c 4,27,28
 333.073242188 353.748046875 333.073242188 353.748046875 374.060546875 324.543945312 c 132,-1,29
 414.887695312 295.456054688 414.887695312 295.456054688 439.370117188 252.610351562 c 4,30,31
 460.958984375 215.599609375 460.958984375 215.599609375 466.130859375 174.23046875 c 4,32,33
 467.470703125 163.44140625 467.470703125 163.44140625 467.291992188 152.698242188 c 132,-1,34
 467.11328125 141.954101562 467.11328125 141.954101562 465.428710938 131.26953125 c 132,-1,35
 463.744140625 120.584960938 463.744140625 120.584960938 460.603515625 110.060546875 c 132,-1,36
 457.461914062 99.5361328125 457.461914062 99.5361328125 452.875976562 89.185546875 c 4,37,38
 433.782226562 46.0908203125 433.782226562 46.0908203125 388.850585938 20.4150390625 c 4,39,40
 371.133789062 9.9921875 371.133789062 9.9921875 351.237304688 3.7099609375 c 4,41,42
 262.233398438 -24.5615234375 262.233398438 -24.5615234375 184.499023438 31.7822265625 c 4,43,44
 109.870117188 85.875 109.870117188 85.875 81.8994140625 176.783203125 c 6,45,-1
 81.3115234375 178.693359375 l 5,46,-1
 81.0693359375 180.676757812 l 5,47,-1
 77.5751953125 209.3359375 l 5,0,-1
191.182617188 226.131835938 m 5,48,49
 201.307617188 175.969726562 201.307617188 175.969726562 236.0078125 143.774414062 c 4,50,51
 272.404296875 110.00390625 272.404296875 110.00390625 306.030273438 114.553710938 c 4,52,53
 318.794921875 116.817382812 318.794921875 116.817382812 329.814453125 123.015625 c 4,54,55
 346.668945312 132.314453125 346.668945312 132.314453125 348.828125 148.243164062 c 4,56,57
 351.483398438 167.822265625 351.483398438 167.822265625 336.987304688 193.188476562 c 4,58,59
 330.059570312 204.736328125 330.059570312 204.736328125 321.319335938 214.151367188 c 132,-1,60
 312.579101562 223.567382812 312.579101562 223.567382812 302.287109375 230.619140625 c 4,61,62
 282.360351562 244.272460938 282.360351562 244.272460938 255.176757812 246.538085938 c 4,63,64
 246.756835938 247.239257812 246.756835938 247.239257812 238.0625 245.936523438 c 132,-1,65
 229.368164062 244.633789062 229.368164062 244.633789062 219.588867188 240.954101562 c 132,-1,66
 209.809570312 237.2734375 209.809570312 237.2734375 199.474609375 231.178710938 c 4,67,-1
 198.106445312 230.434570312 l 6,68,69
 194.762695312 228.762695312 194.762695312 228.762695312 191.182617188 226.131835938 c 5,48,49
EndSplineSet
EndChar

StartChar: seven
Encoding: 55 55 26
Width: 582
VWidth: 942
Flags: W
LayerCount: 2
Fore
SplineSet
94.6435546875 588.590820312 m 5,0,1
 101 589 101 589 100.952148438 589.08203125 c 132,-1,2
 100.9921875 589.013671875 100.9921875 589.013671875 105.5859375 588.638671875 c 6,3,-1
 109.85546875 588.290039062 l 5,4,-1
 485.946289062 588.290039062 l 6,5,6
 499 588 499 588 510.344726562 580.045898438 c 4,7,8
 522 572 522 572 523.8046875 557.844726562 c 4,9,10
 525 547 525 547 522.071289062 523.012695312 c 4,11,12
 521 512 521 512 517.704101562 505.7578125 c 4,13,14
 515 499 515 499 508.870117188 491.7265625 c 4,15,16
 439 406 439 406 373.045898438 260.153320312 c 4,17,18
 317.388671875 137.653320312 317.388671875 137.653320312 298.422851562 14.8359375 c 6,19,-1
 295.00390625 -7.3046875 l 5,20,-1
 236.006835938 1.544921875 l 5,21,-1
 177.741210938 10.5087890625 l 5,22,-1
 181.28515625 32.8369140625 l 6,23,24
 200 151 200 151 249.84375 272.892578125 c 4,25,26
 304 408 304 408 345.666992188 469.690429688 c 5,27,-1
 177.572265625 469.23046875 l 5,28,-1
 137.266601562 468.76953125 l 5,29,-1
 77.966796875 468.76953125 l 5,30,-1
 77.966796875 547.389648438 l 6,31,32
 78 549 78 549 78.1044921875 554.421875 c 4,33,34
 78 557 78 557 78.6533203125 560.231445312 c 4,35,36
 79 564 79 564 79.783203125 566.983398438 c 4,37,38
 82.990234375 584.947265625 82.990234375 584.947265625 83.5087890625 585.109375 c 6,39,-1
 94.6435546875 588.590820312 l 5,0,1
177.327148438 264.830078125 m 5,40,-1
 177.327148438 301.629882812 l 5,41,-1
 177.327148438 324.129882812 l 5,42,-1
 199.827148438 324.129882812 l 5,43,-1
 414.186523438 324.129882812 l 5,44,-1
 436.686523438 324.129882812 l 5,45,-1
 436.686523438 301.629882812 l 5,46,-1
 436.686523438 264.830078125 l 5,47,-1
 436.686523438 228.030273438 l 5,48,-1
 436.686523438 205.530273438 l 5,49,-1
 414.186523438 205.530273438 l 5,50,-1
 199.827148438 205.530273438 l 5,51,-1
 177.327148438 205.530273438 l 5,52,-1
 177.327148438 228.030273438 l 5,53,-1
 177.327148438 264.830078125 l 5,40,-1
EndSplineSet
EndChar

StartChar: eight
Encoding: 56 56 27
Width: 544
VWidth: 943
Flags: W
LayerCount: 2
Fore
SplineSet
246.615234375 248.484375 m 5,0,1
 238 240 238 240 228.396484375 232.279296875 c 4,2,3
 220 226 220 226 214.0703125 221.368164062 c 4,4,5
 208 217 208 217 203.981445312 213.002929688 c 132,-1,6
 200 209 200 209 197.504882812 206.901367188 c 132,-1,7
 195 205 195 205 194.985351562 203.813476562 c 4,8,9
 191 195 191 195 193.228515625 182.978515625 c 4,10,11
 194 176 194 176 204.1484375 156.588867188 c 4,12,13
 207 151 207 151 210.609375 147.032226562 c 4,14,15
 214 143 214 143 217.73046875 138.609375 c 4,16,17
 221 135 221 135 225.609375 131.237304688 c 4,18,19
 230 128 230 128 234.344726562 124.86328125 c 4,20,21
 239 122 239 122 244.032226562 119.401367188 c 132,-1,22
 249 117 249 117 254.768554688 114.797851562 c 4,23,24
 267 110 267 110 281.162109375 109.438476562 c 4,25,26
 286 109 286 109 291.197265625 109.725585938 c 4,27,28
 296 110 296 110 301.706054688 111.125 c 4,29,30
 307 112 307 112 312.732421875 113.677734375 c 4,31,32
 327 118 327 118 340.118164062 129.971679688 c 4,33,34
 357 145 357 145 360.6484375 163.159179688 c 4,35,36
 362 171 362 171 354.561523438 178.467773438 c 4,37,38
 352 181 352 181 348.590820312 183.580078125 c 132,-1,39
 345 186 345 186 340.641601562 189.711914062 c 4,40,41
 336 193 336 193 330.708007812 196.834960938 c 4,42,43
 325 201 325 201 318.974609375 204.798828125 c 4,44,45
 313 209 313 209 305.422851562 213.583984375 c 4,46,47
 296 219 296 219 290.223632812 223.045898438 c 6,48,-1
 246.615234375 248.484375 l 5,0,1
305.84765625 354.901367188 m 5,49,50
 319 365 319 365 325.780273438 375.82421875 c 4,51,52
 335 391 335 391 334.92578125 405.485351562 c 4,53,54
 335 422 335 422 326.27734375 435.954101562 c 4,55,56
 318 449 318 449 309.337890625 457.4609375 c 4,57,58
 300 465 300 465 288.205078125 470.069335938 c 4,59,60
 284 472 284 472 279.328125 472.771484375 c 4,61,62
 275 474 275 474 270.904296875 473.87890625 c 4,63,64
 267 474 267 474 262.666992188 473.37890625 c 4,65,66
 259 473 259 473 254.484375 471.271484375 c 4,67,68
 251 469 251 469 246.091796875 467.543945312 c 4,69,70
 244 467 244 467 242.510742188 465.368164062 c 4,71,72
 241 464 241 464 238.725585938 462.569335938 c 4,73,74
 237 461 237 461 234.912109375 459.293945312 c 4,75,76
 233 458 233 458 231.171875 455.622070312 c 4,77,78
 229 454 229 454 227.682617188 451.700195312 c 4,79,80
 222 443 222 443 218.901367188 436.56640625 c 132,-1,81
 216 430 216 430 216.150390625 426.944335938 c 4,82,83
 216 425 216 425 216.305664062 423.418945312 c 4,84,85
 216 422 216 422 217.08984375 420.158203125 c 4,86,87
 218 419 218 419 218.66015625 416.85546875 c 4,88,89
 220 415 220 415 221.166015625 413.368164062 c 4,90,91
 232.263671875 400.69921875 232.263671875 400.69921875 253.66796875 386.428710938 c 6,92,-1
 264.432617188 379.251953125 l 6,93,94
 270 376 270 376 305.84765625 354.901367188 c 5,49,50
144.463867188 323.538085938 m 5,95,96
 128 341 128 341 116.666015625 359.791015625 c 4,97,98
 98 393 98 393 99.888671875 436.088867188 c 4,99,100
 102.018554688 479.379882812 102.018554688 479.379882812 132.510742188 522.478515625 c 6,101,-1
 133.616210938 524.041015625 l 5,102,-1
 134.969726562 525.395507812 l 6,103,104
 136 526 136 526 136.0078125 526.43359375 c 4,105,106
 149 543 149 543 163.448242188 553.692382812 c 4,107,108
 206 589 206 589 255.69140625 591.739257812 c 4,109,110
 305 595 305 595 344.588867188 574.63671875 c 4,111,112
 387 552 387 552 411.173828125 520.973632812 c 4,113,114
 418 512 418 512 424.064453125 503.334960938 c 4,115,116
 430 494 430 494 434.799804688 484.583007812 c 4,117,118
 440 475 440 475 443.34375 464.772460938 c 4,119,120
 447 455 447 455 449.659179688 443.977539062 c 4,121,122
 459 402 459 402 446.130859375 353.059570312 c 4,123,124
 435 308 435 308 408.807617188 279.998046875 c 5,125,126
 418 273 418 273 427.696289062 263.30078125 c 4,127,128
 438 252 438 252 447.243164062 242.73828125 c 4,129,130
 449 241 449 241 450.359375 238.924804688 c 4,131,132
 452 237 452 237 453.357421875 234.958984375 c 4,133,134
 455 233 455 233 456.232421875 230.852539062 c 4,135,136
 458 229 458 229 458.994140625 226.596679688 c 132,-1,137
 460 224 460 224 461.637695312 222.206054688 c 4,138,139
 463 220 463 220 464.170898438 217.672851562 c 4,140,141
 472 204 472 204 475.685546875 189.614257812 c 4,142,143
 478 182 478 182 478.676757812 173.907226562 c 4,144,145
 480 166 480 166 479.268554688 157.060546875 c 4,146,147
 479 148 479 148 477.028320312 139.168945312 c 4,148,149
 475 130 475 130 471.821289062 121.6875 c 4,150,151
 456 78 456 78 424.443359375 48.099609375 c 132,-1,152
 393 18 393 18 355.703125 5.76953125 c 4,153,154
 321 -6 321 -6 283.177734375 -7.7421875 c 4,155,156
 247 -10 247 -10 212.231445312 4.03125 c 4,157,158
 141 32 141 32 99.65625 97.9306640625 c 4,159,160
 54 170 54 170 83.8330078125 245.3203125 c 4,161,162
 92 266 92 266 115.805664062 290.668945312 c 4,163,164
 119 294 119 294 144.463867188 323.538085938 c 5,95,96
EndSplineSet
EndChar

StartChar: nine
Encoding: 57 57 28
Width: 528
VWidth: 943
Flags: W
LayerCount: 2
Fore
SplineSet
447.266601562 339.69921875 m 5,0,-1
 466.118164062 318.751953125 l 5,1,-1
 481.538085938 301.620117188 l 5,2,-1
 464.0390625 286.618164062 l 6,3,4
 460.625 283.69140625 460.625 283.69140625 457.580078125 281.08203125 c 132,-1,5
 454.53515625 278.471679688 454.53515625 278.471679688 450.8671875 275.328125 c 6,6,-1
 447.02734375 272.229492188 l 6,7,8
 446.322265625 268.501953125 446.322265625 268.501953125 445.8671875 266.159179688 c 132,-1,9
 445.412109375 263.81640625 445.412109375 263.81640625 444.701171875 260.264648438 c 4,10,11
 431.813476562 205.737304688 431.813476562 205.737304688 400.91796875 155.715820312 c 4,12,13
 369.783203125 105.307617188 369.783203125 105.307617188 312.254882812 60.9423828125 c 132,-1,14
 254.639648438 16.5107421875 254.639648438 16.5107421875 178.837890625 -5.8408203125 c 6,15,-1
 157.41015625 -12.16015625 l 5,16,-1
 150.939453125 9.2236328125 l 5,17,-1
 129.780273438 79.1435546875 l 5,18,-1
 123.287109375 100.598632812 l 5,19,-1
 144.71875 107.170898438 l 6,20,21
 208.848632812 126.837890625 208.848632812 126.837890625 250.17578125 164.791992188 c 4,22,23
 257.543945312 171.55859375 257.543945312 171.55859375 264.603515625 178.862304688 c 132,-1,24
 271.6640625 186.165039062 271.6640625 186.165039062 277.829101562 193.331054688 c 132,-1,25
 283.993164062 200.49609375 283.993164062 200.49609375 289.314453125 207.516601562 c 5,26,27
 230.99609375 205.060546875 230.99609375 205.060546875 181.723632812 234.19140625 c 4,28,29
 112.2421875 275.2734375 112.2421875 275.2734375 82.5576171875 346.922851562 c 4,30,31
 71.1904296875 376.893554688 71.1904296875 376.893554688 68.6298828125 408.122070312 c 4,32,33
 66.01953125 439.971679688 66.01953125 439.971679688 73.8720703125 470.333007812 c 4,34,35
 82.111328125 502.196289062 82.111328125 502.196289062 105.423828125 528.760742188 c 4,36,37
 110.103515625 534.09375 110.103515625 534.09375 115.362304688 538.991210938 c 132,-1,38
 120.622070312 543.887695312 120.622070312 543.887695312 126.334960938 548.256835938 c 132,-1,39
 132.047851562 552.625 132.047851562 552.625 138.265625 556.533203125 c 132,-1,40
 144.483398438 560.44140625 144.483398438 560.44140625 151.09375 563.826171875 c 132,-1,41
 157.704101562 567.211914062 157.704101562 567.211914062 164.745117188 570.111328125 c 4,42,43
 174.522460938 574.228515625 174.522460938 574.228515625 185.008789062 577.186523438 c 132,-1,44
 195.49609375 580.14453125 195.49609375 580.14453125 205.756835938 581.68359375 c 4,45,46
 236.97265625 586.885742188 236.97265625 586.885742188 266.982421875 581.62109375 c 132,-1,47
 296.993164062 576.357421875 296.993164062 576.357421875 322.42578125 562.05078125 c 4,48,49
 346.956054688 548.251953125 346.956054688 548.251953125 368.3125 527.913085938 c 132,-1,50
 389.600585938 507.637695312 389.600585938 507.637695312 405.786132812 482.348632812 c 4,51,52
 413.782226562 469.853515625 413.782226562 469.853515625 420.411132812 456.595703125 c 132,-1,53
 427.041015625 443.336914062 427.041015625 443.336914062 432.282226562 429.360351562 c 4,54,55
 442.6875 401.614257812 442.6875 401.614257812 447.647460938 372.841796875 c 6,56,-1
 448.021484375 370.671875 l 5,57,-1
 447.967773438 368.470703125 l 5,58,-1
 447.266601562 339.69921875 l 5,0,-1
332.5078125 339.061523438 m 4,59,60
 328.541015625 390.51171875 328.541015625 390.51171875 299.3125 427.2265625 c 4,61,62
 288.264648438 441.102539062 288.264648438 441.102539062 277.21875 449.715820312 c 132,-1,63
 266.173828125 458.328125 266.173828125 458.328125 255.837890625 461.877929688 c 132,-1,64
 245.502929688 465.427734375 245.502929688 465.427734375 234.344726562 465.200195312 c 4,65,66
 227.920898438 465.200195312 227.920898438 465.200195312 221.794921875 464.012695312 c 132,-1,67
 215.669921875 462.825195312 215.669921875 462.825195312 209.250976562 460.329101562 c 4,68,69
 191.84765625 453.368164062 191.84765625 453.368164062 187.13671875 437.569335938 c 4,70,71
 181.540039062 418.8046875 181.540039062 418.8046875 192.442382812 391.185546875 c 4,72,73
 202.36328125 366.764648438 202.36328125 366.764648438 221.37890625 350.03125 c 4,74,75
 227.6171875 344.541015625 227.6171875 344.541015625 234.602539062 340.252929688 c 132,-1,76
 241.586914062 335.965820312 241.586914062 335.965820312 249.622070312 332.756835938 c 132,-1,77
 257.657226562 329.547851562 257.657226562 329.547851562 266.728515625 327.474609375 c 4,78,79
 291.786132812 321.747070312 291.786132812 321.747070312 323.69140625 335.420898438 c 6,80,-1
 324.168945312 335.625976562 l 5,81,-1
 324.655273438 335.807617188 l 6,82,83
 326.254882812 336.407226562 326.254882812 336.407226562 328.825195312 337.482421875 c 132,-1,84
 331.396484375 338.557617188 331.396484375 338.557617188 332.5078125 339.061523438 c 4,59,60
EndSplineSet
EndChar

StartChar: colon
Encoding: 58 58 29
Width: 307
VWidth: 940
Flags: W
LayerCount: 2
Fore
SplineSet
154 166.259765625 m 1,0,-1
 190.799804688 166.259765625 l 1,1,-1
 213.299804688 166.259765625 l 1,2,-1
 213.299804688 143.759765625 l 1,3,-1
 213.299804688 54.51953125 l 1,4,-1
 213.299804688 32.01953125 l 1,5,-1
 190.799804688 32.01953125 l 1,6,-1
 154 32.01953125 l 1,7,-1
 117.200195312 32.01953125 l 1,8,-1
 94.7001953125 32.01953125 l 1,9,-1
 94.7001953125 54.51953125 l 1,10,-1
 94.7001953125 143.759765625 l 1,11,-1
 94.7001953125 166.259765625 l 1,12,-1
 117.200195312 166.259765625 l 1,13,-1
 154 166.259765625 l 1,0,-1
154 344.8203125 m 1,14,-1
 117.200195312 344.8203125 l 1,15,-1
 94.7001953125 344.8203125 l 1,16,-1
 94.7001953125 367.3203125 l 1,17,-1
 94.7001953125 457.48046875 l 1,18,-1
 94.7001953125 479.98046875 l 1,19,-1
 117.200195312 479.98046875 l 1,20,-1
 154 479.98046875 l 1,21,-1
 190.799804688 479.98046875 l 1,22,-1
 213.299804688 479.98046875 l 1,23,-1
 213.299804688 457.48046875 l 1,24,-1
 213.299804688 367.3203125 l 1,25,-1
 213.299804688 344.8203125 l 1,26,-1
 190.799804688 344.8203125 l 1,27,-1
 154 344.8203125 l 1,14,-1
EndSplineSet
EndChar

StartChar: semicolon
Encoding: 59 59 30
Width: 307
VWidth: 934
Flags: W
LayerCount: 2
Fore
SplineSet
98.38671875 -107.5546875 m 1,0,-1
 64.5869140625 -93.8515625 l 1,1,-1
 43.4375 -85.27734375 l 1,2,-1
 52.310546875 -64.251953125 l 2,3,4
 92.8603515625 31.833984375 92.8603515625 31.833984375 92.8603515625 136.759765625 c 2,5,-1
 92.8603515625 159.259765625 l 1,6,-1
 115.360351562 159.259765625 l 1,7,-1
 152.16015625 159.259765625 l 1,8,-1
 188.959960938 159.259765625 l 1,9,-1
 211.459960938 159.259765625 l 1,10,-1
 211.459960938 136.759765625 l 2,11,12
 211.459960938 8.9873046875 211.459960938 8.9873046875 161.89453125 -110.161132812 c 2,13,-1
 153.130859375 -131.2265625 l 1,14,-1
 132.189453125 -122.170898438 l 1,15,-1
 98.38671875 -107.5546875 l 1,0,-1
152.16015625 349.780273438 m 1,16,-1
 115.360351562 349.780273438 l 1,17,-1
 92.8603515625 349.780273438 l 1,18,-1
 92.8603515625 372.280273438 l 1,19,-1
 92.8603515625 461.51953125 l 1,20,-1
 92.8603515625 484.01953125 l 1,21,-1
 115.360351562 484.01953125 l 1,22,-1
 152.16015625 484.01953125 l 1,23,-1
 188.959960938 484.01953125 l 1,24,-1
 211.459960938 484.01953125 l 1,25,-1
 211.459960938 461.51953125 l 1,26,-1
 211.459960938 372.280273438 l 1,27,-1
 211.459960938 349.780273438 l 1,28,-1
 188.959960938 349.780273438 l 1,29,-1
 152.16015625 349.780273438 l 1,16,-1
EndSplineSet
EndChar

StartChar: less
Encoding: 60 60 31
Width: 409
VWidth: 942
Flags: W
LayerCount: 2
Fore
SplineSet
264.212820136 126.873036103 m 1,0,-1
 233.980337513 106.719020137 l 1,1,-1
 215.229765032 94.219241609 l 1,2,-1
 202.759187254 112.98924751 l 1,3,-1
 113.593555656 247.196295581 l 2,4,5
 91.2279690923 280 91.2279690923 280 113.593555656 312.803704419 c 2,6,-1
 202.759187254 447.01075249 l 1,7,-1
 215.229765032 465.780758391 l 1,8,-1
 233.980337513 453.280979863 l 1,9,-1
 264.212820136 433.126963897 l 1,10,-1
 295.363095638 412.970216784 l 1,11,-1
 314.549031821 400.555364667 l 1,12,-1
 301.837600647 381.56462435 l 1,13,-1
 233.855430886 280 l 1,14,-1
 301.837600647 178.43537565 l 1,15,-1
 314.549031821 159.444635333 l 1,16,-1
 295.363095638 147.029783216 l 1,17,-1
 264.212820136 126.873036103 l 1,0,-1
EndSplineSet
EndChar

StartChar: equal
Encoding: 61 61 32
Width: 599
VWidth: 943
Flags: W
LayerCount: 2
Fore
SplineSet
485.5 176.83984375 m 1,0,-1
 485.5 140.040039062 l 1,1,-1
 485.5 117.540039062 l 1,2,-1
 463 117.540039062 l 1,3,-1
 141 117.540039062 l 1,4,-1
 118.5 117.540039062 l 1,5,-1
 118.5 140.040039062 l 1,6,-1
 118.5 176.83984375 l 1,7,-1
 118.5 213.639648438 l 1,8,-1
 118.5 236.139648438 l 1,9,-1
 141 236.139648438 l 1,10,-1
 463 236.139648438 l 1,11,-1
 485.5 236.139648438 l 1,12,-1
 485.5 213.639648438 l 1,13,-1
 485.5 176.83984375 l 1,0,-1
485.5 371.16015625 m 1,14,-1
 485.5 334.360351562 l 1,15,-1
 485.5 311.860351562 l 1,16,-1
 463 311.860351562 l 1,17,-1
 141 311.860351562 l 1,18,-1
 118.5 311.860351562 l 1,19,-1
 118.5 334.360351562 l 1,20,-1
 118.5 371.16015625 l 1,21,-1
 118.5 407.959960938 l 1,22,-1
 118.5 430.459960938 l 1,23,-1
 141 430.459960938 l 1,24,-1
 463 430.459960938 l 1,25,-1
 485.5 430.459960938 l 1,26,-1
 485.5 407.959960938 l 1,27,-1
 485.5 371.16015625 l 1,14,-1
EndSplineSet
EndChar

StartChar: greater
Encoding: 62 62 33
Width: 390
VWidth: 942
Flags: W
LayerCount: 2
Fore
SplineSet
151.719726562 433.041015625 m 1,0,-1
 182.079101562 453.28125 l 1,1,-1
 200.741210938 465.721679688 l 1,2,-1
 213.241210938 447.099609375 l 1,3,-1
 303.5546875 312.551757812 l 2,4,5
 310.071289062 302.311523438 310.071289062 302.311523438 312.290039062 291.155273438 c 128,-1,6
 314.509765625 280 314.509765625 280 312.290039062 268.84375 c 128,-1,7
 310.071289062 257.688476562 310.071289062 257.688476562 303.5546875 247.448242188 c 2,8,-1
 213.241210938 112.900390625 l 1,9,-1
 200.741210938 94.2783203125 l 1,10,-1
 182.079101562 106.71875 l 1,11,-1
 151.719726562 126.958984375 l 1,12,-1
 121.359375 147.19921875 l 1,13,-1
 102.708007812 159.6328125 l 1,14,-1
 115.072265625 178.331054688 l 1,15,-1
 182.305664062 280 l 1,16,-1
 115.072265625 381.668945312 l 1,17,-1
 102.708007812 400.3671875 l 1,18,-1
 121.359375 412.80078125 l 1,19,-1
 151.719726562 433.041015625 l 1,0,-1
EndSplineSet
EndChar

StartChar: question
Encoding: 63 63 34
Width: 522
VWidth: 951
Flags: W
LayerCount: 2
Fore
SplineSet
59.0615234375 644.365234375 m 5,0,-1
 35.0244140625 673.024414062 l 5,1,-1
 20.576171875 690.250976562 l 5,2,-1
 37.7919921875 704.711914062 l 6,3,4
 111.96875 767.020507812 111.96875 767.020507812 190.33984375 776.063476562 c 4,5,6
 246.782226562 783.118164062 246.782226562 783.118164062 297.594726562 766.349609375 c 4,7,8
 314.349609375 760.821289062 314.349609375 760.821289062 329.556640625 753.385742188 c 132,-1,9
 344.762695312 745.94921875 344.762695312 745.94921875 358.485351562 736.526367188 c 132,-1,10
 372.20703125 727.102539062 372.20703125 727.102539062 384.1796875 715.814453125 c 4,11,12
 419.24609375 682.750976562 419.24609375 682.750976562 441.72265625 638.295898438 c 132,-1,13
 464.198242188 593.84375 464.198242188 593.84375 470.197265625 544.858398438 c 6,14,-1
 470.262695312 544.323242188 l 6,15,16
 471.26171875 530.844726562 471.26171875 530.844726562 471.620117188 517.791015625 c 132,-1,17
 471.979492188 504.737304688 471.979492188 504.737304688 471.740234375 491.57421875 c 4,18,19
 471.568359375 482.131835938 471.568359375 482.131835938 470.536132812 472.677734375 c 132,-1,20
 469.502929688 463.224609375 469.502929688 463.224609375 467.625976562 453.836914062 c 132,-1,21
 465.748046875 444.44921875 465.748046875 444.44921875 463.028320312 435.099609375 c 4,22,23
 455.30078125 408.53125 455.30078125 408.53125 444.666015625 383.396484375 c 4,24,25
 438.958984375 369.90625 438.958984375 369.90625 431.194335938 357.224609375 c 132,-1,26
 423.4296875 344.54296875 423.4296875 344.54296875 413.690429688 332.752929688 c 4,27,28
 404.146484375 321.19921875 404.146484375 321.19921875 393.546875 310.978515625 c 132,-1,29
 382.947265625 300.7578125 382.947265625 300.7578125 371.328125 291.916992188 c 4,30,31
 363.397460938 285.8828125 363.397460938 285.8828125 354.590820312 280.452148438 c 132,-1,32
 345.783203125 275.022460938 345.783203125 275.022460938 336.284179688 270.275390625 c 132,-1,33
 326.786132812 265.528320312 326.786132812 265.528320312 316.438476562 261.356445312 c 4,34,35
 305.444335938 256.922851562 305.444335938 256.922851562 293.630859375 253.486328125 c 132,-1,36
 281.81640625 250.049804688 281.81640625 250.049804688 269.803710938 247.716796875 c 5,37,-1
 269.803710938 211.84375 l 5,38,-1
 269.803710938 189.34375 l 5,39,-1
 247.303710938 189.34375 l 5,40,-1
 210.50390625 189.34375 l 5,41,-1
 173.704101562 189.34375 l 5,42,-1
 151.204101562 189.34375 l 5,43,-1
 151.204101562 211.84375 l 5,44,-1
 151.204101562 301.083007812 l 5,45,-1
 151.204101562 336.963867188 l 5,46,-1
 151.204101562 358.89453125 l 5,47,-1
 173.126953125 359.456054688 l 5,48,-1
 209.0703125 360.377929688 l 6,49,50
 250.318359375 361.203125 250.318359375 361.203125 280.00390625 375.243164062 c 4,51,52
 308.665039062 388.798828125 308.665039062 388.798828125 323.646484375 410.1484375 c 4,53,54
 339.870117188 433.266601562 339.870117188 433.266601562 347.110351562 458.60546875 c 4,55,56
 354.431640625 484.229492188 354.431640625 484.229492188 353.607421875 512.209960938 c 4,57,58
 352.798828125 576.11328125 352.798828125 576.11328125 311.666992188 618.443359375 c 4,59,60
 271.044921875 660.249023438 271.044921875 660.249023438 215.446289062 659.466796875 c 4,61,62
 167.368164062 658.677734375 167.368164062 658.677734375 114.61328125 614.166992188 c 6,63,-1
 97.642578125 599.84765625 l 5,64,-1
 83.1005859375 616.627929688 l 5,65,-1
 59.0615234375 644.365234375 l 5,0,-1
210.50390625 134.18359375 m 5,66,-1
 247.303710938 134.18359375 l 5,67,-1
 269.803710938 134.18359375 l 5,68,-1
 269.803710938 111.68359375 l 5,69,-1
 269.803710938 22.443359375 l 5,70,-1
 269.803710938 -0.056640625 l 5,71,-1
 247.303710938 -0.056640625 l 5,72,-1
 210.50390625 -0.056640625 l 5,73,-1
 173.704101562 -0.056640625 l 5,74,-1
 151.204101562 -0.056640625 l 5,75,-1
 151.204101562 22.443359375 l 5,76,-1
 151.204101562 111.68359375 l 5,77,-1
 151.204101562 134.18359375 l 5,78,-1
 173.704101562 134.18359375 l 5,79,-1
 210.50390625 134.18359375 l 5,66,-1
EndSplineSet
EndChar

StartChar: at
Encoding: 64 64 35
Width: 832
VWidth: 940
Flags: W
LayerCount: 2
Fore
SplineSet
535.649414062 322.850585938 m 1,0,-1
 509.889648438 301.690429688 l 1,1,-1
 492.86328125 287.704101562 l 1,2,-1
 478.524414062 304.43359375 l 2,3,4
 474.233398438 309.439453125 474.233398438 309.439453125 469.974609375 312.98828125 c 0,5,6
 458.725585938 322.786132812 458.725585938 322.786132812 446.71875 326.681640625 c 128,-1,7
 434.7109375 330.577148438 434.7109375 330.577148438 419.758789062 329.31640625 c 0,8,9
 391.255859375 326.911132812 391.255859375 326.911132812 372.533203125 305.141601562 c 0,10,11
 350.516601562 274.666992188 350.516601562 274.666992188 352.859375 250.903320312 c 0,12,13
 354.064453125 238.67578125 354.064453125 238.67578125 359.807617188 227.146484375 c 128,-1,14
 365.55078125 215.6171875 365.55078125 215.6171875 376.219726562 204.41015625 c 0,15,16
 384.584960938 196.561523438 384.584960938 196.561523438 392.62109375 191.569335938 c 128,-1,17
 400.65625 186.576171875 400.65625 186.576171875 409.6015625 183.47265625 c 0,18,19
 417.723632812 180.655273438 417.723632812 180.655273438 426.110351562 180.4140625 c 128,-1,20
 434.497070312 180.172851562 434.497070312 180.172851562 444.516601562 182.640625 c 0,21,22
 463.827148438 187.556640625 463.827148438 187.556640625 481.537109375 205.266601562 c 2,23,-1
 497.170898438 220.899414062 l 1,24,-1
 513.075195312 205.54296875 l 1,25,-1
 539.8984375 179.645507812 l 1,26,-1
 565.797851562 153.74609375 l 1,27,-1
 581.512695312 138.03125 l 1,28,-1
 565.993164062 122.124023438 l 2,29,30
 545.500976562 101.120117188 545.500976562 101.120117188 521.715820312 87.453125 c 128,-1,31
 497.930664062 73.787109375 497.930664062 73.787109375 471.416992188 68.01171875 c 0,32,33
 445.857421875 62.353515625 445.857421875 62.353515625 420.936523438 63.28125 c 128,-1,34
 396.014648438 64.2099609375 396.014648438 64.2099609375 373.032226562 71.8701171875 c 0,35,36
 328.313476562 86.7763671875 328.313476562 86.7763671875 293.178710938 119.844726562 c 0,37,38
 286.63671875 126.38671875 286.63671875 126.38671875 280.83203125 133.26171875 c 128,-1,39
 275.026367188 140.13671875 275.026367188 140.13671875 269.930664062 147.37109375 c 128,-1,40
 264.834960938 154.606445312 264.834960938 154.606445312 260.418945312 162.250976562 c 128,-1,41
 256.002929688 169.896484375 256.002929688 169.896484375 252.259765625 177.9375 c 128,-1,42
 248.516601562 185.977539062 248.516601562 185.977539062 245.397460938 194.505859375 c 0,43,44
 229.599609375 237.685546875 229.599609375 237.685546875 237.397460938 287.58984375 c 0,45,46
 245.280273438 338.041015625 245.280273438 338.041015625 281.502929688 380.473632812 c 0,47,48
 331.616210938 441.026367188 331.616210938 441.026367188 410.09375 447.3046875 c 128,-1,49
 488.423828125 453.571289062 488.423828125 453.571289062 547.299804688 403.10546875 c 0,50,51
 558.815429688 392.63671875 558.815429688 392.63671875 569.012695312 380.400390625 c 2,52,-1
 583.416992188 363.115234375 l 1,53,-1
 566.131835938 348.7109375 l 1,54,-1
 539.314453125 326.36328125 l 1,55,-1
 537.274414062 324.323242188 l 1,56,-1
 536.498046875 323.546875 l 1,57,-1
 535.649414062 322.850585938 l 1,0,-1
524.127929688 409.65625 m 1,58,-1
 560.927734375 409.65625 l 1,59,-1
 583.427734375 409.65625 l 1,60,-1
 583.427734375 387.15625 l 1,61,-1
 583.427734375 164.3046875 l 1,62,63
 591.05078125 161.591796875 591.05078125 161.591796875 600.354492188 160.69140625 c 0,64,65
 607.231445312 160.025390625 607.231445312 160.025390625 619.271484375 167.25 c 0,66,67
 625.767578125 171.147460938 625.767578125 171.147460938 631.529296875 177.421875 c 128,-1,68
 637.291992188 183.696289062 637.291992188 183.696289062 642.564453125 193.110351562 c 0,69,70
 671.103515625 242.63671875 671.103515625 242.63671875 672.759765625 293.133789062 c 0,71,72
 673.598632812 318.7109375 673.598632812 318.7109375 669.067382812 341.778320312 c 128,-1,73
 664.537109375 364.844726562 664.537109375 364.844726562 654.649414062 385.856445312 c 0,74,75
 644.565429688 407.284179688 644.565429688 407.284179688 630.13671875 426.310546875 c 128,-1,76
 615.708007812 445.336914062 615.708007812 445.336914062 596.485351562 462.422851562 c 0,77,78
 582.307617188 475.311523438 582.307617188 475.311523438 567.163085938 485.620117188 c 128,-1,79
 552.017578125 495.928710938 552.017578125 495.928710938 535.432617188 504.008789062 c 128,-1,80
 519.043945312 511.993164062 519.043945312 511.993164062 501.629882812 517.34375 c 128,-1,81
 484.215820312 522.693359375 484.215820312 522.693359375 465.639648438 525.4375 c 0,82,83
 428.700195312 530.89453125 428.700195312 530.89453125 391.749023438 524.596679688 c 0,84,85
 373.625 521.506835938 373.625 521.506835938 355.0390625 514.510742188 c 128,-1,86
 336.453125 507.515625 336.453125 507.515625 317.34375 496.473632812 c 0,87,88
 278.990234375 474.314453125 278.990234375 474.314453125 245.53515625 437.428710938 c 0,89,90
 220.583984375 409.46484375 220.583984375 409.46484375 204.192382812 379.766601562 c 128,-1,91
 187.801757812 350.068359375 187.801757812 350.068359375 179.76953125 318.575195312 c 0,92,93
 171.640625 286.700195312 171.640625 286.700195312 170.900390625 256.995117188 c 128,-1,94
 170.16015625 227.2890625 170.16015625 227.2890625 176.65234375 200.020507812 c 0,95,96
 183.231445312 172.002929688 183.231445312 172.002929688 195.752929688 145.241210938 c 128,-1,97
 208.275390625 118.478515625 208.275390625 118.478515625 226.627929688 93.296875 c 0,98,99
 248.043945312 65.02734375 248.043945312 65.02734375 275.190429688 41.7587890625 c 0,100,101
 288.702148438 30.177734375 288.702148438 30.177734375 303.124023438 20.4560546875 c 128,-1,102
 317.546875 10.734375 317.546875 10.734375 332.931640625 2.828125 c 0,103,104
 337.993164062 0.2275390625 337.993164062 0.2275390625 343.166992188 -2.1376953125 c 128,-1,105
 348.340820312 -4.5029296875 348.340820312 -4.5029296875 353.640625 -6.6376953125 c 128,-1,106
 358.94140625 -8.7734375 358.94140625 -8.7734375 364.362304688 -10.673828125 c 128,-1,107
 369.784179688 -12.57421875 369.784179688 -12.57421875 375.333007812 -14.244140625 c 128,-1,108
 380.8828125 -15.9130859375 380.8828125 -15.9130859375 386.563476562 -17.3505859375 c 128,-1,109
 392.244140625 -18.787109375 392.244140625 -18.787109375 398.0546875 -19.9921875 c 0,110,111
 432.84375 -27.2041015625 432.84375 -27.2041015625 468.03515625 -25.0849609375 c 0,112,113
 502.765625 -22.9921875 502.765625 -22.9921875 540.478515625 -8.5849609375 c 0,114,115
 578.4296875 5.9130859375 578.4296875 5.9130859375 613.598632812 32.5029296875 c 2,116,-1
 630.611328125 45.3662109375 l 1,117,118
 615.359375 41.9931640625 615.359375 41.9931640625 600.18359375 42.1982421875 c 0,119,120
 560.849609375 42.7294921875 560.849609375 42.7294921875 525.576171875 60.900390625 c 0,121,122
 497.913085938 75.884765625 497.913085938 75.884765625 481.41015625 103.200195312 c 0,123,124
 475.92578125 112.27734375 475.92578125 112.27734375 472.224609375 122.146484375 c 128,-1,125
 468.524414062 132.014648438 468.524414062 132.014648438 466.67578125 142.404296875 c 128,-1,126
 464.827148438 152.793945312 464.827148438 152.793945312 464.827148438 163.595703125 c 2,127,-1
 464.827148438 387.15625 l 1,128,-1
 464.827148438 409.65625 l 1,129,-1
 487.327148438 409.65625 l 1,130,-1
 524.127929688 409.65625 l 1,58,-1
632.30078125 45.7509765625 m 1,131,-1
 645.364257812 27.7900390625 l 1,132,-1
 667.34765625 -2.4365234375 l 1,133,-1
 689.327148438 -31.744140625 l 1,134,-1
 702.94140625 -49.8974609375 l 1,135,-1
 684.673828125 -63.3583984375 l 2,136,137
 610.856445312 -117.75 610.856445312 -117.75 528.841796875 -135.325195312 c 0,138,139
 446.62109375 -152.943359375 446.62109375 -152.943359375 373.162109375 -135.6875 c 0,140,141
 300.7890625 -118.686523438 300.7890625 -118.686523438 238.150390625 -77.8994140625 c 128,-1,142
 175.323242188 -36.98828125 175.323242188 -36.98828125 131.56640625 23.296875 c 0,143,144
 80.037109375 92.328125 80.037109375 92.328125 61.501953125 174.272460938 c 0,145,146
 42.8369140625 256.791015625 42.8369140625 256.791015625 65.7666015625 348.020507812 c 128,-1,147
 88.7255859375 439.366210938 88.7255859375 439.366210938 156.806640625 516.202148438 c 0,148,149
 215.168945312 581.373046875 215.168945312 581.373046875 286.583984375 614.145507812 c 0,150,151
 358.364257812 647.0859375 358.364257812 647.0859375 428.306640625 646.09375 c 0,152,153
 497.1796875 645.116210938 497.1796875 645.116210938 560.724609375 620.67578125 c 128,-1,154
 624.313476562 596.21875 624.313476562 596.21875 675.2421875 551.166992188 c 0,155,156
 731.116210938 501.174804688 731.116210938 501.174804688 762.041992188 435.887695312 c 0,157,158
 793.342773438 369.806640625 793.342773438 369.806640625 790.876953125 289.40625 c 0,159,160
 788.403320312 208.75390625 788.403320312 208.75390625 745.111328125 133.977539062 c 0,161,162
 732.822265625 112.471679688 732.822265625 112.471679688 716.650390625 95.3818359375 c 128,-1,163
 700.478515625 78.291015625 700.478515625 78.291015625 680.791015625 66.216796875 c 0,164,165
 656.760742188 51.478515625 656.760742188 51.478515625 632.30078125 45.7509765625 c 1,131,-1
EndSplineSet
EndChar

StartChar: A
Encoding: 65 65 36
Width: 731
VWidth: 948
Flags: W
LayerCount: 2
Fore
SplineSet
83.9892578125 4.1318359375 m 5,0,-1
 49.94921875 18.8515625 l 5,1,-1
 29.3466796875 27.759765625 l 5,2,-1
 38.20703125 48.3837890625 l 5,3,-1
 313.423828125 689.0234375 l 6,4,5
 316.061523438 694.67578125 316.061523438 694.67578125 319.673828125 699.548828125 c 132,-1,6
 323.287109375 704.421875 323.287109375 704.421875 327.670898438 708.318359375 c 132,-1,7
 332.055664062 712.215820312 332.055664062 712.215820312 337.125 715.216796875 c 132,-1,8
 342.1953125 718.216796875 342.1953125 718.216796875 347.889648438 720.288085938 c 4,9,10
 371.692382812 728.944335938 371.692382812 728.944335938 394.282226562 717.611328125 c 4,11,12
 399.850585938 714.854492188 399.850585938 714.854492188 404.12109375 711.776367188 c 132,-1,13
 408.392578125 708.698242188 408.392578125 708.698242188 411.727539062 704.96875 c 132,-1,14
 415.063476562 701.23828125 415.063476562 701.23828125 417.564453125 697.055664062 c 132,-1,15
 420.06640625 692.874023438 420.06640625 692.874023438 422.323242188 687.478515625 c 6,16,-1
 697.7734375 50.2705078125 l 5,17,-1
 706.700195312 29.6201171875 l 5,18,-1
 686.05078125 20.69140625 l 5,19,-1
 652.010742188 5.9716796875 l 5,20,-1
 617.970703125 -8.748046875 l 5,21,-1
 597.291992188 -17.6904296875 l 5,22,-1
 588.376953125 2.9990234375 l 5,23,-1
 368.034179688 514.329101562 l 5,24,-1
 147.633789062 1.1826171875 l 5,25,-1
 138.732421875 -19.5419921875 l 5,26,-1
 118.029296875 -10.5888671875 l 5,27,-1
 83.9892578125 4.1318359375 l 5,0,-1
173.459960938 236.3828125 m 5,28,-1
 173.459960938 273.182617188 l 5,29,-1
 173.459960938 295.682617188 l 5,30,-1
 195.959960938 295.682617188 l 5,31,-1
 539.120117188 295.682617188 l 5,32,-1
 561.620117188 295.682617188 l 5,33,-1
 561.620117188 273.182617188 l 5,34,-1
 561.620117188 236.3828125 l 5,35,-1
 561.620117188 199.583007812 l 5,36,-1
 561.620117188 177.083007812 l 5,37,-1
 539.120117188 177.083007812 l 5,38,-1
 195.959960938 177.083007812 l 5,39,-1
 173.459960938 177.083007812 l 5,40,-1
 173.459960938 199.583007812 l 5,41,-1
 173.459960938 236.3828125 l 5,28,-1
EndSplineSet
EndChar

StartChar: B
Encoding: 66 66 37
Width: 593
VWidth: 949
Flags: W
LayerCount: 2
Fore
SplineSet
87.1318359375 101.36328125 m 1,0,-1
 87.591796875 674.69921875 l 1,1,-1
 87.591796875 685.739257812 l 2,2,3
 87.591796875 691.28125 87.591796875 691.28125 88.357421875 695.877929688 c 0,4,5
 91.2431640625 713.188476562 91.2431640625 713.188476562 107.39453125 717.2265625 c 0,6,7
 108.396484375 717.4765625 108.396484375 717.4765625 108.956054688 717.6640625 c 0,8,9
 113.799804688 719.278320312 113.799804688 719.278320312 122.051757812 719.278320312 c 2,10,-1
 123.08203125 719.306640625 l 1,11,-1
 124.879882812 719.907226562 l 1,12,-1
 127.602539062 720.125976562 l 2,13,14
 188.633789062 725.047851562 188.633789062 725.047851562 248.611328125 708.333007812 c 0,15,16
 268.673828125 702.7421875 268.673828125 702.7421875 286.395507812 695.37890625 c 128,-1,17
 304.116210938 688.016601562 304.116210938 688.016601562 319.922851562 678.584960938 c 128,-1,18
 335.729492188 669.15234375 335.729492188 669.15234375 349.159179688 657.7890625 c 0,19,20
 391.530273438 621.471679688 391.530273438 621.471679688 414.284179688 572.928710938 c 0,21,22
 437.579101562 523.232421875 437.579101562 523.232421875 432.416015625 467.46484375 c 0,23,24
 429.80859375 439.3046875 429.80859375 439.3046875 418.985351562 413.700195312 c 128,-1,25
 408.163085938 388.095703125 408.163085938 388.095703125 389.54296875 365.85546875 c 2,26,-1
 375.362304688 348.916992188 l 1,27,-1
 358.166015625 362.784179688 l 1,28,-1
 329.478515625 385.920898438 l 1,29,-1
 300.79296875 409.979492188 l 1,30,-1
 283.608398438 424.392578125 l 1,31,-1
 297.966796875 441.623046875 l 2,32,33
 312.064453125 458.540039062 312.064453125 458.540039062 314.517578125 479.923828125 c 0,34,35
 317.022460938 501.743164062 317.022460938 501.743164062 306.763671875 524.091796875 c 0,36,37
 296.026367188 547.481445312 296.026367188 547.481445312 273.186523438 566.383789062 c 0,38,39
 244.330078125 590.943359375 244.330078125 590.943359375 206.19140625 598.610351562 c 1,40,-1
 206.19140625 61.05859375 l 2,41,42
 206.19140625 46.9482421875 206.19140625 46.9482421875 198.759765625 33.5712890625 c 0,43,44
 191.580078125 20.6484375 191.580078125 20.6484375 178.458007812 11.669921875 c 0,45,46
 163.97265625 1.7587890625 163.97265625 1.7587890625 146.891601562 1.7587890625 c 2,47,-1
 109.171875 1.7587890625 l 1,48,-1
 86.671875 1.7587890625 l 1,49,-1
 86.671875 24.2587890625 l 1,50,-1
 86.671875 61.05859375 l 1,51,-1
 87.1318359375 101.36328125 l 1,0,-1
124.391601562 403.298828125 m 1,52,-1
 124.391601562 440.098632812 l 1,53,-1
 124.391601562 462.598632812 l 1,54,-1
 146.891601562 462.598632812 l 1,55,-1
 343.771484375 462.598632812 l 2,56,57
 367.694335938 462.598632812 367.694335938 462.598632812 390.0546875 457.504882812 c 128,-1,58
 412.415039062 452.411132812 412.415039062 452.411132812 433.018554688 442.25 c 128,-1,59
 453.62109375 432.088867188 453.62109375 432.088867188 472.172851562 416.97265625 c 0,60,61
 541.137695312 359.330078125 541.137695312 359.330078125 548.814453125 266.697265625 c 0,62,63
 550.725585938 243.633789062 550.725585938 243.633789062 548.037109375 221.120117188 c 128,-1,64
 545.349609375 198.607421875 545.349609375 198.607421875 538.149414062 176.955078125 c 128,-1,65
 530.950195312 155.303710938 530.950195312 155.303710938 519.370117188 134.495117188 c 128,-1,66
 507.791015625 113.686523438 507.791015625 113.686523438 491.870117188 93.78515625 c 0,67,68
 472.522460938 70.36328125 472.522460938 70.36328125 449.145507812 53.0849609375 c 0,69,70
 444.389648438 49.5703125 444.389648438 49.5703125 439.438476562 46.33984375 c 128,-1,71
 434.487304688 43.109375 434.487304688 43.109375 429.358398438 40.173828125 c 128,-1,72
 424.23046875 37.23828125 424.23046875 37.23828125 418.919921875 34.591796875 c 128,-1,73
 413.608398438 31.9462890625 413.608398438 31.9462890625 408.12890625 29.5966796875 c 128,-1,74
 402.649414062 27.248046875 402.649414062 27.248046875 397.000976562 25.193359375 c 0,75,76
 370.655273438 15.61328125 370.655273438 15.61328125 347.958007812 9.818359375 c 0,77,78
 324.100585938 3.7265625 324.100585938 3.7265625 291.432617188 2.2421875 c 0,79,80
 260.84375 0.8515625 260.84375 0.8515625 242.213867188 0.3857421875 c 0,81,82
 232.377929688 0.146484375 232.377929688 0.146484375 219.595703125 0.2626953125 c 128,-1,83
 206.8125 0.3798828125 206.8125 0.3798828125 190.409179688 0.84765625 c 0,84,85
 158.530273438 1.7587890625 158.530273438 1.7587890625 146.891601562 1.7587890625 c 2,86,-1
 124.391601562 1.7587890625 l 1,87,-1
 124.391601562 24.2587890625 l 1,88,-1
 124.391601562 61.05859375 l 1,89,-1
 124.391601562 97.8583984375 l 1,90,-1
 124.391601562 120.358398438 l 1,91,-1
 146.891601562 120.358398438 l 1,92,-1
 178.587890625 120.358398438 l 2,93,94
 191.350585938 119.885742188 191.350585938 119.885742188 203.272460938 119.774414062 c 128,-1,95
 215.1953125 119.6640625 215.1953125 119.6640625 227.434570312 119.89453125 c 128,-1,96
 239.625 120.120117188 239.625 120.120117188 251.231445312 120.571289062 c 128,-1,97
 262.837890625 121.022460938 262.837890625 121.022460938 273.856445312 121.697265625 c 0,98,99
 295.106445312 122.998046875 295.106445312 122.998046875 314.534179688 126.451171875 c 0,100,101
 333.615234375 129.84375 333.615234375 129.84375 349.997070312 135.3046875 c 0,102,103
 357.52734375 137.814453125 357.52734375 137.814453125 364.525390625 141.265625 c 128,-1,104
 371.5234375 144.716796875 371.5234375 144.716796875 378.083984375 149.154296875 c 0,105,106
 382.215820312 151.94921875 382.215820312 151.94921875 386.481445312 155.443359375 c 128,-1,107
 390.747070312 158.936523438 390.747070312 158.936523438 394.344726562 162.381835938 c 128,-1,108
 397.942382812 165.826171875 397.942382812 165.826171875 400.77734375 169.048828125 c 0,109,110
 433.80078125 213.515625 433.80078125 213.515625 430.360351562 257.087890625 c 0,111,112
 426.966796875 300.081054688 426.966796875 300.081054688 395.74609375 326.098632812 c 0,113,114
 373.548828125 343.999023438 373.548828125 343.999023438 343.771484375 343.999023438 c 2,115,-1
 146.891601562 343.999023438 l 1,116,-1
 124.391601562 343.999023438 l 1,117,-1
 124.391601562 366.499023438 l 1,118,-1
 124.391601562 403.298828125 l 1,52,-1
EndSplineSet
EndChar

StartChar: C
Encoding: 67 67 38
Width: 755
VWidth: 950
Flags: W
LayerCount: 2
Fore
SplineSet
660.196289062 573.100585938 m 5,0,-1
 631.365234375 549.849609375 l 5,1,-1
 614.21875 536.022460938 l 5,2,-1
 600.030273438 552.872070312 l 6,3,4
 596.641601562 556.895507812 596.641601562 556.895507812 593.178710938 560.67578125 c 132,-1,5
 589.715820312 564.455078125 589.715820312 564.455078125 586.158203125 568.012695312 c 132,-1,6
 582.599609375 571.5703125 582.599609375 571.5703125 578.947265625 574.907226562 c 132,-1,7
 575.295898438 578.245117188 575.295898438 578.245117188 571.513671875 581.396484375 c 4,8,9
 555.403320312 594.962890625 555.403320312 594.962890625 537.770507812 605.334960938 c 132,-1,10
 520.13671875 615.70703125 520.13671875 615.70703125 500.759765625 622.997070312 c 132,-1,11
 481.381835938 630.287109375 481.381835938 630.287109375 460.109375 634.541015625 c 4,12,13
 428.239257812 640.888671875 428.239257812 640.888671875 397.98828125 639.116210938 c 132,-1,14
 367.737304688 637.342773438 367.737304688 637.342773438 338.283203125 627.454101562 c 4,15,16
 279.84765625 607.836914062 279.84765625 607.836914062 238.84375 559.301757812 c 4,17,18
 216.239257812 532.431640625 216.239257812 532.431640625 202.634765625 504.282226562 c 132,-1,19
 189.03125 476.131835938 189.03125 476.131835938 184.03125 446.33984375 c 4,20,21
 178.884765625 415.237304688 178.884765625 415.237304688 179.724609375 387.616210938 c 132,-1,22
 180.564453125 359.99609375 180.564453125 359.99609375 187.26171875 334.881835938 c 4,23,24
 200.9765625 283.44921875 200.9765625 283.44921875 235.552734375 233.315429688 c 4,25,26
 266.384765625 188.779296875 266.384765625 188.779296875 308.194335938 159.341796875 c 4,27,28
 322.108398438 149.544921875 322.108398438 149.544921875 336.7578125 141.72265625 c 132,-1,29
 351.40625 133.900390625 351.40625 133.900390625 366.83203125 128.025390625 c 132,-1,30
 382.256835938 122.151367188 382.256835938 122.151367188 398.543945312 118.185546875 c 4,31,32
 422.057617188 112.381835938 422.057617188 112.381835938 447.874023438 112.486328125 c 132,-1,33
 473.689453125 112.591796875 473.689453125 112.591796875 501.518554688 118.751953125 c 4,34,35
 557.541015625 131.154296875 557.541015625 131.154296875 611.916992188 168.268554688 c 6,36,-1
 630.3203125 180.829101562 l 5,37,-1
 643.060546875 162.549804688 l 5,38,-1
 664.353515625 131.999023438 l 5,39,-1
 684.72265625 101.444335938 l 5,40,-1
 697.020507812 82.9990234375 l 5,41,-1
 678.758789062 70.4296875 l 6,42,43
 604.154296875 19.0791015625 604.154296875 19.0791015625 523.31640625 2.5224609375 c 4,44,45
 442.021484375 -14.12890625 442.021484375 -14.12890625 370.88671875 3.1611328125 c 4,46,47
 300.536132812 20.259765625 300.536132812 20.259765625 240.489257812 62.2451171875 c 132,-1,48
 180.639648438 104.08984375 180.639648438 104.08984375 137.77734375 165.4609375 c 4,49,50
 91.3564453125 234.125976562 91.3564453125 234.125976562 71.984375 308.708007812 c 4,51,52
 62.1318359375 346.637695312 62.1318359375 346.637695312 61.2705078125 387.603515625 c 132,-1,53
 60.41015625 428.569335938 60.41015625 428.569335938 68.4150390625 471.623046875 c 4,54,55
 84.66015625 559.745117188 84.66015625 559.745117188 147.391601562 635.21875 c 4,56,57
 210.40234375 709.060546875 210.40234375 709.060546875 299.555664062 739.10546875 c 4,58,59
 388.447265625 769.064453125 388.447265625 769.064453125 482.140625 750.9140625 c 4,60,61
 528.737304688 741.887695312 528.737304688 741.887695312 570.243164062 722.059570312 c 132,-1,62
 611.75 702.232421875 611.75 702.232421875 647.3671875 671.982421875 c 4,63,64
 659.061523438 662.236328125 659.061523438 662.236328125 669.952148438 651.344726562 c 132,-1,65
 680.842773438 640.453125 680.842773438 640.453125 690.646484375 628.688476562 c 6,66,-1
 704.774414062 611.734375 l 5,67,-1
 688.09765625 597.28125 l 5,68,-1
 660.196289062 573.100585938 l 5,0,-1
EndSplineSet
EndChar

StartChar: D
Encoding: 68 68 39
Width: 605
VWidth: 950
Flags: W
LayerCount: 2
Fore
SplineSet
84.728515625 102.110900043 m 1,0,-1
 84.268554688 699.959960938 l 2,1,2
 84.268554688 703.607933315 84.268554688 703.607933315 84.2906847896 705.314626663 c 128,-1,3
 84.3128148913 707.021320012 84.3128148913 707.021320012 84.4817004074 710.044872705 c 128,-1,4
 84.6505859235 713.068425397 84.6505859235 713.068425397 84.9965845891 715.069656341 c 128,-1,5
 85.3425832547 717.070887285 85.3425832547 717.070887285 86.0233771979 719.706477105 c 128,-1,6
 86.704171141 722.342066926 86.704171141 722.342066926 87.7170612816 724.874292277 c 0,7,8
 89.2008402656 728.584527306 89.2008402656 728.584527306 91.4119851792 731.916883582 c 128,-1,9
 93.6231300928 735.249239859 93.6231300928 735.249239859 97.9073632959 738.705424218 c 128,-1,10
 102.191596499 742.161608578 102.191596499 742.161608578 107.487719929 743.674327882 c 0,11,12
 111.881471103 744.929685362 111.881471103 744.929685362 115.378020113 745.19482315 c 128,-1,13
 118.874569123 745.459960938 118.874569123 745.459960938 125.168945312 745.459960938 c 0,14,15
 189.684024416 745.459960938 189.684024416 745.459960938 250.887303924 729.557052699 c 128,-1,16
 312.093317015 713.652411037 312.093317015 713.652411037 362.447247718 685.570648425 c 0,17,18
 413.022831719 657.365272519 413.022831719 657.365272519 451.118886952 619.270254139 c 0,19,20
 482.489161748 587.899979343 482.489161748 587.899979343 505.416974655 549.400831629 c 128,-1,21
 528.344787563 510.901683915 528.344787563 510.901683915 542.675410115 465.722915093 c 0,22,23
 571.482222802 374.907497151 571.482222802 374.907497151 554.890747141 280.236112267 c 0,24,25
 538.024235392 183.995364421 538.024235392 183.995364421 472.738027577 118.710214611 c 0,26,27
 459.956878498 105.929065532 459.956878498 105.929065532 446.461030803 94.7563272636 c 128,-1,28
 432.965183109 83.5835889951 432.965183109 83.5835889951 418.728696939 74.0126684851 c 128,-1,29
 404.49221077 64.4417479751 404.49221077 64.4417479751 389.591417144 56.5292541985 c 128,-1,30
 374.690623517 48.6167604219 374.690623517 48.6167604219 359.066850432 42.3537772666 c 128,-1,31
 343.443077346 36.0907941113 343.443077346 36.0907941113 327.205387962 31.5362536121 c 0,32,33
 291.856113481 21.6211964678 291.856113481 21.6211964678 251.504467122 16.158041112 c 128,-1,34
 211.152820763 10.6948857562 211.152820763 10.6948857562 165.878917224 9.6621684737 c 2,35,-1
 143.568359375 9.5400390625 l 1,36,-1
 107.688476562 9.5400390625 l 1,37,-1
 85.188476562 9.5400390625 l 1,38,-1
 85.188476562 32.0400390625 l 1,39,-1
 84.728515625 102.110900043 l 1,0,-1
202.868164062 131.769963046 m 1,40,41
 213.963675782 132.691455169 213.963675782 132.691455169 222.803756167 133.553857377 c 0,42,43
 240.633953352 135.293208669 240.633953352 135.293208669 261.236529804 139.238026483 c 0,44,45
 281.566440696 143.131554744 281.566440696 143.131554744 297.792502042 148.255287843 c 0,46,47
 313.806840985 153.312777119 313.806840985 153.312777119 329.896328724 160.933687619 c 0,48,49
 337.785187778 164.670538788 337.785187778 164.670538788 345.490862261 169.148222732 c 128,-1,50
 353.196536745 173.625906677 353.196536745 173.625906677 360.734739589 178.860905598 c 0,51,52
 375.359595243 189.016719973 375.359595243 189.016719973 388.778919281 203.274696121 c 0,53,54
 428.109824052 241.786279523 428.109824052 241.786279523 438.812635569 302.298631761 c 0,55,56
 442.494073565 323.113019866 442.494073565 323.113019866 442.83208928 343.919191936 c 128,-1,57
 443.170104995 364.725364007 443.170104995 364.725364007 440.141276765 385.746525507 c 128,-1,58
 437.112448535 406.767687007 437.112448535 406.767687007 430.689412864 428.034883242 c 0,59,60
 421.086338369 459.831448011 421.086338369 459.831448011 405.257392608 486.348027221 c 128,-1,61
 389.428446848 512.864606431 389.428446848 512.864606431 366.891419558 534.976440857 c 0,62,63
 296.122311341 606.507254175 296.122311341 606.507254175 202.868164062 622.031818442 c 1,64,-1
 202.868164062 131.769963046 l 1,40,41
EndSplineSet
EndChar

StartChar: E
Encoding: 69 69 40
Width: 635
VWidth: 949
Flags: W
LayerCount: 2
Fore
SplineSet
150.16015625 6.671875 m 5,0,-1
 114.483398438 4.888671875 l 5,1,-1
 90.8603515625 3.70703125 l 5,2,-1
 90.8603515625 27.3603515625 l 5,3,-1
 90.8603515625 679.639648438 l 6,4,5
 91 683 91 683 90.8447265625 682.86328125 c 4,6,7
 91 686 91 686 90.8505859375 686.52734375 c 4,8,9
 91 687 91 687 90.99609375 690.053710938 c 132,-1,10
 91 693 91 693 91.357421875 694.001953125 c 4,11,12
 92 695 92 695 92.0576171875 697.717773438 c 4,13,14
 93 700 93 700 93.1728515625 701.759765625 c 4,15,16
 95 704 95 704 94.32421875 705.475585938 c 4,17,18
 91 709 91 709 91.08984375 709.420898438 c 4,19,20
 92 711 92 711 94.08984375 712.9453125 c 132,-1,21
 96 715 96 715 97.904296875 716.529296875 c 4,22,23
 109.182617188 725.139648438 109.182617188 725.139648438 130.360351562 725.139648438 c 6,24,-1
 492.400390625 725.139648438 l 5,25,-1
 514.900390625 725.139648438 l 5,26,-1
 514.900390625 702.639648438 l 5,27,-1
 514.900390625 629.040039062 l 5,28,-1
 514.900390625 606.540039062 l 5,29,-1
 492.400390625 606.540039062 l 5,30,-1
 209.459960938 606.540039062 l 5,31,-1
 209.459960938 27.3603515625 l 5,32,-1
 209.459960938 3.70703125 l 5,33,-1
 185.836914062 4.888671875 l 5,34,-1
 150.16015625 6.671875 l 5,0,-1
127.66015625 383.400390625 m 5,35,-1
 127.66015625 420.200195312 l 5,36,-1
 127.66015625 442.700195312 l 5,37,-1
 150.16015625 442.700195312 l 5,38,-1
 450.080078125 442.700195312 l 5,39,-1
 472.580078125 442.700195312 l 5,40,-1
 472.580078125 420.200195312 l 5,41,-1
 472.580078125 383.400390625 l 5,42,-1
 472.580078125 346.599609375 l 5,43,-1
 472.580078125 324.099609375 l 5,44,-1
 450.080078125 324.099609375 l 5,45,-1
 150.16015625 324.099609375 l 5,46,-1
 127.66015625 324.099609375 l 5,47,-1
 127.66015625 346.599609375 l 5,48,-1
 127.66015625 383.400390625 l 5,35,-1
127.66015625 66 m 5,49,-1
 127.66015625 102.799804688 l 5,50,-1
 127.66015625 125.299804688 l 5,51,-1
 150.16015625 125.299804688 l 5,52,-1
 535.639648438 125.299804688 l 5,53,-1
 558.139648438 125.299804688 l 5,54,-1
 558.139648438 102.799804688 l 5,55,-1
 558.139648438 29.2001953125 l 5,56,-1
 558.139648438 6.7001953125 l 5,57,-1
 535.639648438 6.7001953125 l 5,58,-1
 150.16015625 6.7001953125 l 5,59,-1
 127.66015625 6.7001953125 l 5,60,-1
 127.66015625 29.2001953125 l 5,61,-1
 127.66015625 66 l 5,49,-1
EndSplineSet
EndChar

StartChar: F
Encoding: 70 70 41
Width: 553
VWidth: 949
Flags: W
LayerCount: 2
Fore
SplineSet
158.3203125 1.8203125 m 1,0,-1
 121.51953125 1.8203125 l 1,1,-1
 99.01953125 1.8203125 l 1,2,-1
 99.01953125 24.3203125 l 1,3,-1
 99.01953125 681.6796875 l 2,4,5
 99 719 99 719 99.3466796875 719.196289062 c 0,6,7
 110.245117188 727.1796875 110.245117188 727.1796875 130.51953125 727.1796875 c 2,8,-1
 501.48046875 727.1796875 l 1,9,-1
 524.708007812 727.1796875 l 1,10,-1
 523.107421875 698.407226562 l 1,11,-1
 523.978515625 631.372070312 l 1,12,-1
 524.274414062 608.580078125 l 1,13,-1
 501.48046875 608.580078125 l 1,14,-1
 217.620117188 608.580078125 l 1,15,-1
 217.620117188 24.3203125 l 1,16,-1
 217.620117188 1.8203125 l 1,17,-1
 195.120117188 1.8203125 l 1,18,-1
 158.3203125 1.8203125 l 1,0,-1
135.8203125 385.440429688 m 1,19,-1
 135.8203125 422.240234375 l 1,20,-1
 135.8203125 444.740234375 l 1,21,-1
 158.3203125 444.740234375 l 1,22,-1
 429.719726562 444.740234375 l 1,23,-1
 452.219726562 444.740234375 l 1,24,-1
 452.219726562 422.240234375 l 1,25,-1
 452.219726562 385.440429688 l 1,26,-1
 452.219726562 348.639648438 l 1,27,-1
 452.219726562 326.139648438 l 1,28,-1
 429.719726562 326.139648438 l 1,29,-1
 158.3203125 326.139648438 l 1,30,-1
 135.8203125 326.139648438 l 1,31,-1
 135.8203125 348.639648438 l 1,32,-1
 135.8203125 385.440429688 l 1,19,-1
EndSplineSet
EndChar

StartChar: G
Encoding: 71 71 42
Width: 776
VWidth: 950
Flags: W
LayerCount: 2
Fore
SplineSet
421.5 360.700195312 m 1,0,-1
 421.5 397.5 l 1,1,-1
 421.5 420 l 1,2,-1
 444 420 l 1,3,-1
 682.16015625 420 l 1,4,-1
 704.66015625 420 l 1,5,-1
 704.66015625 397.5 l 1,6,-1
 704.66015625 360.700195312 l 1,7,-1
 704.66015625 323.899414062 l 1,8,-1
 704.66015625 301.399414062 l 1,9,-1
 682.16015625 301.399414062 l 1,10,-1
 444 301.399414062 l 1,11,-1
 421.5 301.399414062 l 1,12,-1
 421.5 323.899414062 l 1,13,-1
 421.5 360.700195312 l 1,0,-1
645.700195312 90.279296875 m 1,14,-1
 608.899414062 90.279296875 l 1,15,-1
 586.399414062 90.279296875 l 1,16,-1
 586.399414062 112.779296875 l 1,17,-1
 586.399414062 344.5 l 1,18,-1
 586.399414062 367 l 1,19,-1
 608.899414062 367 l 1,20,-1
 645.700195312 367 l 1,21,-1
 682.5 367 l 1,22,-1
 705 367 l 1,23,-1
 705 344.5 l 1,24,-1
 705 112.779296875 l 1,25,-1
 705 90.279296875 l 1,26,-1
 682.5 90.279296875 l 1,27,-1
 645.700195312 90.279296875 l 1,14,-1
669.196289062 577.100585938 m 1,28,-1
 640.365234375 553.849609375 l 1,29,-1
 623.21875 540.022460938 l 1,30,-1
 609.030273438 556.872070312 l 2,31,32
 605.641601562 560.895507812 605.641601562 560.895507812 602.178710938 564.67578125 c 128,-1,33
 598.715820312 568.455078125 598.715820312 568.455078125 595.158203125 572.012695312 c 128,-1,34
 591.599609375 575.5703125 591.599609375 575.5703125 587.947265625 578.907226562 c 128,-1,35
 584.295898438 582.245117188 584.295898438 582.245117188 580.513671875 585.396484375 c 0,36,37
 564.403320312 598.962890625 564.403320312 598.962890625 546.770507812 609.334960938 c 128,-1,38
 529.13671875 619.70703125 529.13671875 619.70703125 509.759765625 626.997070312 c 128,-1,39
 490.381835938 634.287109375 490.381835938 634.287109375 469.109375 638.541015625 c 0,40,41
 437.239257812 644.888671875 437.239257812 644.888671875 406.98828125 643.116210938 c 128,-1,42
 376.737304688 641.342773438 376.737304688 641.342773438 347.283203125 631.454101562 c 0,43,44
 288.84765625 611.836914062 288.84765625 611.836914062 247.84375 563.301757812 c 0,45,46
 225.239257812 536.431640625 225.239257812 536.431640625 211.634765625 508.282226562 c 128,-1,47
 198.03125 480.131835938 198.03125 480.131835938 193.03125 450.33984375 c 0,48,49
 187.884765625 419.237304688 187.884765625 419.237304688 188.724609375 391.616210938 c 128,-1,50
 189.564453125 363.99609375 189.564453125 363.99609375 196.26171875 338.881835938 c 0,51,52
 209.9765625 287.44921875 209.9765625 287.44921875 244.552734375 237.315429688 c 0,53,54
 275.384765625 192.779296875 275.384765625 192.779296875 317.194335938 163.341796875 c 0,55,56
 331.108398438 153.544921875 331.108398438 153.544921875 345.7578125 145.72265625 c 128,-1,57
 360.40625 137.900390625 360.40625 137.900390625 375.83203125 132.025390625 c 128,-1,58
 391.256835938 126.151367188 391.256835938 126.151367188 407.543945312 122.185546875 c 0,59,60
 431.057617188 116.381835938 431.057617188 116.381835938 456.874023438 116.486328125 c 128,-1,61
 482.689453125 116.591796875 482.689453125 116.591796875 510.518554688 122.751953125 c 0,62,63
 566.541015625 135.154296875 566.541015625 135.154296875 620.916992188 172.268554688 c 2,64,-1
 639.3203125 184.829101562 l 1,65,-1
 652.060546875 166.549804688 l 1,66,-1
 673.353515625 135.999023438 l 1,67,-1
 693.72265625 105.444335938 l 1,68,-1
 706.020507812 86.9990234375 l 1,69,-1
 687.758789062 74.4296875 l 2,70,71
 613.154296875 23.0791015625 613.154296875 23.0791015625 532.31640625 6.5224609375 c 0,72,73
 451.021484375 -10.12890625 451.021484375 -10.12890625 379.88671875 7.1611328125 c 0,74,75
 309.536132812 24.259765625 309.536132812 24.259765625 249.489257812 66.2451171875 c 128,-1,76
 189.639648438 108.08984375 189.639648438 108.08984375 146.77734375 169.4609375 c 0,77,78
 100.356445312 238.125976562 100.356445312 238.125976562 80.984375 312.708007812 c 0,79,80
 71.1318359375 350.637695312 71.1318359375 350.637695312 70.2705078125 391.603515625 c 128,-1,81
 69.41015625 432.569335938 69.41015625 432.569335938 77.4150390625 475.623046875 c 0,82,83
 93.66015625 563.745117188 93.66015625 563.745117188 156.391601562 639.21875 c 0,84,85
 219.40234375 713.060546875 219.40234375 713.060546875 308.555664062 743.10546875 c 0,86,87
 397.447265625 773.064453125 397.447265625 773.064453125 491.140625 754.9140625 c 0,88,89
 537.737304688 745.887695312 537.737304688 745.887695312 579.243164062 726.059570312 c 128,-1,90
 620.75 706.232421875 620.75 706.232421875 656.3671875 675.982421875 c 0,91,92
 668.061523438 666.236328125 668.061523438 666.236328125 678.952148438 655.344726562 c 128,-1,93
 689.842773438 644.453125 689.842773438 644.453125 699.646484375 632.688476562 c 2,94,-1
 713.774414062 615.734375 l 1,95,-1
 697.09765625 601.28125 l 1,96,-1
 669.196289062 577.100585938 l 1,28,-1
EndSplineSet
EndChar

StartChar: H
Encoding: 72 72 43
Width: 629
VWidth: 949
Flags: W
LayerCount: 2
Fore
SplineSet
145.919921875 6.7001953125 m 1,0,-1
 109.120117188 6.7001953125 l 1,1,-1
 86.620117188 6.7001953125 l 1,2,-1
 86.620117188 29.2001953125 l 1,3,-1
 86.620117188 700.799804688 l 1,4,-1
 86.620117188 723.299804688 l 1,5,-1
 109.120117188 723.299804688 l 1,6,-1
 145.919921875 723.299804688 l 1,7,-1
 182.719726562 723.299804688 l 1,8,-1
 205.219726562 723.299804688 l 1,9,-1
 205.219726562 700.799804688 l 1,10,-1
 205.219726562 29.2001953125 l 1,11,-1
 205.219726562 6.7001953125 l 1,12,-1
 182.719726562 6.7001953125 l 1,13,-1
 145.919921875 6.7001953125 l 1,0,-1
123.419921875 384.3203125 m 1,14,-1
 123.419921875 421.120117188 l 1,15,-1
 123.419921875 443.620117188 l 1,16,-1
 145.919921875 443.620117188 l 1,17,-1
 489.080078125 443.620117188 l 1,18,-1
 511.580078125 443.620117188 l 1,19,-1
 511.580078125 421.120117188 l 1,20,-1
 511.580078125 384.3203125 l 1,21,-1
 511.580078125 347.51953125 l 1,22,-1
 511.580078125 325.01953125 l 1,23,-1
 489.080078125 325.01953125 l 1,24,-1
 145.919921875 325.01953125 l 1,25,-1
 123.419921875 325.01953125 l 1,26,-1
 123.419921875 347.51953125 l 1,27,-1
 123.419921875 384.3203125 l 1,14,-1
489.080078125 723.299804688 m 1,28,-1
 525.879882812 723.299804688 l 1,29,-1
 548.379882812 723.299804688 l 1,30,-1
 548.379882812 700.799804688 l 1,31,-1
 548.379882812 29.2001953125 l 1,32,-1
 548.379882812 6.7001953125 l 1,33,-1
 525.879882812 6.7001953125 l 1,34,-1
 489.080078125 6.7001953125 l 1,35,-1
 452.280273438 6.7001953125 l 1,36,-1
 429.780273438 6.7001953125 l 1,37,-1
 429.780273438 29.2001953125 l 1,38,-1
 429.780273438 700.799804688 l 1,39,-1
 429.780273438 723.299804688 l 1,40,-1
 452.280273438 723.299804688 l 1,41,-1
 489.080078125 723.299804688 l 1,28,-1
EndSplineSet
EndChar

StartChar: I
Encoding: 73 73 44
Width: 296
VWidth: 949
Flags: W
LayerCount: 2
Fore
SplineSet
148 6.7001953125 m 5,0,-1
 111.200195312 6.7001953125 l 5,1,-1
 88.700195312 6.7001953125 l 5,2,-1
 88.700195312 29.2001953125 l 5,3,-1
 88.700195312 700.799804688 l 5,4,-1
 88.700195312 723.299804688 l 5,5,-1
 111.200195312 723.299804688 l 5,6,-1
 148 723.299804688 l 5,7,-1
 184.799804688 723.299804688 l 5,8,-1
 207.299804688 723.299804688 l 5,9,-1
 207.299804688 700.799804688 l 5,10,-1
 207.299804688 29.2001953125 l 5,11,-1
 207.299804688 6.7001953125 l 5,12,-1
 184.799804688 6.7001953125 l 5,13,-1
 148 6.7001953125 l 5,0,-1
EndSplineSet
EndChar

StartChar: J
Encoding: 74 74 45
Width: 405
VWidth: 949
Flags: W
LayerCount: 2
Fore
SplineSet
204.120117188 624.532226562 m 5,0,-1
 203.66015625 664.83203125 l 5,1,-1
 203.66015625 701.6328125 l 5,2,-1
 203.66015625 724.1328125 l 5,3,-1
 226.16015625 724.1328125 l 5,4,-1
 292.280273438 724.1328125 l 6,5,6
 299.325195312 723.934570312 299.325195312 723.934570312 304.200195312 723.446289062 c 6,7,-1
 306.540039062 723.211914062 l 6,8,9
 308.10546875 719.333984375 308.10546875 719.333984375 311.123046875 718.787109375 c 4,10,11
 321 717 321 717 320.650390625 716.768554688 c 4,12,13
 323 706 323 706 323.1796875 705.65234375 c 6,14,-1
 323.1796875 700.592773438 l 5,15,-1
 323.1796875 693.232421875 l 5,16,-1
 323.1796875 237.032226562 l 6,17,18
 323 224 323 224 322.1640625 214.768554688 c 4,19,20
 321 204 321 204 319.151367188 192.607421875 c 4,21,22
 304 106 304 106 238.010742188 49.2607421875 c 4,23,24
 170.301757812 -8.7412109375 170.301757812 -8.7412109375 82.365234375 6.962890625 c 6,25,-1
 60.1962890625 10.921875 l 5,26,-1
 64.173828125 33.0869140625 l 5,27,-1
 70.259765625 66.9951171875 l 5,28,-1
 70.259765625 69.3505859375 l 5,29,-1
 70.4853515625 70.93359375 l 6,30,31
 71.0849609375 72.1767578125 71.0849609375 72.1767578125 73.3505859375 87.2763671875 c 6,32,-1
 76.029296875 105.130859375 l 5,33,-1
 79.4921875 128.20703125 l 5,34,-1
 102.426757812 123.90625 l 6,35,36
 119 121 119 121 134.610351562 124.837890625 c 4,37,38
 150 129 150 129 164.2265625 141.491210938 c 4,39,40
 199 171 199 171 202.217773438 213.671875 c 4,41,42
 203 224 203 224 204.034179688 225.033203125 c 4,43,44
 204.59375 225.592773438 204.59375 225.592773438 204.580078125 237.032226562 c 6,45,-1
 204.120117188 624.532226562 l 5,0,-1
EndSplineSet
EndChar

StartChar: K
Encoding: 75 75 46
Width: 630
VWidth: 948
Flags: W
LayerCount: 2
Fore
SplineSet
152.200195312 7.259765625 m 1,0,-1
 115.400390625 7.259765625 l 1,1,-1
 92.900390625 7.259765625 l 1,2,-1
 92.900390625 29.759765625 l 1,3,-1
 92.900390625 701.360351562 l 1,4,-1
 92.900390625 723.860351562 l 1,5,-1
 115.400390625 723.860351562 l 1,6,-1
 152.200195312 723.860351562 l 1,7,-1
 189 723.860351562 l 1,8,-1
 211.5 723.860351562 l 1,9,-1
 211.5 701.360351562 l 1,10,-1
 211.5 29.759765625 l 1,11,-1
 211.5 7.259765625 l 1,12,-1
 189 7.259765625 l 1,13,-1
 152.200195312 7.259765625 l 1,0,-1
137.0078125 323.203125 m 1,14,-1
 110.1875 348.171875 l 1,15,-1
 93.76171875 363.463867188 l 1,16,-1
 109.012695312 379.928710938 l 1,17,-1
 420.893554688 716.649414062 l 1,18,-1
 436.22265625 733.200195312 l 1,19,-1
 452.732421875 717.827148438 l 1,20,-1
 479.2734375 693.116210938 l 1,21,-1
 506.731445312 668.403320312 l 1,22,-1
 523.696289062 653.134765625 l 1,23,-1
 508.186523438 636.390625 l 1,24,-1
 196.306640625 299.670898438 l 1,25,-1
 181.234375 283.397460938 l 1,26,-1
 164.748046875 298.236328125 l 1,27,-1
 137.0078125 323.203125 l 1,14,-1
223.922851562 425.78515625 m 1,28,-1
 251.544921875 449.72265625 l 1,29,-1
 268.479492188 464.399414062 l 1,30,-1
 283.223632812 447.524414062 l 1,31,-1
 601.54296875 83.205078125 l 1,32,-1
 616.407226562 66.1923828125 l 1,33,-1
 599.3359375 51.3974609375 l 1,34,-1
 571.895507812 27.615234375 l 1,35,-1
 544.452148438 2.916015625 l 1,36,-1
 527.504882812 -12.337890625 l 1,37,-1
 512.477539062 4.8115234375 l 1,38,-1
 193.237304688 369.131835938 l 1,39,-1
 178.365234375 386.104492188 l 1,40,-1
 195.3828125 400.926757812 l 1,41,-1
 223.922851562 425.78515625 l 1,28,-1
EndSplineSet
EndChar

StartChar: L
Encoding: 76 76 47
Width: 620
VWidth: 949
Flags: W
LayerCount: 2
Fore
SplineSet
149.919921875 44.4599609375 m 1,0,-1
 113.120117188 44.4599609375 l 1,1,-1
 90.620117188 44.4599609375 l 1,2,-1
 90.620117188 66.9599609375 l 1,3,-1
 90.620117188 700.83984375 l 1,4,-1
 90.620117188 723.33984375 l 1,5,-1
 113.120117188 723.33984375 l 1,6,-1
 149.919921875 723.33984375 l 1,7,-1
 186.719726562 723.33984375 l 1,8,-1
 209.219726562 723.33984375 l 1,9,-1
 209.219726562 700.83984375 l 1,10,-1
 209.219726562 66.9599609375 l 1,11,-1
 209.219726562 44.4599609375 l 1,12,-1
 186.719726562 44.4599609375 l 1,13,-1
 149.919921875 44.4599609375 l 1,0,-1
90.620117188 66.9599609375 m 1,14,-1
 90.620117188 103.759765625 l 1,15,-1
 90.620117188 126.259765625 l 1,16,-1
 113.120117188 126.259765625 l 1,17,-1
 456.280273438 126.259765625 l 1,18,-1
 493.080078125 126.259765625 l 1,19,-1
 529.879882812 126.259765625 l 1,20,-1
 552.379882812 126.259765625 l 1,21,-1
 552.379882812 103.759765625 l 1,22,-1
 552.379882812 32.5595703125 l 1,23,-1
 552.379882812 27.0400390625 l 1,24,-1
 552.379882812 22.4404296875 l 2,25,26
 552 16 552 16 551.681640625 15.7646484375 c 0,27,28
 551 15 551 15 551.483398438 14.806640625 c 0,29,30
 552 15 552 15 551.350585938 14.0244140625 c 0,31,32
 538 -4 538 -4 538.102539062 -3.6650390625 c 0,33,34
 547.732580842 7.42086776714 547.732580842 7.42086776714 541.226074219 8.4765625 c 0,35,36
 538 9 538 9 534.481445312 8.3466796875 c 0,37,38
 526 8 526 8 523.48046875 7.66015625 c 2,39,-1
 113.120117188 7.66015625 l 1,40,-1
 90.620117188 7.66015625 l 1,41,-1
 90.620117188 30.16015625 l 1,42,-1
 90.620117188 66.9599609375 l 1,14,-1
EndSplineSet
EndChar

StartChar: M
Encoding: 77 77 48
Width: 805
VWidth: 949
Flags: W
LayerCount: 2
Fore
SplineSet
148.400390625 1.787109375 m 5,0,-1
 111.599609375 1.787109375 l 5,1,-1
 89.099609375 1.787109375 l 5,2,-1
 89.099609375 24.287109375 l 5,3,-1
 89.099609375 679.727539062 l 2,4,5
 89 705 89 705 101.146527413 716.229188726 c 0,6,7
 115 728 115 728 138.315585019 725.216647781 c 0,8,9
 140 725 140 725 140.917850263 725.117783104 c 0,10,11
 142 725 142 725 143.644181754 724.959938618 c 0,12,13
 144.117223706 725.013198153 144.117223706 725.013198153 147.242465223 724.710416144 c 2,14,-1
 158.481785207 723.621519857 l 2,15,16
 160 723 160 723 167.605000484 722.103869852 c 0,17,18
 176 720 176 720 183.023477674 716.742501949 c 0,19,20
 187 715 187 715 189.969403914 711.676369308 c 0,21,22
 193.08065791 708.928769672 193.08065791 708.928769672 195.641053498 705.08817629 c 2,23,-1
 196.213826237 704.229017181 l 1,24,-1
 196.705499246 703.32100802 l 1,25,-1
 404.897238086 318.837819931 l 1,26,-1
 609.692256667 704.088586505 l 1,27,-1
 610.218903012 705.079288865 l 1,28,-1
 610.841496263 706.012683308 l 1,29,-1
 617.786915914 714.4934391 l 2,30,31
 624 722 624 722 636.889635038 723.673999597 c 0,32,33
 640 724 640 724 643.398097614 724.541441733 c 0,34,35
 649 725 649 725 657.188835795 724.689857686 c 0,36,37
 664 724 664 724 669.857546588 722.949859265 c 0,38,39
 674 722 674 722 681.770521573 720.744544136 c 0,40,41
 690 720 690 720 691.200195312 719.70703125 c 2,42,-1
 693.428134367 719.70703125 l 1,43,-1
 695.612808352 719.270096453 l 2,44,45
 704 718 704 718 709.672150409 714.202985009 c 0,46,47
 713 712 713 712 714.683125736 710.837823336 c 0,48,49
 717 709 717 709 719.850502123 703.926893683 c 0,50,51
 723 699 723 699 722.900390625 692.147460938 c 0,52,53
 723 691 723 691 722.790947159 689.127822899 c 0,54,55
 722 688 722 688 722.64648365 687.232219568 c 0,56,57
 723 687 723 687 722.302813718 684.142243785 c 0,58,59
 722 683 722 683 722.058789136 681.471051429 c 128,-1,60
 722 680 722 680 721.98046875 679.727539062 c 2,61,-1
 721.98046875 24.287109375 l 5,62,-1
 721.98046875 1.787109375 l 5,63,-1
 699.48046875 1.787109375 l 5,64,-1
 662.6796875 1.787109375 l 5,65,-1
 625.879882812 1.787109375 l 5,66,-1
 603.379882812 1.787109375 l 5,67,-1
 603.379882812 24.287109375 l 5,68,-1
 603.379882812 433.627532361 l 1,69,-1
 456.979706746 166.535865599 l 2,70,71
 453 159 453 159 448.967675248 155.06167108 c 0,72,73
 441.970349949 147.969949962 441.970349949 147.969949962 438.8203125 145.607421875 c 2,74,-1
 438.17073051 145.120235383 l 1,75,-1
 437.487720939 144.681139306 l 2,76,77
 416 131 416 131 391.325310321 137.072742511 c 0,78,79
 379 140 379 140 368.770552318 147.778635003 c 0,80,81
 360.02932045 153.979201627 360.02932045 153.979201627 352.527677541 167.732239649 c 2,82,-1
 207.700195312 433.249792795 l 1,83,-1
 207.700195312 24.287109375 l 5,84,-1
 207.700195312 1.787109375 l 5,85,-1
 185.200195312 1.787109375 l 5,86,-1
 148.400390625 1.787109375 l 5,0,-1
EndSplineSet
EndChar

StartChar: N
Encoding: 78 78 49
Width: 716
VWidth: 949
Flags: W
LayerCount: 2
Fore
SplineSet
149.639648438 0.9267578125 m 1,0,-1
 112.83984375 0.9267578125 l 1,1,-1
 90.33984375 0.9267578125 l 1,2,-1
 90.33984375 23.4267578125 l 1,3,-1
 90.33984375 698.986328125 l 2,4,5
 90 705 90 705 90.8818359375 705.354492188 c 0,6,7
 91 709 91 709 92.453125 711.630859375 c 0,8,9
 93 715 93 715 95.0439453125 717.627929688 c 0,10,11
 97 721 97 721 98.5703125 723.157226562 c 0,12,13
 103 728 103 728 103.026367188 728.033203125 c 0,14,15
 106 722 106 722 108.32956473 723.067899598 c 0,16,17
 111 725 111 725 114.472765483 726.074821814 c 128,-1,18
 118 727 118 727 121.378790941 727.865358305 c 0,19,20
 129 729 129 729 155.665104493 726.121541752 c 0,21,22
 170 725 170 725 180.331910375 718.248999028 c 0,23,24
 192.428698698 709.696922525 192.428698698 709.696922525 198.425274802 701.0616229 c 2,25,-1
 519.059570312 239.3359375 l 5,26,-1
 519.059570312 701.946289062 l 1,27,-1
 519.059570312 724.446289062 l 1,28,-1
 541.559570312 724.446289062 l 1,29,-1
 578.360351562 724.446289062 l 1,30,-1
 615.16015625 724.446289062 l 1,31,-1
 637.66015625 724.446289062 l 1,32,-1
 637.66015625 701.946289062 l 1,33,-1
 637.66015625 44.9462890625 l 6,34,35
 638 26 638 26 631.168945312 24.0478515625 c 4,36,37
 631 24 631 24 630.334960938 22.8681640625 c 4,38,39
 628 19 628 19 625.549804688 17.076171875 c 4,40,41
 624 16 624 16 617.237304688 9.7333984375 c 4,42,43
 598 -8 598 -8 570.665039062 -4.4794921875 c 4,44,45
 558 -3 558 -3 547.568359375 3.5390625 c 4,46,47
 537.415413355 8.7853454552 537.415413355 8.7853454552 529.693359375 19.9052734375 c 6,48,-1
 208.940429688 481.796563922 l 1,49,-1
 208.940429688 23.4267578125 l 1,50,-1
 208.940429688 0.9267578125 l 1,51,-1
 186.440429688 0.9267578125 l 1,52,-1
 149.639648438 0.9267578125 l 1,0,-1
EndSplineSet
EndChar

StartChar: O
Encoding: 79 79 50
Width: 886
VWidth: 950
Flags: W
LayerCount: 2
Fore
SplineSet
198.830812673 617.920001909 m 5,0,-1
 227.351175164 594.000201915 l 5,1,-1
 244.695435955 579.453709061 l 5,2,-1
 230.044092577 562.197928175 l 6,3,4
 192.319373044 517.767224624 192.319373044 517.767224624 181.080403967 464.90218231 c 4,5,6
 175.242035375 437.440090324 175.242035375 437.440090324 173.953400657 412.200699011 c 132,-1,7
 172.664765938 386.961307699 172.664765938 386.961307699 175.838851972 364.576435205 c 4,8,9
 179.053028261 341.432091208 179.053028261 341.432091208 185.672821863 319.436755232 c 132,-1,10
 192.292615466 297.441419256 192.292615466 297.441419256 202.359749721 276.450450761 c 4,11,12
 222.443531246 234.573784119 222.443531246 234.573784119 255.948150503 199.351119554 c 4,13,14
 265.040367624 189.609753794 265.040367624 189.609753794 274.577337478 180.946470874 c 132,-1,15
 284.114307332 172.283187954 284.114307332 172.283187954 294.139534843 164.660741906 c 132,-1,16
 304.164762354 157.038295858 304.164762354 157.038295858 314.6689971 150.440302872 c 132,-1,17
 325.173231847 143.842309885 325.173231847 143.842309885 336.268939425 138.187548813 c 4,18,19
 358.483510892 126.866678872 358.483510892 126.866678872 381.635462096 119.751336531 c 132,-1,20
 404.787413301 112.635994189 404.787413301 112.635994189 429.075770543 109.653491207 c 4,21,22
 477.144330941 103.749879232 477.144330941 103.749879232 534.073671397 119.159912361 c 4,23,24
 561.985647103 126.714755567 561.985647103 126.714755567 587.487455085 141.197296589 c 132,-1,25
 612.989263066 155.67983761 612.989263066 155.67983761 636.433731888 177.419385783 c 6,26,-1
 652.602688607 192.412509158 l 5,27,-1
 667.918934321 176.549296143 l 5,28,-1
 693.820422515 149.722824937 l 5,29,-1
 718.80028016 122.893807724 l 5,30,-1
 734.050206917 106.514989506 l 5,31,-1
 717.753761407 91.1770686539 l 6,32,33
 651.093284052 28.4374285912 651.093284052 28.4374285912 569.299132404 6.26525412122 c 4,34,35
 529.260885209 -4.58867883613 529.260885209 -4.58867883613 491.675906266 -8.10496099058 c 132,-1,36
 454.090927323 -11.621243145 454.090927323 -11.621243145 418.327682109 -7.72174696833 c 4,37,38
 348.029339003 0.089525506859 348.029339003 0.089525506859 283.668958208 32.7577728951 c 132,-1,39
 219.460908978 65.3476666772 219.460908978 65.3476666772 169.760592573 117.972322142 c 4,40,41
 124.143307027 167.471579141 124.143307027 167.471579141 95.5462481368 227.090031082 c 4,42,43
 66.8162124201 286.983554736 66.8162124201 286.983554736 58.5432881782 353.650431258 c 4,44,45
 55.74362467 376.083459962 55.74362467 376.083459962 55.8691670293 399.561189232 c 132,-1,46
 55.9947093887 423.038918501 55.9947093887 423.038918501 58.9478981112 447.259682811 c 132,-1,47
 61.9010868337 471.480447122 61.9010868337 471.480447122 67.6815016518 496.690037087 c 4,48,49
 85.4203759234 574.048391201 85.4203759234 574.048391201 138.438487351 638.848420967 c 6,50,-1
 152.8609362 656.47588995 l 5,51,-1
 170.311426743 641.839801902 l 5,52,-1
 198.830812673 617.920001909 l 5,0,-1
661.442893633 118.470694362 m 5,53,-1
 635.545909429 145.292500733 l 5,54,-1
 620.189269149 161.197550867 l 5,55,-1
 635.822519299 176.830801016 l 6,56,57
 643 184 643 184 649.6357014 191.510005268 c 4,58,59
 683 229 683 229 695.359344942 274.071084654 c 4,60,61
 705 309 705 309 706.12109375 320.666015625 c 4,62,63
 709 343 709 343 709.352539062 362.481445312 c 4,64,65
 709 402 709 402 697.075195312 440.749023438 c 4,66,67
 686.537868898 474.128444249 686.537868898 474.128444249 661.7578125 513.083984375 c 4,68,69
 645 539 645 539 605.361313083 574.791921881 c 4,70,71
 574 603 574 603 539.354907284 621.135254591 c 4,72,73
 505 639 505 639 466.372561532 645.180479832 c 4,74,75
 428 651 428 651 390.471098574 645.186939495 c 4,76,77
 352 639 352 639 306.467343798 619.131463561 c 4,78,79
 262.84606763 599.932249103 262.84606763 599.932249103 228.928052865 561.050129806 c 6,80,-1
 213.906521879 543.830107825 l 5,81,-1
 196.921178639 559.116496058 l 5,82,-1
 169.31997154 583.956898859 l 5,83,-1
 141.720362166 608.797719172 l 5,84,-1
 125.114358145 623.743827881 l 5,85,-1
 139.942750054 640.455031561 l 6,86,87
 201 710 201 710 280.432791644 739.508835721 c 4,88,89
 358 769 358 769 429.253211655 766.692617024 c 4,90,91
 465 766 465 766 498.7228103 758.501754419 c 4,92,93
 533 751 533 751 565.516350786 737.876308656 c 4,94,95
 587 729 587 729 607.780691026 717.656971286 c 4,96,97
 628 706 628 706 647.646349023 692.702788793 c 4,98,99
 667 679 667 679 685.034311588 663.078796876 c 4,100,101
 742 612 742 612 775.850585938 552.897460938 c 4,102,103
 782 542 782 542 787.021484375 531.6171875 c 4,104,105
 792 521 792 521 796.905273438 509.857421875 c 4,106,107
 802 499 802 499 805.498046875 487.627929688 c 4,108,109
 809 476 809 476 812.796875 464.94140625 c 4,110,111
 816 453 816 453 818.795898438 441.805664062 c 4,112,113
 821 430 821 430 823.494140625 418.233398438 c 4,114,115
 835 348 835 348 816.7663441 263.72202184 c 4,116,117
 808 222 808 222 788.00009864 184.440706268 c 4,118,119
 776.236314389 162.418595344 776.236314389 162.418595344 738.406002792 112.7811504 c 4,120,121
 729.631623003 103.040333473 729.631623003 103.040333473 719.162832265 92.5715427353 c 6,122,-1
 703.253231254 76.6619417251 l 5,123,-1
 687.343328684 92.5712411688 l 5,124,-1
 661.442893633 118.470694362 l 5,53,-1
EndSplineSet
EndChar

StartChar: P
Encoding: 80 80 51
Width: 569
VWidth: 949
Flags: W
LayerCount: 2
Fore
SplineSet
204.186523438 382.191454828 m 1,0,1
 226.931783242 382.388112811 226.931783242 382.388112811 243.887641097 383.004641861 c 0,2,3
 268.176835614 383.888720541 268.176835614 383.888720541 296.152228028 387.440911901 c 0,4,5
 322.787451735 390.822820613 322.787451735 390.822820613 340.335872615 396.944926958 c 0,6,7
 345.858836579 398.871352059 345.858836579 398.871352059 351.147669419 401.342872757 c 128,-1,8
 356.436502258 403.814393454 356.436502258 403.814393454 361.568953073 406.877437648 c 128,-1,9
 366.701403888 409.940481841 366.701403888 409.940481841 371.659684981 413.594097909 c 0,10,11
 378.37771013 418.544320475 378.37771013 418.544320475 383.946812906 424.856677544 c 128,-1,12
 389.515915683 431.169034614 389.515915683 431.169034614 393.870340375 438.628733994 c 0,13,14
 398.943810265 448.136304615 398.943810265 448.136304615 401.836541448 456.848001407 c 128,-1,15
 404.72927263 465.559698199 404.72927263 465.559698199 405.644867906 473.589261607 c 128,-1,16
 406.560463182 481.618825015 406.560463182 481.618825015 405.828279271 490.158725997 c 0,17,18
 404.709660375 503.210467287 404.709660375 503.210467287 399.938152952 515.746591244 c 128,-1,19
 395.16664553 528.282715201 395.16664553 528.282715201 386.380158068 540.778702889 c 0,20,21
 368.664156196 565.976113176 368.664156196 565.976113176 338.035328849 582.902863091 c 0,22,23
 313.204808601 597.319953721 313.204808601 597.319953721 282.7108871 601.331975573 c 0,24,25
 255.121916259 604.962569769 255.121916259 604.962569769 204.186523438 605.605234441 c 1,26,-1
 204.186523438 382.191454828 l 1,0,1
204.186523438 263.045434432 m 1,27,-1
 204.186523438 24.240234375 l 1,28,-1
 204.186523438 1.740234375 l 1,29,-1
 181.686523438 1.740234375 l 1,30,-1
 144.88671875 1.740234375 l 1,31,-1
 108.086914062 1.740234375 l 1,32,-1
 85.5869140625 1.740234375 l 1,33,-1
 85.5869140625 24.240234375 l 1,34,-1
 85.586914062 322.799804688 l 1,35,-1
 85.5869140625 687.759765625 l 2,36,37
 86 694 86 694 85.369140625 694.072265625 c 0,38,39
 85 699 85 699 85.3046875 701.100585938 c 0,40,41
 85 704 85 704 86.1181640625 707.436523438 c 0,42,43
 88 715 88 715 88.6953125 714.932617188 c 0,44,45
 92 712 92 712 93.763406131 714.18284496 c 0,46,47
 97 717 97 717 99.7304861743 719.63835173 c 0,48,49
 103 722 103 722 105.363197179 723.019401713 c 0,50,51
 108 724 108 724 111.445004525 724.728220705 c 0,52,53
 115 725 115 725 116.719770085 725.377363602 c 0,54,55
 118 725 118 725 122.106932805 725.355034257 c 0,56,57
 126 725 126 725 126.486328125 725.259765625 c 0,58,59
 231 725 231 725 288.912600058 719.157614089 c 0,60,61
 320 716 320 716 346.436801768 707.773805903 c 0,62,63
 373 700 373 700 396.216585105 686.388711428 c 0,64,65
 417 674 417 674 434.832368881 659.839055016 c 0,66,67
 453 645 453 645 467.009923399 628.070883729 c 128,-1,68
 481 611 481 611 492.539130356 591.215939385 c 0,69,70
 504 572 504 572 511.170534219 549.516931443 c 0,71,72
 526 505 526 505 522.718007987 462.212360417 c 0,73,74
 519 419 519 419 496.625804644 379.862879724 c 0,75,76
 480 350 480 350 455.022885553 327.947324733 c 128,-1,77
 430 306 430 306 403.916009628 294.46979809 c 0,78,79
 389 288 389 288 349.404190094 275.299842296 c 0,80,81
 342 273 342 273 334.528498758 271.729130049 c 0,82,83
 327 270 327 270 319.671319764 268.957317676 c 0,84,85
 312 268 312 268 304.823277385 266.987743156 c 0,86,87
 297 266 297 266 290.008720608 265.828830707 c 0,88,89
 263 264 263 264 234.876457328 263.512486944 c 0,90,91
 220 263 220 263 204.186523438 263.045434432 c 1,27,-1
EndSplineSet
EndChar

StartChar: Q
Encoding: 81 81 52
Width: 882
VWidth: 950
Flags: W
LayerCount: 2
Fore
SplineSet
199.831054688 617.684570312 m 5,0,-1
 228.3515625 593.764648438 l 5,1,-1
 245.6953125 579.21875 l 5,2,-1
 231.043945312 561.962890625 l 6,3,4
 212.030273438 539.568359375 212.030273438 539.568359375 199.868164062 515.348632812 c 132,-1,5
 187.706054688 491.129882812 187.706054688 491.129882812 182.080078125 464.666015625 c 4,6,7
 170.481445312 410.108398438 170.481445312 410.108398438 176.838867188 364.33984375 c 4,8,9
 178.982421875 348.907226562 178.982421875 348.907226562 182.637695312 333.9921875 c 132,-1,10
 186.293945312 319.077148438 186.293945312 319.077148438 191.470703125 304.64453125 c 132,-1,11
 196.647460938 290.2109375 196.647460938 290.2109375 203.359375 276.21484375 c 132,-1,12
 210.071289062 262.219726562 210.071289062 262.219726562 218.19921875 249.073242188 c 132,-1,13
 226.326171875 235.926757812 226.326171875 235.926757812 236.00390625 223.442382812 c 132,-1,14
 245.682617188 210.958007812 245.682617188 210.958007812 256.948242188 199.114257812 c 4,15,16
 292.958984375 160.533203125 292.958984375 160.533203125 337.268554688 137.952148438 c 132,-1,17
 381.573242188 115.374023438 381.573242188 115.374023438 430.076171875 109.416992188 c 4,18,19
 478.14453125 103.513671875 478.14453125 103.513671875 535.073242188 118.923828125 c 4,20,21
 590.901367188 134.034179688 590.901367188 134.034179688 637.43359375 177.182617188 c 6,22,-1
 653.602539062 192.17578125 l 5,23,-1
 668.918945312 176.3125 l 5,24,-1
 694.8203125 149.486328125 l 5,25,-1
 719.799804688 122.657226562 l 5,26,-1
 735.05078125 106.278320312 l 5,27,-1
 718.75390625 90.9404296875 l 6,28,29
 685.603515625 59.740234375 685.603515625 59.740234375 648.396484375 38.427734375 c 132,-1,30
 611.190429688 17.1142578125 611.190429688 17.1142578125 570.298828125 6.029296875 c 4,31,32
 489.815429688 -15.7890625 489.815429688 -15.7890625 419.328125 -7.95703125 c 132,-1,33
 349.029296875 -0.146484375 349.029296875 -0.146484375 284.668945312 32.521484375 c 132,-1,34
 220.4609375 65.1123046875 220.4609375 65.1123046875 170.760742188 117.736328125 c 4,35,36
 125.143554688 167.235351562 125.143554688 167.235351562 96.5458984375 226.853515625 c 4,37,38
 86.9794921875 246.797851562 86.9794921875 246.797851562 79.669921875 267.540039062 c 132,-1,39
 72.361328125 288.282226562 72.361328125 288.282226562 67.328125 309.7578125 c 132,-1,40
 62.2958984375 331.233398438 62.2958984375 331.233398438 59.54296875 353.4140625 c 4,41,42
 51.2353515625 420.369140625 51.2353515625 420.369140625 68.681640625 496.454101562 c 4,43,44
 86.419921875 573.811523438 86.419921875 573.811523438 139.438476562 638.61328125 c 6,45,-1
 153.860351562 656.240234375 l 5,46,-1
 171.311523438 641.604492188 l 5,47,-1
 199.831054688 617.684570312 l 5,0,-1
662.443359375 118.234375 m 5,48,-1
 636.545898438 145.056640625 l 5,49,-1
 621.189453125 160.9609375 l 5,50,-1
 636.822265625 176.594726562 l 6,51,52
 646 185 646 185 650.635742188 191.2734375 c 4,53,54
 681.3515625 226.005859375 681.3515625 226.005859375 696.359375 273.8359375 c 4,55,56
 703 294 703 294 706.12109375 322.4296875 c 4,57,58
 709 344 709 344 709.352539062 364.245117188 c 4,59,60
 709 404 709 404 697.075195312 442.512695312 c 132,-1,61
 685 481 685 481 661.7578125 514.84765625 c 4,62,63
 644 540 644 540 606.361328125 574.555664062 c 4,64,65
 575 603 575 603 540.354492188 620.899414062 c 4,66,67
 506 639 506 639 467.373046875 644.944335938 c 4,68,69
 429 651 429 651 391.470703125 644.950195312 c 4,70,71
 372 642 372 642 351.267578125 635.250976562 c 4,72,73
 330 629 330 629 307.467773438 618.895507812 c 4,74,75
 286 610 286 610 266.5859375 595.125 c 4,76,77
 249.706054688 583.486328125 249.706054688 583.486328125 229.927734375 560.814453125 c 6,78,-1
 214.90625 543.594726562 l 5,79,-1
 197.920898438 558.880859375 l 5,80,-1
 170.3203125 583.721679688 l 5,81,-1
 142.720703125 608.561523438 l 5,82,-1
 126.114257812 623.506835938 l 5,83,-1
 140.942382812 640.21875 l 6,84,85
 203 710 203 710 281.432617188 739.272460938 c 4,86,87
 359 768 359 768 430.252929688 766.456054688 c 4,88,89
 501 765 501 765 566.515625 737.639648438 c 4,90,91
 627 713 627 713 686.034179688 662.84375 c 4,92,93
 700 651 700 651 712.01953125 637.883789062 c 4,94,95
 724 625 724 625 735.665039062 611.015625 c 4,96,97
 747 597 747 597 756.950195312 582.765625 c 4,98,99
 775 556 775 556 775.850585938 554.661132812 c 4,100,101
 794 523 794 523 805.498046875 489.392578125 c 4,102,103
 817 456 817 456 823.494140625 419.997070312 c 4,104,105
 836 345 836 345 817.766601562 263.485351562 c 4,106,107
 796.544921875 170.635742188 796.544921875 170.635742188 739.40625 112.545898438 c 4,108,109
 731 104 731 104 720.1640625 92.3359375 c 6,110,-1
 704.25390625 76.4248046875 l 5,111,-1
 688.34375 92.3349609375 l 5,112,-1
 662.443359375 118.234375 l 5,48,-1
426.223632812 359.547851562 m 5,113,-1
 455.799804688 382.655273438 l 5,114,-1
 473.518554688 396.498046875 l 5,115,-1
 487.373046875 378.7890625 l 5,116,-1
 732.092773438 65.9892578125 l 5,117,-1
 746.02734375 48.177734375 l 5,118,-1
 728.146484375 34.333984375 l 5,119,-1
 699.803710938 12.390625 l 5,120,-1
 671.458007812 -10.4697265625 l 5,121,-1
 653.740234375 -24.7578125 l 5,122,-1
 639.657226562 -6.876953125 l 5,123,-1
 394.016601562 305.002929688 l 5,124,-1
 380.25390625 322.4765625 l 5,125,-1
 397.568359375 336.439453125 l 5,126,-1
 426.223632812 359.547851562 l 5,113,-1
EndSplineSet
EndChar

StartChar: R
Encoding: 82 82 53
Width: 593
VWidth: 948
Flags: W
LayerCount: 2
Fore
SplineSet
214.193359375 381.711914062 m 1,0,1
 236.939453125 381.908203125 236.939453125 381.908203125 253.896484375 382.525390625 c 0,2,3
 265.997070312 382.96484375 265.997070312 382.96484375 279.0703125 384.073242188 c 128,-1,4
 292.142578125 385.180664062 292.142578125 385.180664062 306.158203125 386.959960938 c 0,5,6
 332.794921875 390.34375 332.794921875 390.34375 350.342773438 396.463867188 c 0,7,8
 366.91796875 402.247070312 366.91796875 402.247070312 381.666992188 413.11328125 c 0,9,10
 394.998046875 422.936523438 394.998046875 422.936523438 403.876953125 438.1484375 c 0,11,12
 418.080078125 464.760742188 418.080078125 464.760742188 416.26953125 490.479492188 c 0,13,14
 415.340820312 503.666015625 415.340820312 503.666015625 410.5703125 516.48046875 c 128,-1,15
 405.799804688 529.294921875 405.799804688 529.294921875 396.794921875 542.21484375 c 0,16,17
 392.198242188 548.810546875 392.198242188 548.810546875 387.018554688 554.696289062 c 128,-1,18
 381.83984375 560.58203125 381.83984375 560.58203125 375.87109375 565.958007812 c 128,-1,19
 369.90234375 571.334960938 369.90234375 571.334960938 363.112304688 576.170898438 c 128,-1,20
 356.321289062 581.006835938 356.321289062 581.006835938 348.600585938 585.388671875 c 0,21,22
 338.40234375 591.665039062 338.40234375 591.665039062 328.772460938 594.998046875 c 0,23,24
 324.326171875 596.537109375 324.326171875 596.537109375 318.02734375 597.797851562 c 128,-1,25
 311.728515625 599.05859375 311.728515625 599.05859375 303.9375 599.857421875 c 0,26,27
 286.249023438 601.671875 286.249023438 601.671875 275 602.571289062 c 0,28,29
 264.21484375 603.434570312 264.21484375 603.434570312 236.41015625 603.8828125 c 0,30,31
 224.237304688 604.079101562 224.237304688 604.079101562 214.193359375 604.359375 c 1,32,-1
 214.193359375 381.711914062 l 1,0,1
214.193359375 262.565429688 m 1,33,-1
 214.193359375 22.759765625 l 1,34,-1
 214.193359375 0.259765625 l 1,35,-1
 191.693359375 0.259765625 l 1,36,-1
 154.893554688 0.259765625 l 1,37,-1
 118.09375 0.259765625 l 1,38,-1
 95.59375 0.259765625 l 1,39,-1
 95.59375 22.759765625 l 1,40,-1
 95.59375 322.3203125 l 1,41,-1
 95.59375 689.280273438 l 2,42,43
 95.65234375 689.672851562 95.65234375 689.672851562 95.5830078125 691.516601562 c 0,44,45
 95 706 95 706 108.637695312 716.168945312 c 0,46,47
 118.7421875 724.780273438 118.7421875 724.780273438 141.09375 724.780273438 c 2,48,-1
 154.893554688 724.780273438 l 2,49,50
 180 725 180 725 180.432617188 724.744140625 c 0,51,52
 192 725 192 725 203.180664062 724.633789062 c 0,53,54
 214 725 214 725 223.169921875 724.448242188 c 0,55,56
 232 724 232 724 240.397460938 724.1875 c 0,57,58
 248 724 248 724 254.896484375 723.8515625 c 0,59,60
 289 723 289 723 331.615234375 714.720703125 c 0,61,62
 376 706 376 706 407.061523438 688.715820312 c 0,63,64
 492 640 492 640 521.7109375 550.19921875 c 0,65,66
 553 456 553 456 506.6328125 379.383789062 c 0,67,68
 498 365 498 365 487.977539062 351.482421875 c 0,69,70
 477 338 477 338 465.030273438 327.467773438 c 0,71,72
 457 320 457 320 448.58203125 314.297851562 c 0,73,74
 440 308 440 308 431.544921875 303.120117188 c 0,75,76
 423 298 423 298 413.923828125 293.989257812 c 0,77,78
 401 288 401 288 387.682617188 283.512695312 c 0,79,80
 374 279 374 279 359.41015625 274.819335938 c 0,81,82
 352 273 352 273 344.53515625 271.249023438 c 0,83,84
 337 270 337 270 329.677734375 268.477539062 c 0,85,86
 322 267 322 267 314.830078125 266.5078125 c 0,87,88
 307 266 307 266 300.016601562 265.349609375 c 0,89,90
 273 264 273 264 244.8828125 263.032226562 c 0,91,92
 230 263 230 263 214.193359375 262.565429688 c 1,33,-1
488.326171875 20.1533203125 m 1,93,-1
 456.916992188 -0.1708984375 l 1,94,-1
 438.39453125 -12.1552734375 l 1,95,-1
 426.046875 6.1279296875 l 1,96,-1
 234.6875 289.48828125 l 1,97,-1
 222.020507812 308.245117188 l 1,98,-1
 240.852539062 320.80078125 l 1,99,-1
 271.018554688 340.912109375 l 1,100,-1
 301.188476562 361.939453125 l 1,101,-1
 319.907226562 374.986328125 l 1,102,-1
 332.690429688 356.0859375 l 1,103,-1
 524.970703125 71.8056640625 l 1,104,-1
 537.661132812 53.0439453125 l 1,105,-1
 518.814453125 40.4794921875 l 1,106,-1
 488.326171875 20.1533203125 l 1,93,-1
EndSplineSet
EndChar

StartChar: S
Encoding: 83 83 54
Width: 648
VWidth: 949
Flags: W
LayerCount: 2
Fore
SplineSet
519.392454521 543.498616466 m 1,0,-1
 488.235021904 525.170886589 l 1,1,-1
 468.84190519 513.763277721 l 1,2,-1
 457.433846509 533.156129835 l 2,3,4
 441.070040945 560.973383428 441.070040945 560.973383428 423.938551145 574.990357472 c 0,5,6
 396.783730977 597.208255239 396.783730977 597.208255239 378.701626791 603.235889881 c 0,7,8
 338.944825983 616.199784846 338.944825983 616.199784846 302.918773668 619.201728246 c 0,9,10
 271.206172597 621.844177844 271.206172597 621.844177844 243.241009096 605.972621785 c 0,11,12
 218.174544924 591.64871077 218.174544924 591.64871077 205.381437794 557.031034181 c 0,13,14
 199.06093214 539.793735058 199.06093214 539.793735058 207.02596645 527.0494547 c 0,15,16
 217.984822847 509.51621502 217.984822847 509.51621502 248.357664028 491.132496964 c 0,17,18
 281.946963784 470.801958482 281.946963784 470.801958482 320.491927126 454.409532393 c 0,19,20
 361.044976192 437.163527192 361.044976192 437.163527192 416.303995605 410.229524206 c 0,21,22
 434.998627871 401.118000435 434.998627871 401.118000435 452.13510542 391.761795946 c 128,-1,23
 469.271582969 382.405591457 469.271582969 382.405591457 484.916890127 372.755634765 c 128,-1,24
 500.562197285 363.105678072 500.562197285 363.105678072 514.553712516 353.247958243 c 0,25,26
 585.674678426 303.971624105 585.674678426 303.971624105 596.52929537 236.912684853 c 128,-1,27
 607.383912314 169.853745601 607.383912314 169.853745601 557.189966088 95.0867556355 c 0,28,29
 554.112444647 90.4688399711 554.112444647 90.4688399711 549.776113515 86.1340427351 c 0,30,31
 537.475466761 73.8333959823 537.475466761 73.8333959823 523.776805124 62.8727157891 c 128,-1,32
 510.078143486 51.9120355958 510.078143486 51.9120355958 495.459136943 42.6534693902 c 0,33,34
 479.431947765 32.1354354329 479.431947765 32.1354354329 461.498934472 23.9750550133 c 128,-1,35
 443.565921179 15.8146745936 443.565921179 15.8146745936 424.036046857 10.111663731 c 128,-1,36
 404.506172535 4.40865286838 404.506172535 4.40865286838 383.449275412 1.07273603519 c 128,-1,37
 362.392378288 -2.263180798 362.392378288 -2.263180798 339.83931845 -3.23312737524 c 0,38,39
 255.725146434 -7.19109533301 255.725146434 -7.19109533301 179.110067452 31.8578194758 c 128,-1,40
 102.367642711 70.9711037226 102.367642711 70.9711037226 54.9151239072 145.115402011 c 2,41,-1
 42.5905448909 164.372488587 l 1,42,-1
 62.0425575031 176.387056272 l 1,43,-1
 93.1219524589 195.583295846 l 1,44,-1
 124.203995311 215.694292635 l 1,45,-1
 143.302790336 228.051775289 l 1,46,-1
 155.450182366 208.818673204 l 2,47,48
 185.264847656 161.612779153 185.264847656 161.612779153 233.106470103 137.278694763 c 0,49,50
 281.160194227 112.838054088 281.160194227 112.838054088 334.130963396 115.320852981 c 0,51,52
 391.662146948 117.822862948 391.662146948 117.822862948 431.698296208 143.15139514 c 0,53,54
 453.678256667 156.990405469 453.678256667 156.990405469 462.578149865 167.374270244 c 0,55,56
 472.890694678 179.159924043 472.890694678 179.159924043 479.794632444 197.186375064 c 0,57,58
 485.04407493 210.310777371 485.04407493 210.310777371 485.684152074 217.992382594 c 0,59,60
 485.922716258 220.855406059 485.922716258 220.855406059 482.846703857 225.198395967 c 0,61,62
 481.577213039 226.990553022 481.577213039 226.990553022 480.271711649 228.666487573 c 128,-1,63
 478.966210258 230.342422125 478.966210258 230.342422125 477.658729763 231.864981966 c 128,-1,64
 476.351249267 233.387541807 476.351249267 233.387541807 475.009368038 234.800253123 c 128,-1,65
 473.667486808 236.21296444 473.667486808 236.21296444 472.327698846 237.483152869 c 128,-1,66
 470.987910883 238.753341299 470.987910883 238.753341299 469.615332025 239.920055183 c 0,67,68
 461.573828888 246.754607312 461.573828888 246.754607312 445.077920697 258.085798971 c 0,69,70
 433.140113109 265.676876786 433.140113109 265.676876786 413.759015039 274.946136491 c 0,71,72
 403.482362361 279.861077958 403.482362361 279.861077958 392.858100972 284.558176632 c 128,-1,73
 382.233839582 289.255275306 382.233839582 289.255275306 371.264550685 293.732623371 c 0,74,75
 359.832583231 298.398328211 359.832583231 298.398328211 347.274273769 303.747067069 c 128,-1,76
 334.715964306 309.095805926 334.715964306 309.095805926 321.013181296 315.134378972 c 0,77,78
 293.91030601 327.078680084 293.91030601 327.078680084 268.64764901 338.101533936 c 0,79,80
 242.236163825 349.626675404 242.236163825 349.626675404 215.423867706 364.948858727 c 0,81,82
 201.974352213 372.634223312 201.974352213 372.634223312 189.897353237 380.484095586 c 128,-1,83
 177.820354261 388.33396786 177.820354261 388.33396786 167.086636154 396.383997496 c 0,84,85
 145.341294983 412.693527967 145.341294983 412.693527967 126.103313199 432.916918322 c 0,86,87
 104.900702664 455.207937225 104.900702664 455.207937225 95.0166368819 482.662768847 c 0,88,89
 85.6948387186 508.555797545 85.6948387186 508.555797545 83.6278721472 536.462040491 c 0,90,91
 81.3933897508 566.629924904 81.3933897508 566.629924904 94.4383102724 598.155822611 c 0,92,93
 117.539979932 655.406766741 117.539979932 655.406766741 150.072186186 684.266233506 c 0,94,95
 168.57695159 700.458107842 168.57695159 700.458107842 189.522437831 711.70783525 c 128,-1,96
 210.467924073 722.957562657 210.467924073 722.957562657 233.669291481 729.144557481 c 0,97,98
 256.363060517 735.196336288 256.363060517 735.196336288 280.115410188 736.965039982 c 128,-1,99
 303.86775986 738.733743677 303.86775986 738.733743677 328.230151165 736.227538194 c 0,100,101
 376.730047326 731.278998033 376.730047326 731.278998033 421.749611825 711.984598887 c 0,102,103
 436.557347273 705.638673302 436.557347273 705.638673302 450.107426933 698.458138386 c 128,-1,104
 463.657506593 691.27760347 463.657506593 691.27760347 476.097826412 683.152592292 c 128,-1,105
 488.53814623 675.027581114 488.53814623 675.027581114 499.685584495 666.042941559 c 0,106,107
 533.856775534 638.502434105 533.856775534 638.502434105 559.894355006 592.435456724 c 2,108,-1
 570.913576217 572.939703869 l 1,109,-1
 551.469894345 561.828860033 l 1,110,-1
 519.392454521 543.498616466 l 1,0,-1
EndSplineSet
EndChar

StartChar: T
Encoding: 84 84 55
Width: 564
VWidth: 949
Flags: W
LayerCount: 2
Fore
SplineSet
7.419921875 673.3203125 m 1,0,-1
 7.419921875 710.120117188 l 1,1,-1
 7.419921875 732.620117188 l 1,2,-1
 29.919921875 732.620117188 l 1,3,-1
 531.080078125 732.620117188 l 1,4,-1
 553.580078125 732.620117188 l 1,5,-1
 553.580078125 710.120117188 l 1,6,-1
 553.580078125 673.3203125 l 1,7,-1
 553.580078125 636.51953125 l 1,8,-1
 553.580078125 614.01953125 l 1,9,-1
 531.080078125 614.01953125 l 1,10,-1
 29.919921875 614.01953125 l 1,11,-1
 7.419921875 614.01953125 l 1,12,-1
 7.419921875 636.51953125 l 1,13,-1
 7.419921875 673.3203125 l 1,0,-1
280.0703125 7.76953125 m 1,14,-1
 243.26953125 7.76953125 l 1,15,-1
 220.76953125 7.76953125 l 1,16,-1
 220.76953125 30.26953125 l 1,17,-1
 220.76953125 665.990234375 l 1,18,-1
 220.76953125 688.490234375 l 1,19,-1
 243.26953125 688.490234375 l 1,20,-1
 280.0703125 688.490234375 l 1,21,-1
 316.870117188 688.490234375 l 1,22,-1
 339.370117188 688.490234375 l 1,23,-1
 339.370117188 665.990234375 l 1,24,-1
 339.370117188 30.26953125 l 1,25,-1
 339.370117188 7.76953125 l 1,26,-1
 316.870117188 7.76953125 l 1,27,-1
 280.0703125 7.76953125 l 1,14,-1
EndSplineSet
EndChar

StartChar: U
Encoding: 85 85 56
Width: 725
VWidth: 948
Flags: W
LayerCount: 2
Fore
SplineSet
512.6796875 625.21484375 m 5,0,-1
 512.219726562 675.51953125 l 5,1,-1
 512.219726562 712.3203125 l 5,2,-1
 512.219726562 724.8203125 l 5,3,-1
 534.719726562 724.8203125 l 5,4,-1
 590.83984375 724.8203125 l 5,5,-1
 596.360351562 724.8203125 l 5,6,-1
 601.419921875 724.8203125 l 6,7,8
 607 725 607 725 610.09375 723.689453125 c 4,9,10
 613 723 613 723 615.012695312 722.216796875 c 4,11,12
 620 719 620 719 620.90234375 718.838867188 c 4,13,14
 627 720 627 720 627.069335938 720.534179688 c 4,15,16
 628 719 628 719 629.2109375 715.616210938 c 4,17,18
 631.740234375 711.4296875 631.740234375 711.4296875 631.740234375 701.740234375 c 6,19,-1
 631.740234375 693.919921875 l 5,20,-1
 631.740234375 124.98046875 l 5,21,-1
 633.580078125 124.98046875 l 5,22,-1
 633.580078125 102.48046875 l 5,23,-1
 633.580078125 59.6796875 l 5,24,-1
 633.580078125 22.8798828125 l 5,25,-1
 633.580078125 0.3798828125 l 5,26,-1
 611.080078125 0.3798828125 l 5,27,-1
 554.040039062 0.3798828125 l 6,28,29
 547.067382812 0.05078125 547.067382812 0.05078125 539.3828125 1.9716796875 c 6,30,-1
 533.86328125 3.3515625 l 6,31,32
 520 7 520 7 515.213867188 21.28515625 c 4,33,34
 513.139648438 27.576171875 513.139648438 27.576171875 513.139648438 32.5400390625 c 6,35,-1
 513.139648438 38.98046875 l 5,36,-1
 513.139648438 45.8798828125 l 5,37,-1
 512.6796875 625.21484375 l 5,0,-1
591.905273438 162.526367188 m 5,38,-1
 610.233398438 131.3671875 l 5,39,-1
 621.682617188 111.903320312 l 5,40,-1
 602.176757812 100.525390625 l 6,41,42
 547 69 547 69 485.834960938 44.25 c 4,43,44
 426 21 426 21 370.6015625 9.1767578125 c 4,45,46
 314 -3 314 -3 264.240234375 -2.8203125 c 4,47,48
 189 -3 189 -3 137.98828125 37.955078125 c 4,49,50
 84.419921875 80.6650390625 84.419921875 80.6650390625 84.419921875 160.440429688 c 6,51,-1
 84.419921875 628.719726562 l 5,52,-1
 84.419921875 675.51953125 l 5,53,-1
 84.419921875 712.3203125 l 5,54,-1
 84.419921875 724.8203125 l 5,55,-1
 106.919921875 724.8203125 l 5,56,-1
 162.120117188 724.8203125 l 5,57,-1
 168.559570312 724.8203125 l 5,58,-1
 173.16015625 724.8203125 l 6,59,60
 178 725 178 725 181.376953125 723.688476562 c 4,61,62
 198 721 198 721 198.348632812 720.534179688 c 4,63,64
 199 719 199 719 199.375 718.338867188 c 4,65,66
 200 717 200 717 200.490234375 715.616210938 c 4,67,68
 203.01953125 708.948242188 203.01953125 708.948242188 203.01953125 701.740234375 c 6,69,-1
 203.01953125 693.919921875 l 5,70,-1
 203.01953125 160.440429688 l 6,71,72
 203 134 203 134 213.487304688 125.98828125 c 4,73,74
 226 116 226 116 264.240234375 115.780273438 c 4,75,76
 319 116 319 116 394.051757812 137.866210938 c 4,77,78
 469.922851562 160.272460938 469.922851562 160.272460938 542.673828125 202.858398438 c 6,79,-1
 562.294921875 214.34375 l 5,80,-1
 573.575195312 194.603515625 l 5,81,-1
 591.905273438 162.526367188 l 5,38,-1
EndSplineSet
EndChar

StartChar: V
Encoding: 86 86 57
Width: 675
VWidth: 949
Flags: W
LayerCount: 2
Fore
SplineSet
616.331054688 709.108398438 m 5,0,-1
 650.37109375 694.388671875 l 5,1,-1
 670.948242188 685.491210938 l 5,2,-1
 662.124023438 664.881835938 l 5,3,-1
 390.689453125 30.919921875 l 6,4,5
 385.693359375 19.5009765625 385.693359375 19.5009765625 376.727539062 11.10546875 c 132,-1,6
 367.762695312 2.708984375 367.762695312 2.708984375 356.110351562 -1.5283203125 c 4,7,8
 331.502929688 -10.4765625 331.502929688 -10.4765625 308.8125 1.625 c 4,9,10
 299.651367188 6.55859375 299.651367188 6.55859375 292.737304688 13.8427734375 c 132,-1,11
 285.82421875 21.126953125 285.82421875 21.126953125 281.404296875 30.7021484375 c 6,12,-1
 9.884765625 663.01953125 l 5,13,-1
 1.0302734375 683.641601562 l 5,14,-1
 21.62890625 692.548828125 l 5,15,-1
 55.6689453125 707.268554688 l 5,16,-1
 89.708984375 721.98828125 l 5,17,-1
 110.428710938 730.948242188 l 5,18,-1
 119.3203125 710.200195312 l 5,19,-1
 335.965820312 204.6953125 l 5,20,-1
 552.668945312 712.015625 l 5,21,-1
 561.546875 732.798828125 l 5,22,-1
 582.291015625 723.828125 l 5,23,-1
 616.331054688 709.108398438 l 5,0,-1
EndSplineSet
EndChar

StartChar: W
Encoding: 87 87 58
Width: 933
VWidth: 949
Flags: W
LayerCount: 2
Fore
SplineSet
65.177734375 713.890625 m 5,0,-1
 100.063476562 723.989257812 l 5,1,-1
 121.831054688 730.291015625 l 5,2,-1
 127.9765625 708.479492188 l 5,3,-1
 261.302734375 235.3359375 l 5,4,-1
 410.385742188 593.450195312 l 6,5,6
 413.749023438 601.137695312 413.749023438 601.137695312 418.901367188 607.489257812 c 132,-1,7
 424.053710938 613.83984375 424.053710938 613.83984375 430.65234375 618.510742188 c 132,-1,8
 437.25 623.180664062 437.25 623.180664062 445.01171875 626.002929688 c 4,9,10
 469.6171875 634.950195312 469.6171875 634.950195312 492.307617188 622.849609375 c 4,11,12
 510.920898438 612.826171875 510.920898438 612.826171875 519.767578125 593.659179688 c 6,13,-1
 669.091796875 234.965820312 l 5,14,-1
 805.046875 710.403320312 l 5,15,-1
 811.2109375 731.958007812 l 5,16,-1
 832.788085938 725.872070312 l 5,17,-1
 868.741210938 715.73046875 l 5,18,-1
 903.775390625 705.590820312 l 5,19,-1
 925.333984375 699.350585938 l 5,20,-1
 919.147460938 677.775390625 l 5,21,-1
 736.174804688 39.6650390625 l 6,22,23
 733.249023438 27.9638671875 733.249023438 27.9638671875 725.280273438 18.4306640625 c 132,-1,24
 717.311523438 8.8974609375 717.311523438 8.8974609375 705.729492188 3.1064453125 c 4,25,26
 690.280273438 -3.916015625 690.280273438 -3.916015625 675.189453125 -3.197265625 c 4,27,28
 658.731445312 -2.4130859375 658.731445312 -2.4130859375 644.512695312 8.0634765625 c 4,29,30
 637.897460938 12.9384765625 637.897460938 12.9384765625 632.72265625 19.4501953125 c 132,-1,31
 627.548828125 25.962890625 627.548828125 25.962890625 624.610351562 33.3095703125 c 6,32,-1
 465.120117188 415.759765625 l 5,33,-1
 305.491210938 32.9775390625 l 6,34,35
 295.163085938 9.3671875 295.163085938 9.3671875 271.5390625 0.509765625 c 4,36,37
 259.766601562 -3.8154296875 259.766601562 -3.8154296875 247.532226562 -3.0517578125 c 132,-1,38
 235.296875 -2.287109375 235.296875 -2.287109375 224.137695312 3.29296875 c 4,39,40
 200.163085938 15.28125 200.163085938 15.28125 194.056640625 39.701171875 c 6,41,-1
 13.83203125 676.004882812 l 5,42,-1
 7.693359375 697.676757812 l 5,43,-1
 29.3720703125 703.791992188 l 5,44,-1
 65.177734375 713.890625 l 5,0,-1
EndSplineSet
EndChar

StartChar: X
Encoding: 88 88 59
Width: 709
VWidth: 949
Flags: W
LayerCount: 2
Fore
SplineSet
111.321289062 720.108398438 m 1,0,-1
 145.361328125 741.268554688 l 1,1,-1
 163.526367188 752.560546875 l 1,2,-1
 175.72265625 734.991210938 l 1,3,-1
 639.40234375 67.0712890625 l 1,4,-1
 652.209960938 48.623046875 l 1,5,-1
 633.78515625 35.78125 l 1,6,-1
 603.55859375 14.71484375 l 1,7,-1
 574.251953125 -6.3505859375 l 1,8,-1
 555.680664062 -19.69921875 l 1,9,-1
 542.637695312 -0.9111328125 l 1,10,-1
 78.9580078125 667.008789062 l 1,11,-1
 67.1240234375 684.0546875 l 1,12,-1
 83.158203125 697.225585938 l 1,13,-1
 108.91796875 718.385742188 l 1,14,-1
 110.063476562 719.327148438 l 1,15,-1
 111.321289062 720.108398438 l 1,0,-1
598.2265625 719.235351562 m 1,16,-1
 628.265625 698.298828125 l 1,17,-1
 646.598632812 685.521484375 l 1,18,-1
 633.947265625 667.1015625 l 1,19,-1
 403.947265625 332.221679688 l 1,20,-1
 390.93359375 313.274414062 l 1,21,-1
 372.268554688 326.689453125 l 1,22,-1
 342.9609375 347.754882812 l 1,23,-1
 312.734375 368.821289062 l 1,24,-1
 294.424804688 381.58203125 l 1,25,-1
 307.036132812 399.995117188 l 1,26,-1
 537.036132812 735.794921875 l 1,27,-1
 550.309570312 755.172851562 l 1,28,-1
 569.099609375 741.080078125 l 1,29,-1
 598.2265625 719.235351562 l 1,16,-1
368.958984375 384.485351562 m 1,30,-1
 398.532226562 363.23046875 l 1,31,-1
 416.663085938 350.19921875 l 1,32,-1
 403.770507812 331.96875 l 1,33,-1
 168.25 -1.0712890625 l 1,34,-1
 155.34765625 -19.31640625 l 1,35,-1
 137.014648438 -6.5390625 l 1,36,-1
 106.520507812 14.71484375 l 1,37,-1
 76.9482421875 35.9697265625 l 1,38,-1
 58.8173828125 49.001953125 l 1,39,-1
 71.7099609375 67.2314453125 l 1,40,-1
 307.229492188 400.271484375 l 1,41,-1
 320.131835938 418.516601562 l 1,42,-1
 338.46484375 405.739257812 l 1,43,-1
 368.958984375 384.485351562 l 1,30,-1
EndSplineSet
EndChar

StartChar: Y
Encoding: 89 89 60
Width: 611
VWidth: 950
Flags: W
LayerCount: 2
Fore
SplineSet
55.6005859375 718.28515625 m 5,0,-1
 86.0947265625 739.5390625 l 5,1,-1
 104.4375 752.323242188 l 5,2,-1
 117.337890625 734.061523438 l 5,3,-1
 351.96484375 401.90234375 l 6,4,5
 362.5 386.2578125 362.5 386.2578125 362.5 367.799804688 c 6,6,-1
 362.5 23.080078125 l 5,7,-1
 362.5 0.580078125 l 5,8,-1
 340 0.580078125 l 5,9,-1
 303.200195312 0.580078125 l 5,10,-1
 266.400390625 0.580078125 l 5,11,-1
 243.900390625 0.580078125 l 5,12,-1
 243.900390625 23.080078125 l 5,13,-1
 243.900390625 348.716796875 l 5,14,-1
 20.759765625 665.811523438 l 5,15,-1
 7.939453125 684.028320312 l 5,16,-1
 26.0283203125 697.030273438 l 5,17,-1
 55.6005859375 718.28515625 l 5,0,-1
554.479492188 720.125 m 5,18,-1
 584.705078125 699.05859375 l 5,19,-1
 603.369140625 686.049804688 l 5,20,-1
 590.155273438 667.53125 l 5,21,-1
 351.875 333.571289062 l 5,22,-1
 338.950195312 315.456054688 l 5,23,-1
 320.694335938 328.180664062 l 5,24,-1
 290.334960938 349.340820312 l 5,25,-1
 259.974609375 370.500976562 l 5,26,-1
 241.276367188 383.533203125 l 5,27,-1
 254.547851562 402.061523438 l 5,28,-1
 493.748046875 736.021484375 l 5,29,-1
 506.87109375 754.34375 l 5,30,-1
 525.171875 741.190429688 l 5,31,-1
 554.479492188 720.125 l 5,18,-1
EndSplineSet
EndChar

StartChar: Z
Encoding: 90 90 61
Width: 694
VWidth: 949
Flags: W
LayerCount: 2
Fore
SplineSet
103.641601562 724.551757812 m 2,0,1
 105.967044673 725.302177836 105.967044673 725.302177836 114.583007812 724.598632812 c 2,2,-1
 118.852539062 724.25 l 1,3,-1
 592.823242188 724.25 l 2,4,5
 611 724 611 724 616.830078125 715.6328125 c 0,6,7
 620 711 620 711 620.643554688 681.969726562 c 0,8,9
 621 672 621 672 619.638903532 660.237792862 c 0,10,11
 618.01899876 643.199826698 618.01899876 643.199826698 609.302409841 631.004896483 c 2,12,-1
 247.202912661 124.41015625 l 1,13,-1
 619.723632812 124.41015625 l 1,14,-1
 619.723632812 36.58984375 l 2,15,16
 620 31 620 31 619.026025819 29.9164310825 c 0,17,18
 619 29 619 29 618.826737079 28.9575041515 c 0,19,20
 619 29 619 29 618.694656307 28.1752696413 c 0,21,22
 617 11 617 11 615.446289062 10.4853515625 c 0,23,24
 612 9 612 9 606.575195312 7.626953125 c 0,25,26
 604 7 604 7 599.825195312 6.49609375 c 0,27,28
 590 6 590 6 588.823242188 5.8095703125 c 2,29,-1
 121.704101562 5.8095703125 l 2,30,31
 122 6 122 6 110.909179688 7.041015625 c 0,32,33
 105 8 105 8 100.390625 10.1953125 c 0,34,35
 96 12 96 12 91.830078125 14.4501953125 c 0,36,37
 72.9735088522 28.7800725532 72.9735088522 28.7800725532 73.267578125 31.6328125 c 0,38,39
 75 48 75 48 74.2213203975 53.7963184567 c 0,40,41
 70.9870242921 82.1136064373 70.9870242921 82.1136064373 83.9546754726 100.268298426 c 2,42,-1
 444.942275187 605.650390625 l 1,43,-1
 89.883789062 605.650390625 l 1,44,-1
 89.883789062 683.349609375 l 2,45,46
 90 687 90 687 90.0212316223 690.381602509 c 0,47,48
 90.0129432193 690.623012586 90.0129432193 690.623012586 90.5697513374 696.19080061 c 2,49,-1
 90.803710938 698.530273438 l 2,50,51
 91.0043309684 720.473713138 91.0043309684 720.473713138 92.0087890625 720.797851562 c 2,52,-1
 103.641601562 724.551757812 l 2,0,1
EndSplineSet
EndChar

StartChar: bracketleft
Encoding: 91 91 62
Width: 379
VWidth: 950
Flags: W
LayerCount: 2
Fore
SplineSet
291.379882812 744.83984375 m 5,0,-1
 291.379882812 708.040039062 l 5,1,-1
 291.379882812 685.540039062 l 5,2,-1
 268.879882812 685.540039062 l 5,3,-1
 225.139648438 685.540039062 l 5,4,-1
 225.139648438 87.4599609375 l 5,5,-1
 268.879882812 87.4599609375 l 5,6,-1
 291.379882812 87.4599609375 l 5,7,-1
 291.379882812 64.9599609375 l 5,8,-1
 291.379882812 28.16015625 l 5,9,-1
 291.379882812 -8.6396484375 l 5,10,-1
 291.379882812 -31.1396484375 l 5,11,-1
 268.879882812 -31.1396484375 l 5,12,-1
 147.440429688 -31.1396484375 l 5,13,-1
 141 -31.1396484375 l 5,14,-1
 136.400390625 -31.1396484375 l 6,15,16
 132.711914062 -31.1396484375 132.711914062 -31.1396484375 128.182617188 -30.0078125 c 4,17,18
 116.302734375 -27.0380859375 116.302734375 -27.0380859375 111.21484375 -16.8623046875 c 4,19,20
 110.336914062 -15.10546875 110.336914062 -15.10546875 109.069335938 -11.9365234375 c 4,21,22
 106.540039062 -5.61328125 106.540039062 -5.61328125 106.540039062 1.9404296875 c 6,23,-1
 106.540039062 9.759765625 l 5,24,-1
 106.540039062 763.173828125 l 5,25,-1
 106.25390625 765.969726562 l 6,26,27
 106.17578125 766.59375 106.17578125 766.59375 106.034179688 767.625 c 4,28,29
 105.620117188 770.649414062 105.620117188 770.649414062 105.620117188 773.360351562 c 4,30,31
 105.620117188 778.61328125 105.620117188 778.61328125 108.149414062 784.936523438 c 4,32,33
 112.24609375 795.178710938 112.24609375 795.178710938 120.817382812 799.46484375 c 4,34,35
 124.432617188 801.271484375 124.432617188 801.271484375 129.688476562 802.323242188 c 4,36,37
 132.344726562 802.854492188 132.344726562 802.854492188 135.4609375 803.374023438 c 4,38,39
 138.306640625 803.84765625 138.306640625 803.84765625 140.983398438 803.994140625 c 132,-1,40
 143.661132812 804.139648438 143.661132812 804.139648438 147.440429688 804.139648438 c 6,41,-1
 268.879882812 804.139648438 l 5,42,-1
 291.379882812 804.139648438 l 5,43,-1
 291.379882812 781.639648438 l 5,44,-1
 291.379882812 744.83984375 l 5,0,-1
EndSplineSet
EndChar

StartChar: bracketright
Encoding: 93 93 63
Width: 379
VWidth: 950
Flags: W
LayerCount: 2
Fore
SplineSet
89.6201171875 744.83984375 m 5,0,-1
 89.6201171875 708.040039062 l 5,1,-1
 89.6201171875 685.540039062 l 5,2,-1
 112.120117188 685.540039062 l 5,3,-1
 155.860351562 685.540039062 l 5,4,-1
 155.860351562 87.4599609375 l 5,5,-1
 112.120117188 87.4599609375 l 5,6,-1
 89.6201171875 87.4599609375 l 5,7,-1
 89.6201171875 64.9599609375 l 5,8,-1
 89.6201171875 28.16015625 l 5,9,-1
 89.6201171875 -8.6396484375 l 5,10,-1
 89.6201171875 -31.1396484375 l 5,11,-1
 112.120117188 -31.1396484375 l 5,12,-1
 233.559570312 -31.1396484375 l 5,13,-1
 240 -31.1396484375 l 5,14,-1
 244.599609375 -31.1396484375 l 6,15,16
 248.288085938 -31.1396484375 248.288085938 -31.1396484375 252.817382812 -30.0078125 c 4,17,18
 264.697265625 -27.0380859375 264.697265625 -27.0380859375 269.78515625 -16.8623046875 c 4,19,20
 270.663085938 -15.10546875 270.663085938 -15.10546875 271.930664062 -11.9365234375 c 4,21,22
 274.459960938 -5.61328125 274.459960938 -5.61328125 274.459960938 1.9404296875 c 6,23,-1
 274.459960938 9.759765625 l 5,24,-1
 274.459960938 763.173828125 l 5,25,-1
 274.74609375 765.969726562 l 6,26,27
 274.82421875 766.59375 274.82421875 766.59375 274.965820312 767.625 c 4,28,29
 275.379882812 770.649414062 275.379882812 770.649414062 275.379882812 773.360351562 c 4,30,31
 275.379882812 778.61328125 275.379882812 778.61328125 272.850585938 784.936523438 c 4,32,33
 268.75390625 795.178710938 268.75390625 795.178710938 260.182617188 799.46484375 c 4,34,35
 256.567382812 801.271484375 256.567382812 801.271484375 251.311523438 802.323242188 c 4,36,37
 248.655273438 802.854492188 248.655273438 802.854492188 245.5390625 803.374023438 c 4,38,39
 242.693359375 803.84765625 242.693359375 803.84765625 240.016601562 803.994140625 c 132,-1,40
 237.338867188 804.139648438 237.338867188 804.139648438 233.559570312 804.139648438 c 6,41,-1
 112.120117188 804.139648438 l 5,42,-1
 89.6201171875 804.139648438 l 5,43,-1
 89.6201171875 781.639648438 l 5,44,-1
 89.6201171875 744.83984375 l 5,0,-1
EndSplineSet
EndChar

StartChar: asciicircum
Encoding: 94 94 64
Width: 491
VWidth: 987
Flags: W
LayerCount: 2
Fore
SplineSet
88.873046875 782.787109375 m 5,0,-1
 68.71875 813.01953125 l 5,1,-1
 56.2197265625 831.770507812 l 5,2,-1
 74.9892578125 844.241210938 l 5,3,-1
 209.196289062 933.40625 l 6,4,5
 242 955.772460938 242 955.772460938 274.803710938 933.40625 c 6,6,-1
 409.010742188 844.241210938 l 5,7,-1
 427.780273438 831.770507812 l 5,8,-1
 415.28125 813.01953125 l 5,9,-1
 395.126953125 782.787109375 l 5,10,-1
 374.970703125 751.63671875 l 5,11,-1
 362.555664062 732.451171875 l 5,12,-1
 343.564453125 745.162109375 l 5,13,-1
 242 813.14453125 l 5,14,-1
 140.435546875 745.162109375 l 5,15,-1
 121.444335938 732.451171875 l 5,16,-1
 109.029296875 751.63671875 l 5,17,-1
 88.873046875 782.787109375 l 5,0,-1
EndSplineSet
EndChar

StartChar: underscore
Encoding: 95 95 65
Width: 570
VWidth: 916
Flags: W
LayerCount: 2
Fore
SplineSet
484.940429688 -39 m 1,0,-1
 484.940429688 -75.7998046875 l 1,1,-1
 484.940429688 -98.2998046875 l 1,2,-1
 462.440429688 -98.2998046875 l 1,3,-1
 104.559570312 -98.2998046875 l 1,4,-1
 82.059570312 -98.2998046875 l 1,5,-1
 82.059570312 -75.7998046875 l 1,6,-1
 82.059570312 -39 l 1,7,-1
 82.059570312 -2.2001953125 l 1,8,-1
 82.059570312 20.2998046875 l 1,9,-1
 104.559570312 20.2998046875 l 1,10,-1
 462.440429688 20.2998046875 l 1,11,-1
 484.940429688 20.2998046875 l 1,12,-1
 484.940429688 -2.2001953125 l 1,13,-1
 484.940429688 -39 l 1,0,-1
EndSplineSet
EndChar

StartChar: grave
Encoding: 96 96 66
Width: 510
VWidth: 981
Flags: W
LayerCount: 2
Fore
SplineSet
102.390625 820.36328125 m 5,0,-1
 114.350585938 855.323242188 l 5,1,-1
 121.591796875 876.48828125 l 5,2,-1
 142.798828125 869.37109375 l 5,3,-1
 411.439453125 779.2109375 l 5,4,-1
 432.89453125 772.009765625 l 5,5,-1
 425.569335938 750.596679688 l 5,6,-1
 413.609375 715.63671875 l 5,7,-1
 401.649414062 680.676757812 l 5,8,-1
 394.408203125 659.51171875 l 5,9,-1
 373.201171875 666.62890625 l 5,10,-1
 104.560546875 756.7890625 l 5,11,-1
 83.10546875 763.990234375 l 5,12,-1
 90.4306640625 785.403320312 l 5,13,-1
 102.390625 820.36328125 l 5,0,-1
EndSplineSet
EndChar

StartChar: a
Encoding: 97 97 67
Width: 533
VWidth: 940
Flags: W
LayerCount: 2
Fore
SplineSet
458.85546875 99.9072265625 m 5,0,-1
 459.315429688 59.6015625 l 5,1,-1
 459.315429688 22.8017578125 l 5,2,-1
 459.315429688 0.3017578125 l 5,3,-1
 436.815429688 0.3017578125 l 5,4,-1
 380.696289062 0.3017578125 l 5,5,-1
 375.17578125 0.3017578125 l 5,6,-1
 370.116210938 0.3017578125 l 6,7,8
 365.967773438 0.3017578125 365.967773438 0.3017578125 361.438476562 1.43359375 c 4,9,10
 349.55859375 4.4033203125 349.55859375 4.4033203125 344.470703125 14.5791015625 c 4,11,12
 343.852539062 15.8154296875 343.852539062 15.8154296875 343.44140625 16.7783203125 c 132,-1,13
 343.030273438 17.7412109375 343.030273438 17.7412109375 342.325195312 19.5048828125 c 4,14,15
 339.795898438 25.828125 339.795898438 25.828125 339.795898438 33.3818359375 c 6,16,-1
 339.795898438 41.201171875 l 5,17,-1
 339.795898438 343.647460938 l 6,18,19
 339.08984375 377.526367188 339.08984375 377.526367188 317.270507812 396.27734375 c 4,20,21
 305.584960938 406.3203125 305.584960938 406.3203125 292.45703125 410.958984375 c 132,-1,22
 279.330078125 415.596679688 279.330078125 415.596679688 263.518554688 415.229492188 c 4,23,24
 237.66796875 414.490234375 237.66796875 414.490234375 222.13671875 403.087890625 c 132,-1,25
 206.604492188 391.684570312 206.604492188 391.684570312 197.637695312 366.653320312 c 6,26,-1
 189.915039062 345.091796875 l 5,27,-1
 168.493164062 353.197265625 l 5,28,-1
 134.545898438 366.041992188 l 5,29,-1
 99.677734375 378.888671875 l 5,30,-1
 78.740234375 386.6015625 l 5,31,-1
 86.279296875 407.602539062 l 6,32,33
 100.825195312 448.125976562 100.825195312 448.125976562 129.120117188 476.9453125 c 132,-1,34
 157.227539062 505.572265625 157.227539062 505.572265625 190.987304688 519.287109375 c 4,35,36
 224.200195312 532.779296875 224.200195312 532.779296875 261.548828125 533.817382812 c 4,37,38
 337.44921875 534.856445312 337.44921875 534.856445312 396.369140625 483.689453125 c 4,39,40
 426.206054688 457.778320312 426.206054688 457.778320312 441.786132812 422.7734375 c 132,-1,41
 457.3671875 387.768554688 457.3671875 387.768554688 458.395507812 345.073242188 c 6,42,-1
 458.85546875 99.9072265625 l 5,0,-1
421.595703125 264.76171875 m 5,43,-1
 421.595703125 227.9609375 l 5,44,-1
 421.595703125 205.4609375 l 5,45,-1
 399.095703125 205.4609375 l 5,46,-1
 166.419921875 205.4609375 l 5,47,48
 161.733398438 200.348632812 161.733398438 200.348632812 161.209960938 189.603515625 c 4,49,50
 160.576171875 176.631835938 160.576171875 176.631835938 168.520507812 160.744140625 c 4,51,52
 177.02734375 143.729492188 177.02734375 143.729492188 193.045898438 129.038085938 c 4,53,54
 206.384765625 118.115234375 206.384765625 118.115234375 222.670898438 112.6875 c 4,55,56
 239.307617188 107.141601562 239.307617188 107.141601562 260.330078125 108.288085938 c 4,57,58
 280.314453125 109.377929688 280.314453125 109.377929688 304.672851562 123.296875 c 4,59,60
 330.0703125 137.809570312 330.0703125 137.809570312 353.208007812 165.905273438 c 6,61,-1
 367.640625 183.4296875 l 5,62,-1
 385.03515625 168.840820312 l 5,63,-1
 413.5546875 144.920898438 l 5,64,-1
 442.075195312 121.000976562 l 5,65,-1
 459.40234375 106.46875 l 5,66,-1
 444.78125 89.21484375 l 6,67,68
 394.328125 30.58203125 394.328125 30.58203125 332.03515625 6.80078125 c 4,69,70
 300.756835938 -4.9599609375 300.756835938 -4.9599609375 271.27734375 -8.390625 c 132,-1,71
 241.796875 -11.8212890625 241.796875 -11.8212890625 213.26171875 -6.67578125 c 4,72,73
 158.161132812 3.6240234375 158.161132812 3.6240234375 116.819335938 38.765625 c 4,74,75
 83.1298828125 67.349609375 83.1298828125 67.349609375 62.240234375 107.092773438 c 4,76,77
 40.6103515625 148.241210938 40.6103515625 148.241210938 42.1884765625 195.591796875 c 4,78,79
 43.8310546875 244.885742188 43.8310546875 244.885742188 76.4716796875 282.965820312 c 4,80,81
 80.541015625 287.849609375 80.541015625 287.849609375 85.056640625 292.366210938 c 132,-1,82
 89.5712890625 296.883789062 89.5712890625 296.883789062 94.5673828125 301.06640625 c 132,-1,83
 99.5625 305.248046875 99.5625 305.248046875 105.038085938 309.094726562 c 132,-1,84
 110.513671875 312.942382812 110.513671875 312.942382812 116.506835938 316.483398438 c 4,85,86
 130.14453125 324.061523438 130.14453125 324.061523438 146.095703125 324.061523438 c 6,87,-1
 399.095703125 324.061523438 l 5,88,-1
 421.595703125 324.061523438 l 5,89,-1
 421.595703125 301.561523438 l 5,90,-1
 421.595703125 264.76171875 l 5,43,-1
EndSplineSet
EndChar

StartChar: b
Encoding: 98 98 68
Width: 629
VWidth: 952
Flags: W
LayerCount: 2
Fore
SplineSet
140.479492188 380.485351562 m 5,0,-1
 109.00390625 405.48046875 l 5,1,-1
 91.5810546875 419.315429688 l 5,2,-1
 105.21875 436.892578125 l 6,3,4
 150.540039062 495.306640625 150.540039062 495.306640625 214.493164062 519.162109375 c 4,5,6
 277.76953125 542.765625 277.76953125 542.765625 336.75 534.629882812 c 4,7,8
 356.026367188 531.970703125 356.026367188 531.970703125 374.837890625 526.767578125 c 132,-1,9
 393.649414062 521.565429688 393.649414062 521.565429688 411.918945312 513.858398438 c 132,-1,10
 430.189453125 506.151367188 430.189453125 506.151367188 448.006835938 495.922851562 c 4,11,12
 506.08203125 461.87890625 506.08203125 461.87890625 544.8671875 401.7109375 c 132,-1,13
 583.58984375 341.640625 583.58984375 341.640625 592.008789062 268.348632812 c 4,14,15
 600.665039062 192.994140625 600.665039062 192.994140625 557.475585938 116.66015625 c 4,16,17
 547.282226562 98.822265625 547.282226562 98.822265625 534.252929688 83.234375 c 132,-1,18
 521.223632812 67.646484375 521.223632812 67.646484375 505.520507812 54.4775390625 c 4,19,20
 450.947265625 7.98828125 450.947265625 7.98828125 376.877929688 -2.5927734375 c 4,21,22
 303.6875 -13.048828125 303.6875 -13.048828125 231.23828125 13.2509765625 c 4,23,24
 158.250976562 39.7470703125 158.250976562 39.7470703125 109.249023438 99.748046875 c 6,25,-1
 95.1572265625 117.00390625 l 5,26,-1
 112.271484375 131.265625 l 5,27,-1
 139.844726562 154.243164062 l 5,28,-1
 168.336914062 178.139648438 l 5,29,-1
 185.745117188 192.740234375 l 5,30,-1
 200.17578125 175.190429688 l 6,31,32
 230.141601562 138.745117188 230.141601562 138.745117188 274.208984375 123.786132812 c 4,33,34
 319.01171875 108.578125 319.01171875 108.578125 360.83203125 115.481445312 c 4,35,36
 381.791992188 118.940429688 381.791992188 118.940429688 398.930664062 126.368164062 c 132,-1,37
 416.069335938 133.794921875 416.069335938 133.794921875 429.612304688 145.016601562 c 4,38,39
 437.12890625 151.405273438 437.12890625 151.405273438 443.505859375 159.13671875 c 132,-1,40
 449.883789062 166.8671875 449.883789062 166.8671875 454.80859375 175.580078125 c 4,41,42
 478.862304688 218.877929688 478.862304688 218.877929688 474.162109375 260.005859375 c 4,43,44
 471.689453125 281.642578125 471.689453125 281.642578125 464.765625 301.092773438 c 132,-1,45
 457.840820312 320.543945312 457.840820312 320.543945312 446.413085938 338.094726562 c 4,46,47
 435.4453125 354.749023438 435.4453125 354.749023438 421.009765625 368.370117188 c 132,-1,48
 406.57421875 381.991210938 406.57421875 381.991210938 388.486328125 392.6796875 c 4,49,50
 356.23046875 411.702148438 356.23046875 411.702148438 324.04296875 417 c 4,51,52
 293.393554688 422.04296875 293.393554688 422.04296875 258.3515625 409.69921875 c 4,53,54
 224.216796875 397.674804688 224.216796875 397.674804688 198.853515625 364.384765625 c 6,55,-1
 185.245117188 346.524414062 l 5,56,-1
 167.357421875 360.094726562 l 5,57,-1
 140.479492188 380.485351562 l 5,0,-1
172.299804688 3.7802734375 m 5,58,59
 166.303710938 3.27734375 166.303710938 3.27734375 165.990234375 3.2890625 c 132,-1,60
 165.677734375 3.30078125 165.677734375 3.30078125 161.356445312 3.732421875 c 6,61,-1
 157.087890625 4.0810546875 l 5,62,-1
 79.4560546875 4.0810546875 l 5,63,-1
 79.4560546875 808.081054688 l 5,64,-1
 157.15625 808.081054688 l 6,65,66
 164.076171875 808.081054688 164.076171875 808.081054688 169.147460938 807.447265625 c 4,67,68
 169.92578125 807.349609375 169.92578125 807.349609375 172.729492188 807.126953125 c 132,-1,69
 175.533203125 806.904296875 175.533203125 806.904296875 177.307617188 806.778320312 c 4,70,71
 184.270507812 804.290039062 184.270507812 804.290039062 189.080078125 799.548828125 c 132,-1,72
 193.890625 794.807617188 193.890625 794.807617188 195.526367188 790.716796875 c 4,73,74
 198.055664062 784.393554688 198.055664062 784.393554688 198.055664062 779.140625 c 6,75,-1
 198.055664062 44.98046875 l 6,76,77
 198.055664062 36.9423828125 198.055664062 36.9423828125 197.370117188 32.140625 c 4,78,79
 197.135742188 30.501953125 197.135742188 30.501953125 197.135742188 29.80078125 c 4,80,81
 197.135742188 14.576171875 197.135742188 14.576171875 183.930664062 7.533203125 c 6,82,-1
 172.299804688 3.7802734375 l 5,58,59
EndSplineSet
EndChar

StartChar: c
Encoding: 99 99 69
Width: 595
VWidth: 940
Flags: W
LayerCount: 2
Fore
SplineSet
510.177734375 350.421875 m 5,0,-1
 482.877929688 326.762695312 l 5,1,-1
 465.7109375 311.884765625 l 5,2,-1
 450.999023438 329.194335938 l 6,3,4
 443.818359375 337.641601562 443.818359375 337.641601562 435.904296875 345.556640625 c 132,-1,5
 427.990234375 353.471679688 427.990234375 353.471679688 419.626953125 360.581054688 c 4,6,7
 389.599609375 385.533203125 389.599609375 385.533203125 358.728515625 398.333007812 c 132,-1,8
 327.857421875 411.133789062 327.857421875 411.133789062 295.704101562 412.362304688 c 4,9,10
 234.494140625 414.702148438 234.494140625 414.702148438 198.35546875 371.642578125 c 4,11,12
 169.682617188 337.39453125 169.682617188 337.39453125 165.311523438 293.6875 c 4,13,14
 160.841796875 248.994140625 160.841796875 248.994140625 177.760742188 210.723632812 c 4,15,16
 194.916015625 171.922851562 194.916015625 171.922851562 226.805664062 145.756835938 c 4,17,18
 259.791992188 117.717773438 259.791992188 117.717773438 296.154296875 108.42578125 c 4,19,20
 331.110351562 99.4921875 331.110351562 99.4921875 372.646484375 113.471679688 c 4,21,22
 393.359375 120.44140625 393.359375 120.44140625 412.91015625 134.595703125 c 132,-1,23
 432.4609375 148.75 432.4609375 148.75 450.966796875 170.619140625 c 6,24,-1
 465.161132812 187.395507812 l 5,25,-1
 482.266601562 173.600585938 l 5,26,-1
 511.09765625 150.349609375 l 5,27,-1
 538.999023438 126.168945312 l 5,28,-1
 555.64453125 111.7421875 l 5,29,-1
 541.57421875 94.7939453125 l 6,30,31
 498.102539062 42.4296875 498.102539062 42.4296875 444.701171875 15.4794921875 c 4,32,33
 418.002929688 2.005859375 418.002929688 2.005859375 391.309570312 -4.9853515625 c 132,-1,34
 364.6171875 -11.9765625 364.6171875 -11.9765625 338.181640625 -12.2333984375 c 4,35,36
 286.860351562 -12.7314453125 286.860351562 -12.7314453125 238.520507812 4.212890625 c 4,37,38
 233.673828125 5.912109375 233.673828125 5.912109375 228.900390625 7.7861328125 c 132,-1,39
 224.127929688 9.6611328125 224.127929688 9.6611328125 219.440429688 11.7060546875 c 132,-1,40
 214.75390625 13.751953125 214.75390625 13.751953125 210.146484375 15.9697265625 c 132,-1,41
 205.538085938 18.1875 205.538085938 18.1875 201.01953125 20.57421875 c 132,-1,42
 196.5 22.9599609375 196.5 22.9599609375 192.064453125 25.515625 c 132,-1,43
 187.629882812 28.0712890625 187.629882812 28.0712890625 183.286132812 30.7919921875 c 132,-1,44
 178.942382812 33.513671875 178.942382812 33.513671875 174.6875 36.400390625 c 132,-1,45
 170.432617188 39.2880859375 170.432617188 39.2880859375 166.272460938 42.337890625 c 132,-1,46
 162.112304688 45.388671875 162.112304688 45.388671875 158.045898438 48.6015625 c 132,-1,47
 153.979492188 51.8154296875 153.979492188 51.8154296875 150.010742188 55.189453125 c 4,48,49
 111.875 87.3017578125 111.875 87.3017578125 86.39453125 133.767578125 c 4,50,51
 78.0009765625 149.07421875 78.0009765625 149.07421875 71.34765625 165.080078125 c 132,-1,52
 64.693359375 181.086914062 64.693359375 181.086914062 59.7998046875 197.741210938 c 132,-1,53
 54.90625 214.39453125 54.90625 214.39453125 51.7822265625 231.659179688 c 4,54,55
 42.2099609375 284.55859375 42.2099609375 284.55859375 55.69921875 342.008789062 c 4,56,57
 69.2666015625 399.795898438 69.2666015625 399.795898438 107.377929688 447.936523438 c 4,58,59
 156.448242188 509.275390625 156.448242188 509.275390625 229.369140625 526.221679688 c 4,60,61
 300.642578125 542.78515625 300.642578125 542.78515625 369.956054688 521.1875 c 4,62,63
 437.801757812 500.046875 437.801757812 500.046875 495.3671875 451.262695312 c 4,64,65
 520.943359375 430.606445312 520.943359375 430.606445312 541.766601562 404.822265625 c 6,66,-1
 555.9140625 387.305664062 l 5,67,-1
 538.387695312 373.170898438 l 5,68,-1
 510.177734375 350.421875 l 5,0,-1
EndSplineSet
EndChar

StartChar: d
Encoding: 100 100 70
Width: 646
VWidth: 952
Flags: W
LayerCount: 2
Fore
SplineSet
505.177734375 355.155273438 m 5,0,-1
 477.877929688 331.49609375 l 5,1,-1
 460.7109375 316.618164062 l 5,2,-1
 445.999023438 333.927734375 l 6,3,4
 443.946289062 336.342773438 443.946289062 336.342773438 441.82421875 338.72265625 c 132,-1,5
 439.703125 341.103515625 439.703125 341.103515625 437.530273438 343.431640625 c 132,-1,6
 435.356445312 345.759765625 435.356445312 345.759765625 433.127929688 348.041015625 c 132,-1,7
 430.8984375 350.322265625 430.8984375 350.322265625 428.625 352.543945312 c 132,-1,8
 426.3515625 354.766601562 426.3515625 354.766601562 424.03515625 356.9296875 c 132,-1,9
 421.71875 359.092773438 421.71875 359.092773438 419.364257812 361.190429688 c 132,-1,10
 417.010742188 363.288085938 417.010742188 363.288085938 414.626953125 365.314453125 c 4,11,12
 402.552734375 375.34765625 402.552734375 375.34765625 390.321289062 383.418945312 c 132,-1,13
 378.08984375 391.490234375 378.08984375 391.490234375 365.819335938 397.563476562 c 132,-1,14
 353.548828125 403.635742188 353.548828125 403.635742188 341.067382812 407.822265625 c 132,-1,15
 328.5859375 412.009765625 328.5859375 412.009765625 316.046875 414.307617188 c 132,-1,16
 303.5078125 416.606445312 303.5078125 416.606445312 290.704101562 417.095703125 c 4,17,18
 259.1953125 418.299804688 259.1953125 418.299804688 235.455078125 408.275390625 c 132,-1,19
 211.71484375 398.250976562 211.71484375 398.250976562 193.35546875 376.375976562 c 4,20,21
 183.671875 364.809570312 183.671875 364.809570312 176.83203125 352.401367188 c 132,-1,22
 169.9921875 339.993164062 169.9921875 339.993164062 165.887695312 326.565429688 c 132,-1,23
 161.783203125 313.137695312 161.783203125 313.137695312 160.311523438 298.420898438 c 4,24,25
 155.841796875 253.727539062 155.841796875 253.727539062 172.760742188 215.45703125 c 4,26,27
 175.66015625 208.900390625 175.66015625 208.900390625 178.919921875 202.77734375 c 132,-1,28
 182.1796875 196.653320312 182.1796875 196.653320312 185.840820312 190.8984375 c 132,-1,29
 189.501953125 185.142578125 189.501953125 185.142578125 193.5546875 179.7734375 c 132,-1,30
 197.608398438 174.404296875 197.608398438 174.404296875 202.098632812 169.361328125 c 132,-1,31
 206.58984375 164.318359375 206.58984375 164.318359375 211.50390625 159.614257812 c 132,-1,32
 216.41796875 154.911132812 216.41796875 154.911132812 221.805664062 150.490234375 c 4,33,34
 254.791992188 122.451171875 254.791992188 122.451171875 291.154296875 113.159179688 c 4,35,36
 326.110351562 104.225585938 326.110351562 104.225585938 367.646484375 118.205078125 c 4,37,38
 409.540039062 132.302734375 409.540039062 132.302734375 445.966796875 175.352539062 c 6,39,-1
 460.161132812 192.12890625 l 5,40,-1
 477.266601562 178.333984375 l 5,41,-1
 506.09765625 155.083007812 l 5,42,-1
 533.999023438 130.90234375 l 5,43,-1
 550.64453125 116.475585938 l 5,44,-1
 536.57421875 99.52734375 l 6,45,46
 493.102539062 47.1630859375 493.102539062 47.1630859375 439.701171875 20.212890625 c 4,47,48
 413.002929688 6.7392578125 413.002929688 6.7392578125 386.309570312 -0.251953125 c 132,-1,49
 359.6171875 -7.2431640625 359.6171875 -7.2431640625 333.181640625 -7.5 c 4,50,51
 281.860351562 -7.998046875 281.860351562 -7.998046875 233.520507812 8.9462890625 c 4,52,53
 184.955078125 25.96875 184.955078125 25.96875 145.010742188 59.9228515625 c 4,54,55
 106.875 92.03515625 106.875 92.03515625 81.39453125 138.500976562 c 4,56,57
 56.1748046875 184.491210938 56.1748046875 184.491210938 46.7822265625 236.392578125 c 4,58,59
 37.2099609375 289.291992188 37.2099609375 289.291992188 50.69921875 346.7421875 c 4,60,61
 57.4765625 375.609375 57.4765625 375.609375 70.4296875 402.143554688 c 132,-1,62
 83.3837890625 428.676757812 83.3837890625 428.676757812 102.377929688 452.669921875 c 4,63,64
 151.448242188 514.008789062 151.448242188 514.008789062 224.369140625 530.955078125 c 4,65,66
 295.642578125 547.518554688 295.642578125 547.518554688 364.956054688 525.920898438 c 4,67,68
 387.4921875 518.8984375 387.4921875 518.8984375 409.13671875 508.663085938 c 132,-1,69
 430.780273438 498.427734375 430.780273438 498.427734375 451.100585938 485.240234375 c 132,-1,70
 471.419921875 472.053710938 471.419921875 472.053710938 490.3671875 455.99609375 c 4,71,72
 515.943359375 435.33984375 515.943359375 435.33984375 536.766601562 409.555664062 c 6,73,-1
 550.9140625 392.0390625 l 5,74,-1
 533.387695312 377.904296875 l 5,75,-1
 505.177734375 355.155273438 l 5,0,-1
564.302734375 102.68359375 m 5,76,-1
 564.762695312 62.3798828125 l 5,77,-1
 564.762695312 25.5791015625 l 5,78,-1
 564.762695312 3.0791015625 l 5,79,-1
 542.262695312 3.0791015625 l 5,80,-1
 486.142578125 3.0791015625 l 5,81,-1
 480.623046875 3.0791015625 l 5,82,-1
 475.563476562 3.0791015625 l 6,83,84
 471.413085938 3.0791015625 471.413085938 3.0791015625 466.885742188 4.2109375 c 4,85,86
 455.005859375 7.1806640625 455.005859375 7.1806640625 449.9140625 17.365234375 c 4,87,88
 449.297851562 18.59765625 449.297851562 18.59765625 448.887695312 19.560546875 c 132,-1,89
 448.4765625 20.5234375 448.4765625 20.5234375 447.772460938 22.283203125 c 4,90,91
 445.243164062 28.6064453125 445.243164062 28.6064453125 445.243164062 36.1591796875 c 6,92,-1
 445.243164062 43.9794921875 l 5,93,-1
 445.243164062 767.099609375 l 5,94,-1
 445.243164062 772.619140625 l 5,95,-1
 445.243164062 777.219726562 l 6,96,97
 445.243164062 780.602539062 445.243164062 780.602539062 445.940429688 783.893554688 c 4,98,99
 446.073242188 784.518554688 446.073242188 784.518554688 446.139648438 784.852539062 c 132,-1,100
 446.181640625 785.059570312 446.181640625 785.059570312 446.272460938 785.634765625 c 4,101,102
 446.584960938 787.622070312 446.584960938 787.622070312 447.033203125 789.140625 c 132,-1,103
 447.48046875 790.659179688 447.48046875 790.659179688 448.764648438 793.4375 c 132,-1,104
 450.048828125 796.21484375 450.048828125 796.21484375 452.801757812 798.77734375 c 132,-1,105
 455.553710938 801.340820312 455.553710938 801.340820312 459.520507812 803.32421875 c 4,106,107
 463.135742188 805.130859375 463.135742188 805.130859375 468.391601562 806.182617188 c 4,108,109
 471.3046875 806.764648438 471.3046875 806.764648438 475.141601562 807.3125 c 4,110,111
 479.944335938 807.999023438 479.944335938 807.999023438 486.142578125 807.999023438 c 6,112,-1
 542.262695312 807.999023438 l 5,113,-1
 564.762695312 807.999023438 l 5,114,-1
 564.762695312 785.499023438 l 5,115,-1
 564.762695312 748.69921875 l 5,116,-1
 564.302734375 708.395507812 l 5,117,-1
 564.302734375 102.68359375 l 5,76,-1
EndSplineSet
EndChar

StartChar: e
Encoding: 101 101 71
Width: 591
VWidth: 940
Flags: W
LayerCount: 2
Fore
SplineSet
486.3125 310.723632812 m 5,0,-1
 446.751953125 302.443359375 l 5,1,-1
 424.782226562 297.844726562 l 5,2,-1
 420.130859375 319.803710938 l 6,3,4
 414 350 414 350 400.219726562 366.86328125 c 4,5,6
 363 411 363 411 296.10546875 412.834960938 c 4,7,8
 258 414 258 414 233.522460938 403.637695312 c 4,9,10
 209 393 209 393 190.434570312 371.662109375 c 4,11,12
 176 354 176 354 167.764648438 335.052734375 c 4,13,14
 160 316 160 316 157.391601562 293.70703125 c 4,15,16
 153 249 153 249 169.840820312 210.743164062 c 4,17,18
 179 191 179 191 190.634765625 175.060546875 c 4,19,20
 203 159 203 159 218.885742188 145.776367188 c 4,21,22
 252 118 252 118 288.234375 108.4453125 c 4,23,24
 323 100 323 100 364.7265625 113.491210938 c 4,25,26
 406.958984375 127.985351562 406.958984375 127.985351562 443.046875 170.638671875 c 6,27,-1
 457.241210938 187.415039062 l 5,28,-1
 474.346679688 173.620117188 l 5,29,-1
 503.177734375 150.369140625 l 5,30,-1
 531.079101562 126.188476562 l 5,31,-1
 547.724609375 111.76171875 l 5,32,-1
 533.654296875 94.8134765625 l 6,33,34
 490 42 490 42 436.780273438 15.4990234375 c 4,35,36
 410 2 410 2 383.389648438 -4.96484375 c 4,37,38
 357 -12 357 -12 330.26171875 -12.212890625 c 4,39,40
 279 -13 279 -13 230.600585938 4.232421875 c 4,41,42
 182 21 182 21 142.090820312 55.208984375 c 4,43,44
 123 71 123 71 107.094726562 90.9677734375 c 132,-1,45
 91 111 91 111 78.474609375 133.787109375 c 4,46,47
 72 145 72 145 66.861328125 157.145507812 c 4,48,49
 62 169 62 169 57.2138671875 181.267578125 c 4,50,51
 53 194 53 194 49.5458984375 206.122070312 c 4,52,53
 46 219 46 219 43.8623046875 231.678710938 c 4,54,55
 34 285 34 285 47.7783203125 342.029296875 c 4,56,57
 51 356 51 356 56.1123046875 370.340820312 c 4,58,59
 61 384 61 384 67.525390625 397.462890625 c 132,-1,60
 74 411 74 411 81.982421875 423.340820312 c 4,61,62
 90 436 90 436 99.4580078125 447.956054688 c 4,63,64
 151 511 151 511 221.374023438 526.223632812 c 4,65,66
 299 544 299 544 366.459960938 521.0703125 c 4,67,68
 439.150390625 497.278320312 439.150390625 497.278320312 486.573242188 449.85546875 c 6,69,-1
 489.038085938 447.390625 l 5,70,-1
 506 418 l 5,71,-1
 520.596679688 384.206054688 l 5,72,-1
 523 369 l 5,73,-1
 525 340.619140625 l 5,74,-1
 496.48046875 315.779296875 l 5,75,-1
 492.055664062 311.92578125 l 5,76,-1
 486.3125 310.723632812 l 5,0,-1
87.984375 236.5546875 m 5,77,-1
 75.0703125 271.606445312 l 5,78,-1
 65.9208984375 296.439453125 l 5,79,-1
 91.9013671875 301.474609375 l 5,80,-1
 451.875976562 370.461914062 l 5,81,-1
 497.809570312 379.649414062 l 5,82,-1
 520.596679688 384.206054688 l 5,83,-1
 524.416992188 361.28515625 l 5,84,-1
 534.376953125 288.524414062 l 5,85,-1
 532.977539062 266.916992188 l 5,86,-1
 518.474609375 263.73828125 l 5,87,-1
 126.235351562 188.298828125 l 5,88,-1
 107.61328125 184.680664062 l 5,89,-1
 100.899414062 202.422851562 l 5,90,-1
 87.984375 236.5546875 l 5,77,-1
EndSplineSet
EndChar

StartChar: f
Encoding: 102 102 72
Width: 456
VWidth: 952
Flags: W
LayerCount: 2
Fore
SplineSet
461.345136115 708.393680015 m 1,0,-1
 443.015975909 676.317406444 l 1,1,-1
 431.775570118 656.646547161 l 1,2,-1
 412.182789292 668.022502801 l 2,3,4
 400 675 400 675 388.162167798 678.211537135 c 0,5,6
 376 682 376 682 362.759765625 681.540039062 c 0,7,8
 340 682 340 682 319.54190216 672.373996315 c 0,9,10
 299 663 299 663 280.478093998 643.761821829 c 0,11,12
 268 631 268 631 259.926937601 616.344174195 c 0,13,14
 250 599 250 599 247.683427855 584.609630332 c 0,15,16
 244 548 244 548 243.580078125 547.639648438 c 2,17,-1
 243.580078125 25.3603515625 l 1,18,-1
 243.580078125 2.8603515625 l 1,19,-1
 221.080078125 2.8603515625 l 1,20,-1
 184.280273438 2.8603515625 l 1,21,-1
 147.48046875 2.8603515625 l 1,22,-1
 124.98046875 2.8603515625 l 1,23,-1
 124.98046875 25.3603515625 l 1,24,-1
 124.98046875 547.639648438 l 2,25,26
 125 653 125 653 195.693488788 726.568950044 c 0,27,28
 267 800 267 800 362.759765625 800.139648438 c 0,29,30
 382 800 382 800 400.453735453 796.800110821 c 0,31,32
 419 793 419 793 436.833622337 786.853089545 c 0,33,34
 455.162906664 779.938545043 455.162906664 779.938545043 471.568831518 770.423220081 c 2,35,-1
 491.152175247 759.065013758 l 1,36,-1
 479.673731021 739.551902252 l 1,37,-1
 461.345136115 708.393680015 l 1,0,-1
53.2197265625 475.879882812 m 1,38,-1
 53.2197265625 512.6796875 l 1,39,-1
 53.2197265625 535.1796875 l 1,40,-1
 75.7197265625 535.1796875 l 1,41,-1
 378.400390625 535.1796875 l 1,42,-1
 400.900390625 535.1796875 l 1,43,-1
 400.900390625 512.6796875 l 1,44,-1
 400.900390625 475.879882812 l 1,45,-1
 400.900390625 439.080078125 l 1,46,-1
 400.900390625 416.580078125 l 1,47,-1
 378.400390625 416.580078125 l 1,48,-1
 75.7197265625 416.580078125 l 1,49,-1
 53.2197265625 416.580078125 l 1,50,-1
 53.2197265625 439.080078125 l 1,51,-1
 53.2197265625 475.879882812 l 1,38,-1
EndSplineSet
EndChar

